  0
SECTION
  2
HEADER
  9
$ACADVER
  1
AC1015
  9
$ACADMAINTVER
 70
     6
  9
$DWGCODEPAGE
  3
ANSI_936
  9
$INSBASE
 10
0.0
 20
0.0
 30
0.0
  9
$EXTMIN
 10
-146.6523553025
 20
-111.3716228437
 30
0.0
  9
$EXTMAX
 10
153.2956295629
 20
88.7063740214
 30
0.0
  9
$LIMMIN
 10
0.0
 20
0.0
  9
$LIMMAX
 10
420.0
 20
297.0
  9
$ORTHOMODE
 70
     0
  9
$REGENMODE
 70
     1
  9
$FILLMODE
 70
     1
  9
$QTEXTMODE
 70
     0
  9
$MIRRTEXT
 70
     1
  9
$LTSCALE
 40
1.0
  9
$ATTMODE
 70
     1
  9
$TEXTSIZE
 40
5.5
  9
$TRACEWID
 40
1.0
  9
$TEXTSTYLE
  7
Standard
  9
$CLAYER
  8
0
  9
$CELTYPE
  6
ByLayer
  9
$CECOLOR
 62
   256
  9
$CELTSCALE
 40
1.0
  9
$DISPSILH
 70
     0
  9
$DIMSCALE
 40
1.0
  9
$DIMASZ
 40
4.08
  9
$DIMEXO
 40
0.0
  9
$DIMDLI
 40
3.75
  9
$DIMRND
 40
0.0
  9
$DIMDLE
 40
0.0
  9
$DIMEXE
 40
2.0
  9
$DIMTP
 40
0.0
  9
$DIMTM
 40
0.0
  9
$DIMTXT
 40
5.5
  9
$DIMCEN
 40
2.5
  9
$DIMTSZ
 40
0.0
  9
$DIMTOL
 70
     0
  9
$DIMLIM
 70
     0
  9
$DIMTIH
 70
     1
  9
$DIMTOH
 70
     1
  9
$DIMSE1
 70
     0
  9
$DIMSE2
 70
     0
  9
$DIMTAD
 70
     1
  9
$DIMZIN
 70
     1
  9
$DIMBLK
  1

  9
$DIMASO
 70
     1
  9
$DIMSHO
 70
     1
  9
$DIMPOST
  1

  9
$DIMAPOST
  1

  9
$DIMALT
 70
     0
  9
$DIMALTD
 70
     3
  9
$DIMALTF
 40
0.0393700787
  9
$DIMLFAC
 40
1.0
  9
$DIMTOFL
 70
     1
  9
$DIMTVP
 40
0.0
  9
$DIMTIX
 70
     0
  9
$DIMSOXD
 70
     0
  9
$DIMSAH
 70
     0
  9
$DIMBLK1
  1

  9
$DIMBLK2
  1

  9
$DIMSTYLE
  2
ISO-25
  9
$DIMCLRD
 70
     0
  9
$DIMCLRE
 70
     0
  9
$DIMCLRT
 70
     0
  9
$DIMTFAC
 40
1.0
  9
$DIMGAP
 40
1.524
  9
$DIMJUST
 70
     0
  9
$DIMSD1
 70
     0
  9
$DIMSD2
 70
     0
  9
$DIMTOLJ
 70
     0
  9
$DIMTZIN
 70
     1
  9
$DIMALTZ
 70
     0
  9
$DIMALTTZ
 70
     0
  9
$DIMUPT
 70
     0
  9
$DIMDEC
 70
     2
  9
$DIMTDEC
 70
     2
  9
$DIMALTU
 70
     2
  9
$DIMALTTD
 70
     3
  9
$DIMTXSTY
  7
Standard
  9
$DIMAUNIT
 70
     0
  9
$DIMADEC
 70
     2
  9
$DIMALTRND
 40
0.0
  9
$DIMAZIN
 70
     0
  9
$DIMDSEP
 70
    44
  9
$DIMATFIT
 70
     3
  9
$DIMFRAC
 70
     0
  9
$DIMLDRBLK
  1

  9
$DIMLUNIT
 70
     2
  9
$DIMLWD
 70
    -2
  9
$DIMLWE
 70
    -2
  9
$DIMTMOVE
 70
     0
  9
$LUNITS
 70
     2
  9
$LUPREC
 70
     2
  9
$SKETCHINC
 40
1.0
  9
$FILLETRAD
 40
0.0
  9
$AUNITS
 70
     0
  9
$AUPREC
 70
     2
  9
$MENU
  1
.
  9
$ELEVATION
 40
0.0
  9
$PELEVATION
 40
0.0
  9
$THICKNESS
 40
0.0
  9
$LIMCHECK
 70
     0
  9
$CHAMFERA
 40
0.0
  9
$CHAMFERB
 40
0.0
  9
$CHAMFERC
 40
0.0
  9
$CHAMFERD
 40
0.0
  9
$SKPOLY
 70
     0
  9
$TDCREATE
 40
2460868.770074687
  9
$TDUCREATE
 40
2460868.436741354
  9
$TDUPDATE
 40
2460868.770309815
  9
$TDUUPDATE
 40
2460868.436976482
  9
$TDINDWG
 40
0.0000000116
  9
$TDUSRTIMER
 40
0.0000000116
  9
$USRTIMER
 70
     1
  9
$ANGBASE
 50
0.0
  9
$ANGDIR
 70
     0
  9
$PDMODE
 70
     0
  9
$PDSIZE
 40
-1.0
  9
$PLINEWID
 40
0.0
  9
$SPLFRAME
 70
     0
  9
$SPLINETYPE
 70
     6
  9
$SPLINESEGS
 70
     8
  9
$HANDSEED
  5
319
  9
$SURFTAB1
 70
     6
  9
$SURFTAB2
 70
     6
  9
$SURFTYPE
 70
     6
  9
$SURFU
 70
     6
  9
$SURFV
 70
     6
  9
$UCSBASE
  2

  9
$UCSNAME
  2

  9
$UCSORG
 10
0.0
 20
0.0
 30
0.0
  9
$UCSXDIR
 10
1.0
 20
0.0
 30
0.0
  9
$UCSYDIR
 10
0.0
 20
1.0
 30
0.0
  9
$UCSORTHOREF
  2

  9
$UCSORTHOVIEW
 70
     0
  9
$UCSORGTOP
 10
0.0
 20
0.0
 30
0.0
  9
$UCSORGBOTTOM
 10
0.0
 20
0.0
 30
0.0
  9
$UCSORGLEFT
 10
0.0
 20
0.0
 30
0.0
  9
$UCSORGRIGHT
 10
0.0
 20
0.0
 30
0.0
  9
$UCSORGFRONT
 10
0.0
 20
0.0
 30
0.0
  9
$UCSORGBACK
 10
0.0
 20
0.0
 30
0.0
  9
$PUCSBASE
  2

  9
$PUCSNAME
  2

  9
$PUCSORG
 10
0.0
 20
0.0
 30
0.0
  9
$PUCSXDIR
 10
1.0
 20
0.0
 30
0.0
  9
$PUCSYDIR
 10
0.0
 20
1.0
 30
0.0
  9
$PUCSORTHOREF
  2

  9
$PUCSORTHOVIEW
 70
     0
  9
$PUCSORGTOP
 10
0.0
 20
0.0
 30
0.0
  9
$PUCSORGBOTTOM
 10
0.0
 20
0.0
 30
0.0
  9
$PUCSORGLEFT
 10
0.0
 20
0.0
 30
0.0
  9
$PUCSORGRIGHT
 10
0.0
 20
0.0
 30
0.0
  9
$PUCSORGFRONT
 10
0.0
 20
0.0
 30
0.0
  9
$PUCSORGBACK
 10
0.0
 20
0.0
 30
0.0
  9
$USERI1
 70
     0
  9
$USERI2
 70
     0
  9
$USERI3
 70
     0
  9
$USERI4
 70
     0
  9
$USERI5
 70
     0
  9
$USERR1
 40
0.0
  9
$USERR2
 40
0.0
  9
$USERR3
 40
0.0
  9
$USERR4
 40
0.0
  9
$USERR5
 40
0.0
  9
$WORLDVIEW
 70
     1
  9
$SHADEDGE
 70
     3
  9
$SHADEDIF
 70
    70
  9
$TILEMODE
 70
     1
  9
$MAXACTVP
 70
    64
  9
$PINSBASE
 10
0.0
 20
0.0
 30
0.0
  9
$PLIMCHECK
 70
     0
  9
$PEXTMIN
 10
1.0000000000E+20
 20
1.0000000000E+20
 30
1.0000000000E+20
  9
$PEXTMAX
 10
-1.0000000000E+20
 20
-1.0000000000E+20
 30
-1.0000000000E+20
  9
$PLIMMIN
 10
0.0
 20
0.0
  9
$PLIMMAX
 10
420.0
 20
297.0
  9
$UNITMODE
 70
     0
  9
$VISRETAIN
 70
     1
  9
$PLINEGEN
 70
     0
  9
$PSLTSCALE
 70
     1
  9
$TREEDEPTH
 70
  3020
  9
$CMLSTYLE
  2
Standard
  9
$CMLJUST
 70
     0
  9
$CMLSCALE
 40
20.0
  9
$PROXYGRAPHICS
 70
     1
  9
$MEASUREMENT
 70
     1
  9
$CELWEIGHT
370
    -1
  9
$ENDCAPS
280
     0
  9
$JOINSTYLE
280
     0
  9
$LWDISPLAY
290
     1
  9
$INSUNITS
 70
     4
  9
$HYPERLINKBASE
  1

  9
$STYLESHEET
  1

  9
$XEDIT
290
     1
  9
$CEPSNTYPE
380
     0
  9
$PSTYLEMODE
290
     1
  9
$FINGERPRINTGUID
  2
{f3791808-9633-413e-bb93-67fde6576b64}
  9
$VERSIONGUID
  2
{FAEB1C32-E019-11D5-929B-00C0DF256EC4}
  9
$EXTNAMES
290
     1
  9
$PSVPSCALE
 40
0.0
  9
$OLESTARTUP
290
     0
  0
ENDSEC
  0
SECTION
  2
CLASSES
  0
CLASS
  1
ACDBDICTIONARYWDFLT
  2
AcDbDictionaryWithDefault
  3
ObjectDBX Classes
 90
        0
280
     0
281
     0
  0
CLASS
  1
VISUALSTYLE
  2
AcDbVisualStyle
  3
ObjectDBX Classes
 90
     4095
280
     0
281
     0
  0
CLASS
  1
MATERIAL
  2
AcDbMaterial
  3
ObjectDBX Classes
 90
     1153
280
     0
281
     0
  0
CLASS
  1
SCALE
  2
AcDbScale
  3
ObjectDBX Classes
 90
     1153
280
     0
281
     0
  0
CLASS
  1
TABLESTYLE
  2
AcDbTableStyle
  3
ObjectDBX Classes
 90
     4095
280
     0
281
     0
  0
CLASS
  1
MLEADERSTYLE
  2
AcDbMLeaderStyle
  3
ACDB_MLEADERSTYLE_CLASS
 90
     4095
280
     0
281
     0
  0
CLASS
  1
SUN
  2
AcDbSun
  3
SCENEOE
 90
     1153
280
     0
281
     0
  0
CLASS
  1
ACDBPLACEHOLDER
  2
AcDbPlaceHolder
  3
ObjectDBX Classes
 90
        0
280
     0
281
     0
  0
CLASS
  1
LAYOUT
  2
AcDbLayout
  3
ObjectDBX Classes
 90
        0
280
     0
281
     0
  0
ENDSEC
  0
SECTION
  2
TABLES
  0
TABLE
  2
VPORT
  5
8
330
0
100
AcDbSymbolTable
 70
     1
  0
VPORT
  5
29
330
8
100
AcDbSymbolTableRecord
100
AcDbViewportTableRecord
  2
*Active
 70
     0
 10
0.0
 20
0.0
 11
1.0
 21
1.0
 12
3.3216371302
 22
-11.3326244111
 13
0.0
 23
0.0
 14
10.0
 24
10.0
 15
10.0
 25
10.0
 16
0.0
 26
0.0
 36
1.0
 17
0.0
 27
0.0
 37
0.0
 40
204.0795568024
 41
1.4991552773
 42
50.0
 43
0.0
 44
0.0
 50
0.0
 51
0.0
 71
     0
 72
   100
 73
     1
 74
     3
 75
     0
 76
     0
 77
     0
 78
     0
281
     0
 65
     1
110
0.0
120
0.0
130
0.0
111
1.0
121
0.0
131
0.0
112
0.0
122
1.0
132
0.0
 79
     0
146
0.0
  0
ENDTAB
  0
TABLE
  2
LTYPE
  5
5
330
0
100
AcDbSymbolTable
 70
     6
  0
LTYPE
  5
14
330
5
100
AcDbSymbolTableRecord
100
AcDbLinetypeTableRecord
  2
ByBlock
 70
     0
  3

 72
    65
 73
     0
 40
0.0
  0
LTYPE
  5
15
330
5
100
AcDbSymbolTableRecord
100
AcDbLinetypeTableRecord
  2
ByLayer
 70
     0
  3

 72
    65
 73
     0
 40
0.0
  0
LTYPE
  5
16
330
5
100
AcDbSymbolTableRecord
100
AcDbLinetypeTableRecord
  2
Continuous
 70
     0
  3
Solid line
 72
    65
 73
     0
 40
0.0
  0
LTYPE
  5
5E
330
5
100
AcDbSymbolTableRecord
100
AcDbLinetypeTableRecord
  2
HIDDEN
 70
     0
  3
Hidden __ __ __ __ __ __ __ __ __ __ __ __ __ __
 72
    65
 73
     2
 40
1.905
 49
1.27
 74
     0
 49
-0.635
 74
     0
  0
LTYPE
  5
5F
330
5
100
AcDbSymbolTableRecord
100
AcDbLinetypeTableRecord
  2
PHANTOM
 70
     0
  3
Phantom ______  __  __  ______  __  __  ______
 72
    65
 73
     6
 40
12.7
 49
6.35
 74
     0
 49
-1.27
 74
     0
 49
1.27
 74
     0
 49
-1.27
 74
     0
 49
1.27
 74
     0
 49
-1.27
 74
     0
  0
LTYPE
  5
60
330
5
100
AcDbSymbolTableRecord
100
AcDbLinetypeTableRecord
  2
CENTER
 70
     0
  3
Center ____ _ ____ _ ____ _ ____ _ ____ _ ____
 72
    65
 73
     4
 40
10.16
 49
6.35
 74
     0
 49
-1.27
 74
     0
 49
1.27
 74
     0
 49
-1.27
 74
     0
  0
LTYPE
  5
61
330
5
100
AcDbSymbolTableRecord
100
AcDbLinetypeTableRecord
  2
CENTERX2
 70
     0
  3
Center (2x) ________  __  ________  __  _____
 72
    65
 73
     4
 40
20.32
 49
12.7
 74
     0
 49
-2.54
 74
     0
 49
2.54
 74
     0
 49
-2.54
 74
     0
  0
LTYPE
  5
62
330
5
100
AcDbSymbolTableRecord
100
AcDbLinetypeTableRecord
  2
DOT2
 70
     0
  3
Dot (.5x) ........................................
 72
    65
 73
     2
 40
0.635
 49
0.0
 74
     0
 49
-0.635
 74
     0
  0
ENDTAB
  0
TABLE
  2
LAYER
  5
2
330
0
100
AcDbSymbolTable
 70
     1
  0
LAYER
  5
10
330
2
100
AcDbSymbolTableRecord
100
AcDbLayerTableRecord
  2
0
 70
     0
 62
     7
  6
Continuous
370
    -3
390
F
  0
ENDTAB
  0
TABLE
  2
STYLE
  5
3
330
0
100
AcDbSymbolTable
 70
     1
  0
STYLE
  5
11
330
3
100
AcDbSymbolTableRecord
100
AcDbTextStyleTableRecord
  2
Standard
 70
     0
 40
0.0
 41
1.0
 50
0.0
 71
     0
 42
5.5
  3
txt
  4

  0
ENDTAB
  0
TABLE
  2
VIEW
  5
6
330
0
100
AcDbSymbolTable
 70
     0
  0
ENDTAB
  0
TABLE
  2
UCS
  5
7
330
0
100
AcDbSymbolTable
 70
     0
  0
ENDTAB
  0
TABLE
  2
APPID
  5
9
330
0
100
AcDbSymbolTable
 70
     1
  0
APPID
  5
12
330
9
100
AcDbSymbolTableRecord
100
AcDbRegAppTableRecord
  2
ACAD
 70
     0
  0
ENDTAB
  0
TABLE
  2
DIMSTYLE
  5
A
330
0
100
AcDbSymbolTable
 70
     1
100
AcDbDimStyleTable
  0
DIMSTYLE
105
27
330
A
100
AcDbSymbolTableRecord
100
AcDbDimStyleTableRecord
  2
ISO-25
 70
     0
 41
2.5
 42
0.625
 43
3.75
 44
1.25
 73
     0
 74
     0
 77
     1
 78
     8
140
2.5
141
2.5
143
0.0393700787
147
0.625
171
     3
172
     1
178
     0
271
     2
272
     2
274
     3
278
    44
283
     0
284
     8
340
11
  0
ENDTAB
  0
TABLE
  2
BLOCK_RECORD
  5
1
330
0
100
AcDbSymbolTable
 70
     1
  0
BLOCK_RECORD
  5
1F
330
1
100
AcDbSymbolTableRecord
100
AcDbBlockTableRecord
  2
*Model_Space
340
22
  0
BLOCK_RECORD
  5
1B
330
1
100
AcDbSymbolTableRecord
100
AcDbBlockTableRecord
  2
*Paper_Space
340
1E
  0
BLOCK_RECORD
  5
23
330
1
100
AcDbSymbolTableRecord
100
AcDbBlockTableRecord
  2
*Paper_Space0
340
26
  0
ENDTAB
  0
ENDSEC
  0
SECTION
  2
BLOCKS
  0
BLOCK
  5
20
330
1F
100
AcDbEntity
  8
0
100
AcDbBlockBegin
  2
*Model_Space
 70
     0
 10
0.0
 20
0.0
 30
0.0
  3
*Model_Space
  1

  0
ENDBLK
  5
21
330
1F
100
AcDbEntity
  8
0
100
AcDbBlockEnd
  0
BLOCK
  5
1C
330
1B
100
AcDbEntity
 67
     1
  8
0
100
AcDbBlockBegin
  2
*Paper_Space
 70
     0
 10
0.0
 20
0.0
 30
0.0
  3
*Paper_Space
  1

  0
ENDBLK
  5
1D
330
1B
100
AcDbEntity
 67
     1
  8
0
100
AcDbBlockEnd
  0
BLOCK
  5
24
330
23
100
AcDbEntity
  8
0
100
AcDbBlockBegin
  2
*Paper_Space0
 70
     0
 10
0.0
 20
0.0
 30
0.0
  3
*Paper_Space0
  1

  0
ENDBLK
  5
25
330
23
100
AcDbEntity
  8
0
100
AcDbBlockEnd
  0
ENDSEC
  0
SECTION
  2
ENTITIES
  0
LINE
  5
63
330
1F
100
AcDbEntity
  8
0
  6
Continuous
 62
     7
100
AcDbLine
 10
0.0
 20
0.0
 30
0.0
 11
3.9002339445
 21
-0.0036091979
 31
0.0
  0
LINE
  5
64
330
1F
100
AcDbEntity
  8
0
  6
Continuous
 62
     7
100
AcDbLine
 10
0.0
 20
0.0
 30
0.0
 11
-0.0032087457
 21
7.7961759612
 31
0.0
  0
LINE
  5
65
330
1F
100
AcDbEntity
  8
0
  6
CENTERX2
 62
     7
100
AcDbLine
 10
-146.6238546146
 20
19.4592602713
 30
0.0
 11
153.2418964712
 21
19.1817705443
 31
0.0
  0
LINE
  5
66
330
1F
100
AcDbEntity
  8
0
  6
Continuous
 62
     7
100
AcDbLine
 10
-127.1473224379
 20
65.0934813886
 30
0.0
 11
-127.1365184215
 21
38.843344621
 31
0.0
  0
LINE
  5
67
330
1F
100
AcDbEntity
  8
0
  6
Continuous
 62
     7
100
AcDbLine
 10
-127.1365184215
 20
38.843344621
 30
0.0
 11
-97.3543517674
 21
38.8157848038
 31
0.0
  0
LINE
  5
68
330
1F
100
AcDbEntity
  8
0
  6
Continuous
 62
     7
100
AcDbLine
 10
-97.3543517674
 20
38.8157848038
 30
0.0
 11
-97.3651557838
 21
65.0659215713
 31
0.0
  0
LINE
  5
69
330
1F
100
AcDbEntity
  8
0
  6
Continuous
 62
     7
100
AcDbLine
 10
-97.3651557838
 20
65.0659215713
 30
0.0
 11
-109.7939339938
 21
65.0774229124
 31
0.0
  0
LINE
  5
6A
330
1F
100
AcDbEntity
  8
0
  6
Continuous
 62
     7
100
AcDbLine
 10
-109.7939339938
 20
65.0774229124
 30
0.0
 11
-109.7867956258
 21
47.7335825481
 31
0.0
  0
LINE
  5
6B
330
1F
100
AcDbEntity
  8
0
  6
Continuous
 62
     7
100
AcDbLine
 10
-109.7867956258
 20
47.7335825481
 30
0.0
 11
-115.4149216077
 21
47.7387907025
 31
0.0
  0
LINE
  5
6C
330
1F
100
AcDbEntity
  8
0
  6
Continuous
 62
     7
100
AcDbLine
 10
-115.4149216077
 20
47.7387907025
 30
0.0
 11
-115.4220599757
 21
65.0826310668
 31
0.0
  0
LINE
  5
6D
330
1F
100
AcDbEntity
  8
0
  6
Continuous
 62
     7
100
AcDbLine
 10
-115.4220599757
 20
65.0826310668
 30
0.0
 11
-127.1473224379
 21
65.0934813886
 31
0.0
  0
LINE
  5
6E
330
1F
100
AcDbEntity
  8
0
  6
Continuous
 62
     7
100
AcDbLine
 10
-94.7855980421
 20
65.0635345005
 30
0.0
 11
-94.7747940257
 21
38.813397733
 31
0.0
  0
LINE
  5
6F
330
1F
100
AcDbEntity
  8
0
  6
Continuous
 62
     7
100
AcDbLine
 10
-94.7747940257
 20
38.813397733
 30
0.0
 11
-88.6776575453
 21
38.8077555657
 31
0.0
  0
LINE
  5
70
330
1F
100
AcDbEntity
  8
0
  6
Continuous
 62
     7
100
AcDbLine
 10
-88.6776575453
 20
38.8077555657
 30
0.0
 11
-88.6823336691
 21
50.1691681545
 31
0.0
  0
LINE
  5
71
330
1F
100
AcDbEntity
  8
0
  6
Continuous
 62
     7
100
AcDbLine
 10
-77.6559108308
 20
38.7975562632
 30
0.0
 11
-65.9306483686
 21
38.7867059415
 31
0.0
  0
LINE
  5
72
330
1F
100
AcDbEntity
  8
0
  6
Continuous
 62
     7
100
AcDbLine
 10
-65.9306483686
 20
38.7867059415
 30
0.0
 11
-65.941452385
 21
65.036842709
 31
0.0
  0
LINE
  5
73
330
1F
100
AcDbEntity
  8
0
  6
Continuous
 62
     7
100
AcDbLine
 10
-65.941452385
 20
65.036842709
 30
0.0
 11
-77.6667148473
 21
65.0476930308
 31
0.0
  0
LINE
  5
74
330
1F
100
AcDbEntity
  8
0
  6
Continuous
 62
     7
100
AcDbLine
 10
-77.6667148473
 20
65.0476930308
 30
0.0
 11
-77.6630849881
 21
56.2283524618
 31
0.0
  0
LINE
  5
75
330
1F
100
AcDbEntity
  8
0
  6
Continuous
 62
     7
100
AcDbLine
 10
-84.5910649769
 20
65.054100685
 30
0.0
 11
-94.7855980421
 21
65.0635345005
 31
0.0
  0
LINE
  5
76
330
1F
100
AcDbEntity
  8
0
  6
Continuous
 62
     7
100
AcDbLine
 10
-62.8928841448
 20
65.0340216254
 30
0.0
 11
-62.8820801284
 21
38.7838848578
 31
0.0
  0
LINE
  5
77
330
1F
100
AcDbEntity
  8
0
  6
Continuous
 62
     7
100
AcDbLine
 10
-62.8820801284
 20
38.7838848578
 30
0.0
 11
-55.5721495453
 21
38.7771203953
 31
0.0
  0
LINE
  5
78
330
1F
100
AcDbEntity
  8
0
  6
Continuous
 62
     7
100
AcDbLine
 10
-36.5015418582
 20
41.9235506193
 30
0.0
 11
-36.5098860316
 21
62.1970937478
 31
0.0
  0
LINE
  5
79
330
1F
100
AcDbEntity
  8
0
  6
Continuous
 62
     7
100
AcDbLine
 10
-53.5814369436
 20
59.1660017029
 30
0.0
 11
-47.6312648338
 21
59.1604955334
 31
0.0
  0
LINE
  5
7A
330
1F
100
AcDbEntity
  8
0
  6
Continuous
 62
     7
100
AcDbLine
 10
-47.6312648338
 20
59.1604955334
 30
0.0
 11
-44.8160442697
 21
56.3453768025
 31
0.0
  0
LINE
  5
7B
330
1F
100
AcDbEntity
  8
0
  6
Continuous
 62
     7
100
AcDbLine
 10
-44.8160442697
 20
56.3453768025
 30
0.0
 11
-44.8124750857
 21
47.6734566204
 31
0.0
  0
LINE
  5
7C
330
1F
100
AcDbEntity
  8
0
  6
Continuous
 62
     7
100
AcDbLine
 10
-44.8124750857
 20
47.6734566204
 30
0.0
 11
-47.6253805035
 21
44.863546044
 31
0.0
  0
LINE
  5
7D
330
1F
100
AcDbEntity
  8
0
  6
Continuous
 62
     7
100
AcDbLine
 10
-47.6253805035
 20
44.863546044
 30
0.0
 11
-53.5755526133
 21
44.8690522134
 31
0.0
  0
LINE
  5
7E
330
1F
100
AcDbEntity
  8
0
  6
Continuous
 62
     7
100
AcDbLine
 10
-8.2531610708
 20
64.9834591261
 30
0.0
 11
-8.2423570544
 21
38.7333223585
 31
0.0
  0
LINE
  5
7F
330
1F
100
AcDbEntity
  8
0
  6
Continuous
 62
     7
100
AcDbLine
 10
-8.2423570544
 20
38.7333223585
 30
0.0
 11
-0.3696168396
 21
38.7260370833
 31
0.0
  0
LINE
  5
80
330
1F
100
AcDbEntity
  8
0
  6
Continuous
 62
     7
100
AcDbLine
 10
-0.3696168396
 20
38.7260370833
 30
0.0
 11
0.9921484147
 21
38.7247769331
 31
0.0
  0
LINE
  5
81
330
1F
100
AcDbEntity
  8
0
  6
Continuous
 62
     7
100
AcDbLine
 10
0.9921484147
 20
38.7247769331
 30
0.0
 11
0.989709488
 21
44.6505509022
 31
0.0
  0
LINE
  5
82
330
1F
100
AcDbEntity
  8
0
  6
Continuous
 62
     7
100
AcDbLine
 10
0.989709488
 20
44.6505509022
 30
0.0
 11
5.2782306785
 21
44.6465823911
 31
0.0
  0
LINE
  5
83
330
1F
100
AcDbEntity
  8
0
  6
Continuous
 62
     7
100
AcDbLine
 10
9.5680863892
 20
41.4001773062
 30
0.0
 11
9.5691907956
 21
38.7168399108
 31
0.0
  0
LINE
  5
84
330
1F
100
AcDbEntity
  8
0
  6
Continuous
 62
     7
100
AcDbLine
 10
9.5691907956
 20
38.7168399108
 30
0.0
 11
21.2251714671
 21
38.7060537011
 31
0.0
  0
LINE
  5
85
330
1F
100
AcDbEntity
  8
0
  6
Continuous
 62
     7
100
AcDbLine
 10
21.2251714671
 20
38.7060537011
 30
0.0
 11
21.2228080885
 21
44.448271119
 31
0.0
  0
LINE
  5
86
330
1F
100
AcDbEntity
  8
0
  6
Continuous
 62
     7
100
AcDbLine
 10
21.2228080885
 20
44.448271119
 30
0.0
 11
15.9803882812
 21
44.4531223487
 31
0.0
  0
LINE
  5
87
330
1F
100
AcDbEntity
  8
0
  6
Continuous
 62
     7
100
AcDbLine
 10
15.9803882812
 20
44.4531223487
 30
0.0
 11
15.9781206592
 21
49.9626833402
 31
0.0
  0
LINE
  5
88
330
1F
100
AcDbEntity
  8
0
  6
Continuous
 62
     7
100
AcDbLine
 10
12.6164125762
 20
51.9637985075
 30
0.0
 11
20.9735307935
 21
51.9560649986
 31
0.0
  0
LINE
  5
89
330
1F
100
AcDbEntity
  8
0
  6
Continuous
 62
     7
100
AcDbLine
 10
20.9735307935
 20
51.9560649986
 30
0.0
 11
20.9681801154
 21
64.9564182854
 31
0.0
  0
LINE
  5
8A
330
1F
100
AcDbEntity
  8
0
  6
Continuous
 62
     7
100
AcDbLine
 10
20.9681801154
 20
64.9564182854
 30
0.0
 11
3.6147216981
 21
64.9724768264
 31
0.0
  0
LINE
  5
8B
330
1F
100
AcDbEntity
  8
0
  6
Continuous
 62
     7
100
AcDbLine
 10
22.9672851227
 20
64.9545683539
 30
0.0
 11
22.9722530409
 21
52.8841929653
 31
0.0
  0
LINE
  5
8C
330
1F
100
AcDbEntity
  8
0
  6
Continuous
 62
     7
100
AcDbLine
 10
22.9722530409
 20
52.8841929653
 30
0.0
 11
30.9319820665
 21
52.8768271923
 31
0.0
  0
LINE
  5
8D
330
1F
100
AcDbEntity
  8
0
  6
Continuous
 62
     7
100
AcDbLine
 10
30.9319820665
 20
52.8768271923
 30
0.0
 11
30.9378181646
 21
38.6970658134
 31
0.0
  0
LINE
  5
8E
330
1F
100
AcDbEntity
  8
0
  6
Continuous
 62
     7
100
AcDbLine
 10
30.9378181646
 20
38.6970658134
 30
0.0
 11
43.3635334088
 21
38.6855673068
 31
0.0
  0
LINE
  5
8F
330
1F
100
AcDbEntity
  8
0
  6
Continuous
 62
     7
100
AcDbLine
 10
43.3635334088
 20
38.6855673068
 30
0.0
 11
43.357552614
 21
53.2168930174
 31
0.0
  0
LINE
  5
90
330
1F
100
AcDbEntity
  8
0
  6
Continuous
 62
     7
100
AcDbLine
 10
43.357552614
 20
53.2168930174
 30
0.0
 11
51.3847845858
 21
53.2094647786
 31
0.0
  0
LINE
  5
91
330
1F
100
AcDbEntity
  8
0
  6
Continuous
 62
     7
100
AcDbLine
 10
51.3847845858
 20
53.2094647786
 30
0.0
 11
51.3799613642
 21
64.9282758355
 31
0.0
  0
LINE
  5
92
330
1F
100
AcDbEntity
  8
0
  6
Continuous
 62
     7
100
AcDbLine
 10
51.3799613642
 20
64.9282758355
 30
0.0
 11
22.9672851227
 21
64.9545683539
 31
0.0
  0
LINE
  5
93
330
1F
100
AcDbEntity
  8
0
  6
Continuous
 62
     7
100
AcDbLine
 10
53.8196962516
 20
64.926018154
 30
0.0
 11
53.830500268
 21
38.6758813864
 31
0.0
  0
LINE
  5
94
330
1F
100
AcDbEntity
  8
0
  6
Continuous
 62
     7
100
AcDbLine
 10
53.830500268
 20
38.6758813864
 30
0.0
 11
62.7374288943
 21
38.6676390941
 31
0.0
  0
LINE
  5
95
330
1F
100
AcDbEntity
  8
0
  6
Continuous
 62
     7
100
AcDbLine
 10
62.7374288943
 20
38.6676390941
 30
0.0
 11
62.7338832527
 21
47.2823591705
 31
0.0
  0
LINE
  5
96
330
1F
100
AcDbEntity
  8
0
  6
Continuous
 62
     7
100
AcDbLine
 10
62.7338832527
 20
47.2823591705
 30
0.0
 11
66.2431906646
 21
47.2791117281
 31
0.0
  0
LINE
  5
97
330
1F
100
AcDbEntity
  8
0
  6
Continuous
 62
     7
100
AcDbLine
 10
71.2009635518
 20
47.2745239049
 30
0.0
 11
71.2045091934
 21
38.6598038285
 31
0.0
  0
LINE
  5
98
330
1F
100
AcDbEntity
  8
0
  6
Continuous
 62
     7
100
AcDbLine
 10
71.2045091934
 20
38.6598038285
 30
0.0
 11
80.1114378198
 21
38.6515615361
 31
0.0
  0
LINE
  5
99
330
1F
100
AcDbEntity
  8
0
  6
Continuous
 62
     7
100
AcDbLine
 10
80.1114378198
 20
38.6515615361
 30
0.0
 11
80.1006338033
 21
64.9016983037
 31
0.0
  0
LINE
  5
9A
330
1F
100
AcDbEntity
  8
0
  6
Continuous
 62
     7
100
AcDbLine
 10
80.1006338033
 20
64.9016983037
 30
0.0
 11
68.235037297
 21
64.9126784877
 31
0.0
  0
LINE
  5
9B
330
1F
100
AcDbEntity
  8
0
  6
Continuous
 62
     7
100
AcDbLine
 10
82.5498620474
 20
64.8994318372
 30
0.0
 11
82.5606660638
 21
38.6492950696
 31
0.0
  0
LINE
  5
9C
330
1F
100
AcDbEntity
  8
0
  6
Continuous
 62
     7
100
AcDbLine
 10
82.5606660638
 20
38.6492950696
 30
0.0
 11
106.1724512079
 21
38.6274451992
 31
0.0
  0
LINE
  5
9D
330
1F
100
AcDbEntity
  8
0
  6
Continuous
 62
     7
100
AcDbLine
 10
106.1724512079
 20
38.6274451992
 30
0.0
 11
106.1689302561
 21
47.1821772707
 31
0.0
  0
LINE
  5
9E
330
1F
100
AcDbEntity
  8
0
  6
Continuous
 62
     7
100
AcDbLine
 10
106.1689302561
 20
47.1821772707
 30
0.0
 11
94.4579685437
 21
47.1930143588
 31
0.0
  0
LINE
  5
9F
330
1F
100
AcDbEntity
  8
0
  6
Continuous
 62
     7
100
AcDbLine
 10
94.4579685437
 20
47.1930143588
 30
0.0
 11
94.4506854791
 21
64.8884190548
 31
0.0
  0
LINE
  5
A0
330
1F
100
AcDbEntity
  8
0
  6
Continuous
 62
     7
100
AcDbLine
 10
94.4506854791
 20
64.8884190548
 30
0.0
 11
82.5498620474
 21
64.8994318372
 31
0.0
  0
LINE
  5
A1
330
1F
100
AcDbEntity
  8
0
  6
Continuous
 62
     7
100
AcDbLine
 10
63.0029552748
 20
58.2508471864
 30
0.0
 11
63.0057680407
 21
51.4167693241
 31
0.0
  0
LINE
  5
A2
330
1F
100
AcDbEntity
  8
0
  6
Continuous
 62
     7
100
AcDbLine
 10
63.0057680407
 20
51.4167693241
 30
0.0
 11
66.2414889222
 21
51.4137750532
 31
0.0
  0
LINE
  5
A3
330
1F
100
AcDbEntity
  8
0
  6
Continuous
 62
     7
100
AcDbLine
 10
71.4791440411
 20
51.4089282326
 30
0.0
 11
71.4763312752
 21
58.2430060949
 31
0.0
  0
LINE
  5
A4
330
1F
100
AcDbEntity
  8
0
  6
Continuous
 62
     7
100
AcDbLine
 10
71.4763312752
 20
58.2430060949
 30
0.0
 11
68.2377811635
 21
58.246002984
 31
0.0
  0
LINE
  5
A5
330
1F
100
AcDbEntity
  8
0
  6
Continuous
 62
     7
100
AcDbLine
 10
108.6885095746
 20
64.8752436591
 30
0.0
 11
108.699313591
 21
38.6251068916
 31
0.0
  0
LINE
  5
A6
330
1F
100
AcDbEntity
  8
0
  6
Continuous
 62
     7
100
AcDbLine
 10
108.699313591
 20
38.6251068916
 30
0.0
 11
132.5479733233
 21
38.6030378222
 31
0.0
  0
LINE
  5
A7
330
1F
100
AcDbEntity
  8
0
  6
Continuous
 62
     7
100
AcDbLine
 10
132.5479733233
 20
38.6030378222
 30
0.0
 11
132.5446839721
 21
46.5950581077
 31
0.0
  0
LINE
  5
A8
330
1F
100
AcDbEntity
  8
0
  6
Continuous
 62
     7
100
AcDbLine
 10
132.5446839721
 20
46.5950581077
 30
0.0
 11
120.7899419279
 21
46.6059357093
 31
0.0
  0
LINE
  5
A9
330
1F
100
AcDbEntity
  8
0
  6
Continuous
 62
     7
100
AcDbLine
 10
120.7899419279
 20
46.6059357093
 30
0.0
 11
120.7887084212
 21
49.6029433163
 31
0.0
  0
LINE
  5
AA
330
1F
100
AcDbEntity
  8
0
  6
Continuous
 62
     7
100
AcDbLine
 10
120.7887084212
 20
49.6029433163
 30
0.0
 11
132.5434504654
 21
49.5920657148
 31
0.0
  0
LINE
  5
AB
330
1F
100
AcDbEntity
  8
0
  6
Continuous
 62
     7
100
AcDbLine
 10
132.5434504654
 20
49.5920657148
 30
0.0
 11
132.5416921648
 21
53.8641466971
 31
0.0
  0
LINE
  5
AC
330
1F
100
AcDbEntity
  8
0
  6
Continuous
 62
     7
100
AcDbLine
 10
132.5416921648
 20
53.8641466971
 30
0.0
 11
120.7869501206
 21
53.8750242987
 31
0.0
  0
LINE
  5
AD
330
1F
100
AcDbEntity
  8
0
  6
Continuous
 62
     7
100
AcDbLine
 10
120.7869501206
 20
53.8750242987
 30
0.0
 11
120.7857166139
 21
56.8720319058
 31
0.0
  0
LINE
  5
AE
330
1F
100
AcDbEntity
  8
0
  6
Continuous
 62
     7
100
AcDbLine
 10
120.7857166139
 20
56.8720319058
 30
0.0
 11
132.5404586581
 21
56.8611543042
 31
0.0
  0
LINE
  5
AF
330
1F
100
AcDbEntity
  8
0
  6
Continuous
 62
     7
100
AcDbLine
 10
132.5404586581
 20
56.8611543042
 30
0.0
 11
132.5371693069
 21
64.8531745897
 31
0.0
  0
LINE
  5
B0
330
1F
100
AcDbEntity
  8
0
  6
Continuous
 62
     7
100
AcDbLine
 10
132.5371693069
 20
64.8531745897
 30
0.0
 11
108.6885095746
 21
64.8752436591
 31
0.0
  0
LINE
  5
B1
330
1F
100
AcDbEntity
  8
0
  6
Continuous
 62
     7
100
AcDbLine
 10
5.6199997212
 20
49.9722685367
 30
0.0
 11
5.6176928377
 21
55.5772216584
 31
0.0
  0
LINE
  5
B2
330
1F
100
AcDbEntity
  8
0
  6
Continuous
 62
     7
100
AcDbLine
 10
5.6176928377
 20
55.5772216584
 30
0.0
 11
1.6194828233
 21
55.5809215215
 31
0.0
  0
LINE
  5
B3
330
1F
100
AcDbEntity
  8
0
  6
Continuous
 62
     7
100
AcDbLine
 10
1.6194828233
 20
55.5809215215
 30
0.0
 11
1.6167453247
 21
62.2321249705
 31
0.0
  0
LINE
  5
B4
330
1F
100
AcDbEntity
  8
0
  6
Continuous
 62
     7
100
AcDbLine
 10
3.615850332
 20
62.230275039
 30
0.0
 11
5.6149553392
 21
62.2284251075
 31
0.0
  0
LINE
  5
B5
330
1F
100
AcDbEntity
  8
0
  6
Continuous
 62
     7
100
AcDbLine
 10
5.6149553392
 20
62.2284251075
 30
0.0
 11
5.6162460679
 21
59.0923873036
 31
0.0
  0
LINE
  5
B6
330
1F
100
AcDbEntity
  8
0
  6
Continuous
 62
     7
100
AcDbLine
 10
5.6162460679
 20
59.0923873036
 30
0.0
 11
9.6144560823
 21
59.0886874405
 31
0.0
  0
LINE
  5
B7
330
1F
100
AcDbEntity
  8
0
  6
Continuous
 62
     7
100
AcDbLine
 10
9.6144560823
 20
59.0886874405
 30
0.0
 11
9.6130892719
 21
62.4095784229
 31
0.0
  0
LINE
  5
B8
330
1F
100
AcDbEntity
  8
0
  6
Continuous
 62
     7
100
AcDbLine
 10
9.6130892719
 20
62.4095784229
 30
0.0
 11
13.6112992864
 21
62.4058785598
 31
0.0
  0
LINE
  5
B9
330
1F
100
AcDbEntity
  8
0
  6
Continuous
 62
     7
100
AcDbLine
 10
13.6112992864
 20
62.4058785598
 30
0.0
 11
13.6141128667
 21
55.5698219324
 31
0.0
  0
LINE
  5
BA
330
1F
100
AcDbEntity
  8
0
  6
Continuous
 62
     7
100
AcDbLine
 10
13.6141128667
 20
55.5698219324
 30
0.0
 11
9.6159028522
 21
55.5735217954
 31
0.0
  0
LINE
  5
BB
330
1F
100
AcDbEntity
  8
0
  6
Continuous
 62
     7
100
AcDbLine
 10
9.6159028522
 20
55.5735217954
 30
0.0
 11
9.6173873979
 21
51.966573745
 31
0.0
  0
LINE
  5
BC
330
1F
100
AcDbEntity
  8
0
  6
Continuous
 62
     7
100
AcDbLine
 10
7.9292220186
 20
49.9701316289
 30
0.0
 11
5.6199997212
 21
49.9722685367
 31
0.0
  0
LINE
  5
BD
330
1F
100
AcDbEntity
  8
0
  6
Continuous
 62
     7
100
AcDbLine
 10
-39.6660604532
 20
38.7624012208
 30
0.0
 11
-39.667362723
 21
41.9264802062
 31
0.0
  0
LINE
  5
BE
330
1F
100
AcDbEntity
  8
0
  6
Continuous
 62
     7
100
AcDbLine
 10
-39.667362723
 20
41.9264802062
 30
0.0
 11
-36.5015418582
 21
41.9235506193
 31
0.0
  0
LINE
  5
BF
330
1F
100
AcDbEntity
  8
0
  6
Continuous
 62
     7
100
AcDbLine
 10
-39.6757068964
 20
62.2000233347
 30
0.0
 11
-36.5098860316
 21
62.1970937478
 31
0.0
  0
LINE
  5
C0
330
1F
100
AcDbEntity
  8
0
  6
Continuous
 62
     7
100
AcDbLine
 10
-88.6823336691
 20
50.1691681545
 30
0.0
 11
-85.2949145423
 21
50.1660335051
 31
0.0
  0
LINE
  5
C1
330
1F
100
AcDbEntity
  8
0
  6
Continuous
 62
     7
100
AcDbLine
 10
-85.2949145423
 20
50.1660335051
 30
0.0
 11
-85.293073607
 21
45.6931782117
 31
0.0
  0
LINE
  5
C2
330
1F
100
AcDbEntity
  8
0
  6
Continuous
 62
     7
100
AcDbLine
 10
-85.293073607
 20
45.6931782117
 30
0.0
 11
-83.1696193766
 21
45.6912132099
 31
0.0
  0
LINE
  5
C3
330
1F
100
AcDbEntity
  8
0
  6
Continuous
 62
     7
100
AcDbLine
 10
-83.1696193766
 20
45.6912132099
 30
0.0
 11
-80.5670280943
 21
45.6888048244
 31
0.0
  0
LINE
  5
C4
330
1F
100
AcDbEntity
  8
0
  6
Continuous
 62
     7
100
AcDbLine
 10
-80.5670280943
 20
45.6888048244
 30
0.0
 11
-80.5656992278
 21
42.4601049012
 31
0.0
  0
LINE
  5
C5
330
1F
100
AcDbEntity
  8
0
  6
Continuous
 62
     7
100
AcDbLine
 10
-80.5656992278
 20
42.4601049012
 30
0.0
 11
-77.6574171529
 21
42.4574136355
 31
0.0
  0
LINE
  5
C6
330
1F
100
AcDbEntity
  8
0
  6
Continuous
 62
     7
100
AcDbLine
 10
-77.6574171529
 20
42.4574136355
 30
0.0
 11
-77.6559108308
 21
38.7975562632
 31
0.0
  0
LINE
  5
C7
330
1F
100
AcDbEntity
  8
0
  6
Continuous
 62
     7
100
AcDbLine
 10
-77.6630849881
 20
56.2283524618
 30
0.0
 11
-82.0143872398
 21
56.2323790693
 31
0.0
  0
LINE
  5
C8
330
1F
100
AcDbEntity
  8
0
  6
Continuous
 62
     7
100
AcDbLine
 10
-82.0143872398
 20
56.2323790693
 30
0.0
 11
-82.0156054882
 21
59.1923141098
 31
0.0
  0
LINE
  5
C9
330
1F
100
AcDbEntity
  8
0
  6
Continuous
 62
     7
100
AcDbLine
 10
-82.0156054882
 20
59.1923141098
 30
0.0
 11
-84.588653366
 21
59.1946951565
 31
0.0
  0
LINE
  5
CA
330
1F
100
AcDbEntity
  8
0
  6
Continuous
 62
     7
100
AcDbLine
 10
-84.588653366
 20
59.1946951565
 30
0.0
 11
-84.5910649769
 21
65.054100685
 31
0.0
  0
LINE
  5
CB
330
1F
100
AcDbEntity
  8
0
  6
Continuous
 62
     7
100
AcDbLine
 10
-104.1483127361
 20
-95.4914039748
 30
0.0
 11
-95.6254885948
 21
-95.4992908247
 31
0.0
  0
LINE
  5
CC
330
1F
100
AcDbEntity
  8
0
  6
Continuous
 62
     7
100
AcDbLine
 10
-90.0727246239
 20
-93.1094233873
 30
0.0
 11
-90.0762960661
 21
-84.4320166682
 31
0.0
  0
LINE
  5
CD
330
1F
100
AcDbEntity
  8
0
  6
Continuous
 62
     7
100
AcDbLine
 10
-93.6414867856
 20
-58.8054343478
 30
0.0
 11
-105.5925951683
 21
-58.7943750328
 31
0.0
  0
LINE
  5
CE
330
1F
100
AcDbEntity
  8
0
  6
Continuous
 62
     7
100
AcDbLine
 10
-94.4561896294
 20
-78.7333201111
 30
0.0
 11
-93.4562604568
 21
-78.7342454254
 31
0.0
  0
LINE
  5
CF
330
1F
100
AcDbEntity
  8
0
  6
Continuous
 62
     7
100
AcDbLine
 10
-94.323085034
 20
-71.741659831
 30
0.0
 11
-94.3234910183
 21
-70.7552540666
 31
0.0
  0
LINE
  5
D0
330
1F
100
AcDbEntity
  8
0
  6
Continuous
 62
     7
100
AcDbLine
 10
-94.3234910183
 20
-70.7552540666
 30
0.0
 11
-97.0973513056
 21
-70.7526871921
 31
0.0
  0
LINE
  5
D1
330
1F
100
AcDbEntity
  8
0
  6
Continuous
 62
     7
100
AcDbLine
 10
-97.0973513056
 20
-70.7526871921
 30
0.0
 11
-97.0969453213
 21
-71.7390929566
 31
0.0
  0
LINE
  5
D2
330
1F
100
AcDbEntity
  8
0
  6
Continuous
 62
     7
100
AcDbLine
 10
-97.0969453213
 20
-71.7390929566
 30
0.0
 11
-98.0231230668
 21
-71.7382358904
 31
0.0
  0
LINE
  5
D3
330
1F
100
AcDbEntity
  8
0
  6
Continuous
 62
     7
100
AcDbLine
 10
-98.0231230668
 20
-71.7382358904
 30
0.0
 11
-98.0225404391
 21
-73.1538258089
 31
0.0
  0
LINE
  5
D4
330
1F
100
AcDbEntity
  8
0
  6
Continuous
 62
     7
100
AcDbLine
 10
-99.891734792
 20
-73.1520960941
 30
0.0
 11
-99.8923174197
 21
-71.7365061756
 31
0.0
  0
LINE
  5
D5
330
1F
100
AcDbEntity
  8
0
  6
Continuous
 62
     7
100
AcDbLine
 10
-99.8923174197
 20
-71.7365061756
 30
0.0
 11
-100.7680050986
 21
-71.7356958318
 31
0.0
  0
LINE
  5
D6
330
1F
100
AcDbEntity
  8
0
  6
Continuous
 62
     7
100
AcDbLine
 10
-100.7680050986
 20
-71.7356958318
 30
0.0
 11
-100.7684110829
 21
-70.7492900674
 31
0.0
  0
LINE
  5
D7
330
1F
100
AcDbEntity
  8
0
  6
Continuous
 62
     7
100
AcDbLine
 10
-100.7684110829
 20
-70.7492900674
 30
0.0
 11
-103.0706539058
 21
-70.7471596182
 31
0.0
  0
LINE
  5
D8
330
1F
100
AcDbEntity
  8
0
  6
Continuous
 62
     7
100
AcDbLine
 10
-103.0706539058
 20
-70.7471596182
 30
0.0
 11
-103.0702479214
 21
-71.7335653827
 31
0.0
  0
LINE
  5
D9
330
1F
100
AcDbEntity
  8
0
  6
Continuous
 62
     7
100
AcDbLine
 10
-103.0702479214
 20
-71.7335653827
 30
0.0
 11
-103.9799314827
 21
-71.7327235798
 31
0.0
  0
LINE
  5
DA
330
1F
100
AcDbEntity
  8
0
  6
Continuous
 62
     7
100
AcDbLine
 10
-106.5980697447
 20
-73.1458901868
 30
0.0
 11
-106.5991421034
 21
-70.5404182812
 31
0.0
  0
LINE
  5
DB
330
1F
100
AcDbEntity
  8
0
  6
Continuous
 62
     7
100
AcDbLine
 10
-106.6010290939
 20
-65.9556641884
 30
0.0
 11
-103.2507845483
 21
-65.9587644373
 31
0.0
  0
LINE
  5
DC
330
1F
100
AcDbEntity
  8
0
  6
Continuous
 62
     7
100
AcDbLine
 10
-103.2507845483
 20
-65.9587644373
 30
0.0
 11
-103.2503126965
 21
-67.1052060212
 31
0.0
  0
LINE
  5
DD
330
1F
100
AcDbEntity
  8
0
  6
Continuous
 62
     7
100
AcDbLine
 10
-103.2503126965
 20
-67.1052060212
 30
0.0
 11
-94.5031498091
 21
-67.1133004696
 31
0.0
  0
LINE
  5
DE
330
1F
100
AcDbEntity
  8
0
  6
Continuous
 62
     7
100
AcDbLine
 10
-94.5031498091
 20
-67.1133004696
 30
0.0
 11
-94.5036216608
 21
-65.9668588856
 31
0.0
  0
LINE
  5
DF
330
1F
100
AcDbEntity
  8
0
  6
Continuous
 62
     7
100
AcDbLine
 10
-94.5036216608
 20
-65.9668588856
 30
0.0
 11
-91.1625440953
 21
-65.9699506515
 31
0.0
  0
LINE
  5
E0
330
1F
100
AcDbEntity
  8
0
  6
Continuous
 62
     7
100
AcDbLine
 10
-91.1625440953
 20
-65.9699506515
 30
0.0
 11
-91.1558710295
 21
-82.1832628021
 31
0.0
  0
LINE
  5
E1
330
1F
100
AcDbEntity
  8
0
  6
Continuous
 62
     7
100
AcDbLine
 10
-91.1528520481
 20
-89.5183752093
 30
0.0
 11
-94.5750809972
 21
-89.5152083475
 31
0.0
  0
LINE
  5
E2
330
1F
100
AcDbEntity
  8
0
  6
Continuous
 62
     7
100
AcDbLine
 10
-94.5750809972
 20
-89.5152083475
 30
0.0
 11
-94.5745792683
 21
-90.7342414165
 31
0.0
  0
LINE
  5
E3
330
1F
100
AcDbEntity
  8
0
  6
Continuous
 62
     7
100
AcDbLine
 10
-102.839845479
 20
-90.7265929056
 30
0.0
 11
-102.8402182719
 21
-89.8208311085
 31
0.0
  0
LINE
  5
E4
330
1F
100
AcDbEntity
  8
0
  6
Continuous
 62
     7
100
AcDbLine
 10
-102.8402182719
 20
-89.8208311085
 30
0.0
 11
-106.5912081106
 21
-89.817360018
 31
0.0
  0
LINE
  5
E5
330
1F
100
AcDbEntity
  8
0
  6
Continuous
 62
     7
100
AcDbLine
 10
-91.1558710295
 20
-82.1832628021
 30
0.0
 11
-90.0772211961
 21
-82.1842609629
 31
0.0
  0
LINE
  5
E6
330
1F
100
AcDbEntity
  8
0
  6
Continuous
 62
     7
100
AcDbLine
 10
-91.1549458994
 20
-84.4310185074
 30
0.0
 11
-90.0762960661
 21
-84.4320166682
 31
0.0
  0
LINE
  5
E7
330
1F
100
AcDbEntity
  8
0
  6
Continuous
 62
     7
100
AcDbLine
 10
-107.9066758169
 20
-70.5392083158
 30
0.0
 11
-106.5991421034
 21
-70.5404182812
 31
0.0
  0
LINE
  5
E8
330
1F
100
AcDbEntity
  8
0
  6
Continuous
 62
     7
100
AcDbLine
 10
-106.6000672334
 20
-68.2926625759
 30
0.0
 11
-106.6010290939
 21
-65.9556641884
 31
0.0
  0
LINE
  5
E9
330
1F
100
AcDbEntity
  8
0
  6
Continuous
 62
     7
100
AcDbLine
 10
-91.1549458994
 20
-84.4310185074
 30
0.0
 11
-91.1528520481
 21
-89.5183752093
 31
0.0
  0
LINE
  5
EA
330
1F
100
AcDbEntity
  8
0
  6
Continuous
 62
     7
100
AcDbLine
 10
-102.7500783991
 20
-78.7256451134
 30
0.0
 11
-102.7491395948
 21
-81.0066246981
 31
0.0
  0
LINE
  5
EB
330
1F
100
AcDbEntity
  8
0
  6
Continuous
 62
     7
100
AcDbLine
 10
-102.7491395948
 20
-81.0066246981
 30
0.0
 11
-100.4788382052
 21
-81.0087255893
 31
0.0
  0
LINE
  5
EC
330
1F
100
AcDbEntity
  8
0
  6
Continuous
 62
     7
100
AcDbLine
 10
-100.4788382052
 20
-81.0087255893
 30
0.0
 11
-100.4777758054
 21
-83.5900007996
 31
0.0
  0
LINE
  5
ED
330
1F
100
AcDbEntity
  8
0
  6
Continuous
 62
     7
100
AcDbLine
 10
-94.4561896294
 20
-78.7333201111
 30
0.0
 11
-94.4552508251
 21
-81.0142996957
 31
0.0
  0
LINE
  5
EE
330
1F
100
AcDbEntity
  8
0
  6
Continuous
 62
     7
100
AcDbLine
 10
-94.4552508251
 20
-81.0142996957
 30
0.0
 11
-96.7977478359
 21
-81.0121319962
 31
0.0
  0
LINE
  5
EF
330
1F
100
AcDbEntity
  8
0
  6
Continuous
 62
     7
100
AcDbLine
 10
-96.7977478359
 20
-81.0121319962
 30
0.0
 11
-96.7966854361
 21
-83.5934072065
 31
0.0
  0
LINE
  5
F0
330
1F
100
AcDbEntity
  8
0
  6
Continuous
 62
     7
100
AcDbLine
 10
-100.4777758054
 20
-83.5900007996
 30
0.0
 11
-96.7966854361
 21
-83.5934072065
 31
0.0
  0
LINE
  5
F1
330
1F
100
AcDbEntity
  8
0
  6
Continuous
 62
     7
100
AcDbLine
 10
-102.839845479
 20
-90.7265929056
 30
0.0
 11
-94.5745792683
 21
-90.7342414165
 31
0.0
  0
LINE
  5
F2
330
1F
100
AcDbEntity
  8
0
  6
Continuous
 62
     7
100
AcDbLine
 10
-106.5976191505
 20
-74.240682913
 30
0.0
 11
-106.5912081106
 21
-89.817360018
 31
0.0
  0
LINE
  5
F3
330
1F
100
AcDbEntity
  8
0
  6
Continuous
 62
     7
100
AcDbLine
 10
-90.0860650709
 20
-60.6966109244
 30
0.0
 11
-90.0772211961
 21
-82.1842609629
 31
0.0
  0
LINE
  5
F4
330
1F
100
AcDbEntity
  8
0
  6
Continuous
 62
     7
100
AcDbLine
 10
-107.9933094315
 20
-60.3958568318
 30
0.0
 11
-107.9900597981
 21
-68.2913763047
 31
0.0
  0
LINE
  5
F5
330
1F
100
AcDbEntity
  8
0
  6
Continuous
 62
     7
100
AcDbLine
 10
-107.9900597981
 20
-68.2913763047
 30
0.0
 11
-106.6000672334
 21
-68.2926625759
 31
0.0
  0
LINE
  5
F6
330
1F
100
AcDbEntity
  8
0
  6
Continuous
 62
     7
100
AcDbLine
 10
-85.0003522148
 20
-68.3126505171
 30
0.0
 11
-83.6103596501
 21
-68.3139367883
 31
0.0
  0
LINE
  5
F7
330
1F
100
AcDbEntity
  8
0
  6
Continuous
 62
     7
100
AcDbLine
 10
-93.4562604568
 20
-78.7342454254
 30
0.0
 11
-93.4591381322
 21
-71.7424593101
 31
0.0
  0
LINE
  5
F8
330
1F
100
AcDbEntity
  8
0
  6
Continuous
 62
     7
100
AcDbLine
 10
16.8471898772
 20
-36.086240034
 30
0.0
 11
20.1178097469
 21
-35.1307233174
 31
0.0
  0
LINE
  5
F9
330
1F
100
AcDbEntity
  8
0
  6
Continuous
 62
     7
100
AcDbLine
 10
-94.323085034
 20
-71.741659831
 30
0.0
 11
-93.4591381322
 21
-71.7424593101
 31
0.0
  0
LINE
  5
FA
330
1F
100
AcDbEntity
  8
0
  6
Continuous
 62
     7
100
AcDbLine
 10
-83.6103596501
 20
-68.3139367883
 30
0.0
 11
-83.6113215106
 21
-65.9769384008
 31
0.0
  0
LINE
  5
FB
330
1F
100
AcDbEntity
  8
0
  6
Continuous
 62
     7
100
AcDbLine
 10
20.1168600054
 20
-32.8231698852
 30
0.0
 11
21.5029418636
 21
-32.5450823025
 31
0.0
  0
LINE
  5
FC
330
1F
100
AcDbEntity
  8
0
  6
Continuous
 62
     7
100
AcDbLine
 10
-83.6113215106
 20
-65.9769384008
 30
0.0
 11
-80.2610769651
 21
-65.9800386497
 31
0.0
  0
LINE
  5
FD
330
1F
100
AcDbEntity
  8
0
  6
Continuous
 62
     7
100
AcDbLine
 10
-80.2610769651
 20
-65.9800386497
 30
0.0
 11
-80.2606051133
 21
-67.1264802336
 31
0.0
  0
LINE
  5
FE
330
1F
100
AcDbEntity
  8
0
  6
Continuous
 62
     7
100
AcDbLine
 10
-80.2606051133
 20
-67.1264802336
 30
0.0
 11
-71.5134422258
 21
-67.134574682
 31
0.0
  0
LINE
  5
FF
330
1F
100
AcDbEntity
  8
0
  6
Continuous
 62
     7
100
AcDbLine
 10
-71.5134422258
 20
-67.134574682
 30
0.0
 11
-71.5139140776
 21
-65.988133098
 31
0.0
  0
LINE
  5
100
330
1F
100
AcDbEntity
  8
0
  6
Continuous
 62
     7
100
AcDbLine
 10
-71.5139140776
 20
-65.988133098
 30
0.0
 11
-68.1728365121
 21
-65.9912248639
 31
0.0
  0
LINE
  5
101
330
1F
100
AcDbEntity
  8
0
  6
Continuous
 62
     7
100
AcDbLine
 10
-68.1728365121
 20
-65.9912248639
 30
0.0
 11
-68.1661634462
 21
-82.2045370145
 31
0.0
  0
LINE
  5
102
330
1F
100
AcDbEntity
  8
0
  6
Continuous
 62
     7
100
AcDbLine
 10
-68.1661634462
 20
-82.2045370145
 30
0.0
 11
-67.0875136128
 21
-82.2055351753
 31
0.0
  0
LINE
  5
103
330
1F
100
AcDbEntity
  8
0
  6
Continuous
 62
     7
100
AcDbLine
 10
-67.0963574877
 20
-60.7178851369
 30
0.0
 11
-67.0875136128
 21
-82.2055351753
 31
0.0
  0
LINE
  5
104
330
1F
100
AcDbEntity
  8
0
  6
Continuous
 62
     7
100
AcDbLine
 10
-70.6510021869
 20
-60.7145957402
 30
0.0
 11
-67.0963574877
 21
-60.7178851369
 31
0.0
  0
LINE
  5
105
330
1F
100
AcDbEntity
  8
0
  6
Continuous
 62
     7
100
AcDbLine
 10
-70.6517792024
 20
-58.8267085602
 30
0.0
 11
-70.6510021869
 21
-60.7145957402
 31
0.0
  0
LINE
  5
106
330
1F
100
AcDbEntity
  8
0
  6
Continuous
 62
     7
100
AcDbLine
 10
-70.6517792024
 20
-58.8267085602
 30
0.0
 11
-82.6028875851
 21
-58.8156492452
 31
0.0
  0
LINE
  5
107
330
1F
100
AcDbEntity
  8
0
  6
Continuous
 62
     7
100
AcDbLine
 10
-82.6028875851
 20
-58.8156492452
 30
0.0
 11
-82.6022275335
 21
-60.4193532276
 31
0.0
  0
LINE
  5
108
330
1F
100
AcDbEntity
  8
0
  6
Continuous
 62
     7
100
AcDbLine
 10
-82.6022275335
 20
-60.4193532276
 30
0.0
 11
-85.0036018483
 21
-60.4171310442
 31
0.0
  0
LINE
  5
109
330
1F
100
AcDbEntity
  8
0
  6
Continuous
 62
     7
100
AcDbLine
 10
-85.0036018483
 20
-60.4171310442
 30
0.0
 11
-85.0003522148
 21
-68.3126505171
 31
0.0
  0
LINE
  5
10A
330
1F
100
AcDbEntity
  8
0
  6
Continuous
 62
     7
100
AcDbLine
 10
-83.6079115673
 20
-74.2619571254
 30
0.0
 11
-83.6015005274
 21
-89.8386342304
 31
0.0
  0
LINE
  5
10B
330
1F
100
AcDbEntity
  8
0
  6
Continuous
 62
     7
100
AcDbLine
 10
-79.8505106886
 20
-89.8421053209
 30
0.0
 11
-83.6015005274
 21
-89.8386342304
 31
0.0
  0
LINE
  5
10C
330
1F
100
AcDbEntity
  8
0
  6
Continuous
 62
     7
100
AcDbLine
 10
-79.8501378957
 20
-90.747867118
 30
0.0
 11
-79.8505106886
 21
-89.8421053209
 31
0.0
  0
LINE
  5
10D
330
1F
100
AcDbEntity
  8
0
  6
Continuous
 62
     7
100
AcDbLine
 10
-79.8501378957
 20
-90.747867118
 30
0.0
 11
-71.584871685
 21
-90.7555156289
 31
0.0
  0
LINE
  5
10E
330
1F
100
AcDbEntity
  8
0
  6
Continuous
 62
     7
100
AcDbLine
 10
-71.585373414
 20
-89.5364825599
 30
0.0
 11
-71.584871685
 21
-90.7555156289
 31
0.0
  0
LINE
  5
10F
330
1F
100
AcDbEntity
  8
0
  6
Continuous
 62
     7
100
AcDbLine
 10
-68.1631444648
 20
-89.5396494217
 30
0.0
 11
-71.585373414
 21
-89.5364825599
 31
0.0
  0
LINE
  5
110
330
1F
100
AcDbEntity
  8
0
  6
Continuous
 62
     7
100
AcDbLine
 10
-68.1652383162
 20
-84.4522927198
 30
0.0
 11
-68.1631444648
 21
-89.5396494217
 31
0.0
  0
LINE
  5
111
330
1F
100
AcDbEntity
  8
0
  6
Continuous
 62
     7
100
AcDbLine
 10
-68.1652383162
 20
-84.4522927198
 30
0.0
 11
-67.0865884828
 21
-84.4532908806
 31
0.0
  0
LINE
  5
112
330
1F
100
AcDbEntity
  8
0
  6
Continuous
 62
     7
100
AcDbLine
 10
-15.9277654699
 20
-61.4289255897
 30
0.0
 11
-15.928586439
 21
-59.4342460548
 31
0.0
  0
LINE
  5
113
330
1F
100
AcDbEntity
  8
0
  6
Continuous
 62
     7
100
AcDbLine
 10
-15.928586439
 20
-59.4342460548
 30
0.0
 11
-14.5980680123
 21
-59.4354772897
 31
0.0
  0
LINE
  5
114
330
1F
100
AcDbEntity
  8
0
  6
Continuous
 62
     7
100
AcDbLine
 10
-14.5980680123
 20
-59.4354772897
 30
0.0
 11
-14.6003256772
 21
-53.9501085686
 31
0.0
  0
LINE
  5
115
330
1F
100
AcDbEntity
  8
0
  6
Continuous
 62
     7
100
AcDbLine
 10
-14.6003256772
 20
-53.9501085686
 30
0.0
 11
-13.4678314471
 21
-53.9511565559
 31
0.0
  0
LINE
  5
116
330
1F
100
AcDbEntity
  8
0
  6
Continuous
 62
     7
100
AcDbLine
 10
-13.4678314471
 20
-53.9511565559
 30
0.0
 11
-13.4737834729
 21
-39.4897299274
 31
0.0
  0
LINE
  5
117
330
1F
100
AcDbEntity
  8
0
  6
Continuous
 62
     7
100
AcDbLine
 10
-13.4737834729
 20
-39.4897299274
 30
0.0
 11
-11.9452408496
 21
-39.4911444099
 31
0.0
  0
LINE
  5
118
330
1F
100
AcDbEntity
  8
0
  6
Continuous
 62
     7
100
AcDbLine
 10
-11.9452408496
 20
-39.4911444099
 30
0.0
 11
-11.9480458272
 21
-32.6759893321
 31
0.0
  0
LINE
  5
119
330
1F
100
AcDbEntity
  8
0
  6
Continuous
 62
     7
100
AcDbLine
 10
-11.9480458272
 20
-32.6759893321
 30
0.0
 11
-10.1185829905
 21
-32.6776822802
 31
0.0
  0
LINE
  5
11A
330
1F
100
AcDbEntity
  8
0
  6
Continuous
 62
     7
100
AcDbLine
 10
-1.2290597512
 20
-34.7273576414
 30
0.0
 11
-1.2281141795
 21
-37.0247797957
 31
0.0
  0
LINE
  5
11B
330
1F
100
AcDbEntity
  8
0
  6
Continuous
 62
     7
100
AcDbLine
 10
6.7769559339
 20
-38.3844145389
 30
0.0
 11
6.7778816287
 21
-40.6335424487
 31
0.0
  0
LINE
  5
11C
330
1F
100
AcDbEntity
  8
0
  6
Continuous
 62
     7
100
AcDbLine
 10
6.7778816287
 20
-40.6335424487
 30
0.0
 11
8.2992558888
 21
-40.6349502978
 31
0.0
  0
LINE
  5
11D
330
1F
100
AcDbEntity
  8
0
  6
Continuous
 62
     7
100
AcDbLine
 10
8.2992558888
 20
-40.6349502978
 30
0.0
 11
8.299777407
 21
-41.9020646131
 31
0.0
  0
LINE
  5
11E
330
1F
100
AcDbEntity
  8
0
  6
Continuous
 62
     7
100
AcDbLine
 10
8.299777407
 20
-41.9020646131
 30
0.0
 11
9.2506363195
 21
-41.9029445188
 31
0.0
  0
LINE
  5
11F
330
1F
100
AcDbEntity
  8
0
  6
Continuous
 62
     7
100
AcDbLine
 10
5.7334141325
 20
-54.4427587677
 30
0.0
 11
5.7342057065
 21
-56.36601831
 31
0.0
  0
LINE
  5
120
330
1F
100
AcDbEntity
  8
0
  6
Continuous
 62
     7
100
AcDbLine
 10
5.7342057065
 20
-56.36601831
 30
0.0
 11
3.664661339
 21
-56.3641031953
 31
0.0
  0
LINE
  5
121
330
1F
100
AcDbEntity
  8
0
  6
Continuous
 62
     7
100
AcDbLine
 10
-9.6395469776
 20
-67.967131904
 30
0.0
 11
-15.4116259127
 21
-67.9617905384
 31
0.0
  0
LINE
  5
122
330
1F
100
AcDbEntity
  8
0
  6
Continuous
 62
     7
100
AcDbLine
 10
-15.4116259127
 20
-67.9617905384
 30
0.0
 11
-15.4120236942
 21
-66.9953149416
 31
0.0
  0
LINE
  5
123
330
1F
100
AcDbEntity
  8
0
  6
Continuous
 62
     7
100
AcDbLine
 10
-15.4120236942
 20
-66.9953149416
 30
0.0
 11
-16.9162578289
 21
-66.9939229537
 31
0.0
  0
LINE
  5
124
330
1F
100
AcDbEntity
  8
0
  6
Continuous
 62
     7
100
AcDbLine
 10
-16.9162578289
 20
-66.9939229537
 30
0.0
 11
-16.9185486447
 21
-61.4280087389
 31
0.0
  0
LINE
  5
125
330
1F
100
AcDbEntity
  8
0
  6
Continuous
 62
     7
100
AcDbLine
 10
-16.9185486447
 20
-61.4280087389
 30
0.0
 11
-15.9277654699
 21
-61.4289255897
 31
0.0
  0
LINE
  5
126
330
1F
100
AcDbEntity
  8
0
  6
Continuous
 62
     7
100
AcDbLine
 10
16.6392928797
 20
-54.2475440833
 30
0.0
 11
16.6404894945
 21
-57.1549166407
 31
0.0
  0
LINE
  5
127
330
1F
100
AcDbEntity
  8
0
  6
Continuous
 62
     7
100
AcDbLine
 10
16.6404894945
 20
-57.1549166407
 30
0.0
 11
18.0306278535
 21
-57.1562030467
 31
0.0
  0
LINE
  5
128
330
1F
100
AcDbEntity
  8
0
  6
Continuous
 62
     7
100
AcDbLine
 10
30.4943016308
 20
-67.6623265719
 30
0.0
 11
37.9365782247
 21
-67.8307573073
 31
0.0
  0
LINE
  5
129
330
1F
100
AcDbEntity
  8
0
  6
Continuous
 62
     7
100
AcDbLine
 10
37.9365782247
 20
-67.8307573073
 30
0.0
 11
37.936062582
 21
-66.5779185708
 31
0.0
  0
LINE
  5
12A
330
1F
100
AcDbEntity
  8
0
  6
Continuous
 62
     7
100
AcDbLine
 10
37.936062582
 20
-66.5779185708
 30
0.0
 11
39.7437394577
 21
-66.5795913586
 31
0.0
  0
LINE
  5
12B
330
1F
100
AcDbEntity
  8
0
  6
Continuous
 62
     7
100
AcDbLine
 10
39.7437394577
 20
-66.5795913586
 30
0.0
 11
39.7431565616
 21
-65.1633494058
 31
0.0
  0
LINE
  5
12C
330
1F
100
AcDbEntity
  8
0
  6
Continuous
 62
     7
100
AcDbLine
 10
36.4233315815
 20
-61.2198445295
 30
0.0
 11
36.4222727186
 21
-58.6471628072
 31
0.0
  0
LINE
  5
12D
330
1F
100
AcDbEntity
  8
0
  6
Continuous
 62
     7
100
AcDbLine
 10
36.4222727186
 20
-58.6471628072
 30
0.0
 11
35.5038829996
 21
-58.6463129478
 31
0.0
  0
LINE
  5
12E
330
1F
100
AcDbEntity
  8
0
  6
Continuous
 62
     7
100
AcDbLine
 10
35.5038829996
 20
-58.6463129478
 30
0.0
 11
35.5013321087
 21
-52.4485033773
 31
0.0
  0
LINE
  5
12F
330
1F
100
AcDbEntity
  8
0
  6
Continuous
 62
     7
100
AcDbLine
 10
35.5013321087
 20
-52.4485033773
 30
0.0
 11
34.4785976104
 21
-52.4475569594
 31
0.0
  0
LINE
  5
130
330
1F
100
AcDbEntity
  8
0
  6
Continuous
 62
     7
100
AcDbLine
 10
34.4785976104
 20
-52.4475569594
 30
0.0
 11
34.472889738
 21
-38.5793410408
 31
0.0
  0
LINE
  5
131
330
1F
100
AcDbEntity
  8
0
  6
Continuous
 62
     7
100
AcDbLine
 10
34.472889738
 20
-38.5793410408
 30
0.0
 11
33.3176978012
 21
-38.5782720494
 31
0.0
  0
LINE
  5
132
330
1F
100
AcDbEntity
  8
0
  6
Continuous
 62
     7
100
AcDbLine
 10
33.3176978012
 20
-38.5782720494
 30
0.0
 11
33.3152191633
 21
-32.5560131461
 31
0.0
  0
LINE
  5
133
330
1F
100
AcDbEntity
  8
0
  6
Continuous
 62
     7
100
AcDbLine
 10
33.3152191633
 20
-32.5560131461
 30
0.0
 11
30.7204788059
 21
-32.5536120256
 31
0.0
  0
LINE
  5
134
330
1F
100
AcDbEntity
  8
0
  6
Continuous
 62
     7
100
AcDbLine
 10
23.8487586576
 20
-34.5452573846
 30
0.0
 11
23.8497042293
 21
-36.8426795389
 31
0.0
  0
LINE
  5
135
330
1F
100
AcDbEntity
  8
0
  6
Continuous
 62
     7
100
AcDbLine
 10
15.4110464558
 20
-38.1870975875
 30
0.0
 11
15.4119721506
 21
-40.4362254972
 31
0.0
  0
LINE
  5
136
330
1F
100
AcDbEntity
  8
0
  6
Continuous
 62
     7
100
AcDbLine
 10
15.4119721506
 20
-40.4362254972
 30
0.0
 11
14.4852132446
 21
-40.4353678932
 31
0.0
  0
LINE
  5
137
330
1F
100
AcDbEntity
  8
0
  6
Continuous
 62
     7
100
AcDbLine
 10
14.4852132446
 20
-40.4353678932
 30
0.0
 11
14.4857347627
 21
-41.7024822086
 31
0.0
  0
LINE
  5
138
330
1F
100
AcDbEntity
  8
0
  6
Continuous
 62
     7
100
AcDbLine
 10
14.4857347627
 20
-41.7024822086
 30
0.0
 11
13.1798472134
 21
-41.7012737665
 31
0.0
  0
LINE
  5
139
330
1F
100
AcDbEntity
  8
0
  6
Continuous
 62
     7
100
AcDbLine
 10
-3.0538406144
 20
-20.9764485907
 30
0.0
 11
-10.6154846742
 21
-20.9694511976
 31
0.0
  0
LINE
  5
13A
330
1F
100
AcDbEntity
  8
0
  6
Continuous
 62
     7
100
AcDbLine
 10
-10.6154846742
 20
-20.9694511976
 30
0.0
 11
-10.6146833422
 21
-22.9164192915
 31
0.0
  0
LINE
  5
13B
330
1F
100
AcDbEntity
  8
0
  6
Continuous
 62
     7
100
AcDbLine
 10
-10.6146833422
 20
-22.9164192915
 30
0.0
 11
-14.8094883373
 21
-22.9125375035
 31
0.0
  0
LINE
  5
13C
330
1F
100
AcDbEntity
  8
0
  6
Continuous
 62
     7
100
AcDbLine
 10
-14.8094883373
 20
-22.9125375035
 30
0.0
 11
-14.8079085684
 21
-26.7508460316
 31
0.0
  0
LINE
  5
13D
330
1F
100
AcDbEntity
  8
0
  6
Continuous
 62
     7
100
AcDbLine
 10
-6.9853970118
 20
-32.0545743409
 30
0.0
 11
-2.1612616039
 21
-32.0590384986
 31
0.0
  0
LINE
  5
13E
330
1F
100
AcDbEntity
  8
0
  6
Continuous
 62
     7
100
AcDbLine
 10
-2.1612616039
 20
-32.0590384986
 30
0.0
 11
-2.161256257
 21
-32.0720298643
 31
0.0
  0
LINE
  5
13F
330
1F
100
AcDbEntity
  8
0
  6
Continuous
 62
     7
100
AcDbLine
 10
-2.161256257
 20
-32.0720298643
 30
0.0
 11
-0.9504896289
 21
-32.0731502834
 31
0.0
  0
LINE
  5
140
330
1F
100
AcDbEntity
  8
0
  6
Continuous
 62
     7
100
AcDbLine
 10
-0.9504896289
 20
-32.0731502834
 30
0.0
 11
-0.9499896167
 21
-33.288012325
 31
0.0
  0
LINE
  5
141
330
1F
100
AcDbEntity
  8
0
  6
Continuous
 62
     7
100
AcDbLine
 10
4.2455213622
 20
-34.157492139
 30
0.0
 11
4.2463103959
 21
-36.0745794339
 31
0.0
  0
LINE
  5
142
330
1F
100
AcDbEntity
  8
0
  6
Continuous
 62
     7
100
AcDbLine
 10
4.2463103959
 20
-36.0745794339
 30
0.0
 11
5.8627705473
 21
-36.0760752736
 31
0.0
  0
LINE
  5
143
330
1F
100
AcDbEntity
  8
0
  6
Continuous
 62
     7
100
AcDbLine
 10
5.8627705473
 20
-36.0760752736
 30
0.0
 11
8.2426156789
 21
-36.0782775343
 31
0.0
  0
LINE
  5
144
330
1F
100
AcDbEntity
  8
0
  6
Continuous
 62
     7
100
AcDbLine
 10
8.2426156789
 20
-36.0782775343
 30
0.0
 11
9.6471983101
 21
-38.5592106784
 31
0.0
  0
LINE
  5
145
330
1F
100
AcDbEntity
  8
0
  6
Continuous
 62
     7
100
AcDbLine
 10
9.6471983101
 20
-38.5592106784
 30
0.0
 11
11.5154590113
 21
-38.5609395293
 31
0.0
  0
LINE
  5
146
330
1F
100
AcDbEntity
  8
0
  6
Continuous
 62
     7
100
AcDbLine
 10
11.5154590113
 20
-38.5609395293
 30
0.0
 11
13.3086558724
 21
-36.0829655459
 31
0.0
  0
LINE
  5
147
330
1F
100
AcDbEntity
  8
0
  6
Continuous
 62
     7
100
AcDbLine
 10
13.3086558724
 20
-36.0829655459
 30
0.0
 11
16.8471898772
 21
-36.086240034
 31
0.0
  0
LINE
  5
148
330
1F
100
AcDbEntity
  8
0
  6
Continuous
 62
     7
100
AcDbLine
 10
20.1178097469
 20
-35.1307233174
 30
0.0
 11
20.1168600054
 21
-32.8231698852
 31
0.0
  0
LINE
  5
149
330
1F
100
AcDbEntity
  8
0
  6
Continuous
 62
     7
100
AcDbLine
 10
21.5029418636
 20
-32.5450823025
 30
0.0
 11
28.7213737987
 21
-32.5517620941
 31
0.0
  0
LINE
  5
14A
330
1F
100
AcDbEntity
  8
0
  6
Continuous
 62
     7
100
AcDbLine
 10
28.7213737987
 20
-32.5517620941
 30
0.0
 11
28.7205514609
 21
-30.5537570227
 31
0.0
  0
LINE
  5
14B
330
1F
100
AcDbEntity
  8
0
  6
Continuous
 62
     7
100
AcDbLine
 10
28.7205514609
 20
-30.5537570227
 30
0.0
 11
32.1211062075
 21
-30.5569038276
 31
0.0
  0
LINE
  5
14C
330
1F
100
AcDbEntity
  8
0
  6
Continuous
 62
     7
100
AcDbLine
 10
34.4675440557
 20
-25.5911257442
 30
0.0
 11
34.4663853548
 21
-22.7758712861
 31
0.0
  0
LINE
  5
14D
330
1F
100
AcDbEntity
  8
0
  6
Continuous
 62
     7
100
AcDbLine
 10
34.4663853548
 20
-22.7758712861
 30
0.0
 11
30.7113096607
 21
-22.7723964147
 31
0.0
  0
LINE
  5
14E
330
1F
100
AcDbEntity
  8
0
  6
Continuous
 62
     7
100
AcDbLine
 10
30.7113096607
 20
-22.7723964147
 30
0.0
 11
30.5906669927
 21
-21.6812170473
 31
0.0
  0
LINE
  5
14F
330
1F
100
AcDbEntity
  8
0
  6
Continuous
 62
     7
100
AcDbLine
 10
30.5906669927
 20
-21.6812170473
 30
0.0
 11
22.1429979491
 21
-21.6733997445
 31
0.0
  0
LINE
  5
150
330
1F
100
AcDbEntity
  8
0
  6
Continuous
 62
     7
100
AcDbLine
 10
22.1429979491
 20
-21.6733997445
 30
0.0
 11
22.1402416822
 21
-14.9765955112
 31
0.0
  0
LINE
  5
151
330
1F
100
AcDbEntity
  8
0
  6
Continuous
 62
     7
100
AcDbLine
 10
22.1402416822
 20
-14.9765955112
 30
0.0
 11
19.3841470421
 21
-10.614768736
 31
0.0
  0
LINE
  5
152
330
1F
100
AcDbEntity
  8
0
  6
Continuous
 62
     7
100
AcDbLine
 10
19.3841470421
 20
-10.614768736
 30
0.0
 11
25.1169209868
 21
-4.8880983553
 31
0.0
  0
LINE
  5
153
330
1F
100
AcDbEntity
  8
0
  6
Continuous
 62
     7
100
AcDbLine
 10
25.114137059
 20
1.875912606
 30
0.0
 11
25.1169209868
 21
-4.8880983553
 31
0.0
  0
LINE
  5
154
330
1F
100
AcDbEntity
  8
0
  6
Continuous
 62
     7
100
AcDbLine
 10
22.2465705046
 20
1.8785661943
 30
0.0
 11
25.114137059
 21
1.875912606
 31
0.0
  0
LINE
  5
155
330
1F
100
AcDbEntity
  8
0
  6
Continuous
 62
     7
100
AcDbLine
 10
2.8330493117
 20
0.2706536512
 30
0.0
 11
2.8323676417
 21
1.9268831634
 31
0.0
  0
LINE
  5
156
330
1F
100
AcDbEntity
  8
0
  6
Continuous
 62
     7
100
AcDbLine
 10
2.8323676417
 20
1.9268831634
 30
0.0
 11
1.8683223833
 21
1.9277752715
 31
0.0
  0
LINE
  5
157
330
1F
100
AcDbEntity
  8
0
  6
Continuous
 62
     7
100
AcDbLine
 10
22.2465705046
 20
1.8785661943
 30
0.0
 11
22.2462409096
 21
2.6793713261
 31
0.0
  0
LINE
  5
158
330
1F
100
AcDbEntity
  8
0
  6
Continuous
 62
     7
100
AcDbLine
 10
22.2462409096
 20
2.6793713261
 30
0.0
 11
18.490215371
 21
2.6828470765
 31
0.0
  0
LINE
  5
159
330
1F
100
AcDbEntity
  8
0
  6
Continuous
 62
     7
100
AcDbLine
 10
18.490215371
 20
2.6828470765
 30
0.0
 11
18.4905449659
 21
1.8820419447
 31
0.0
  0
LINE
  5
15A
330
1F
100
AcDbEntity
  8
0
  6
Continuous
 62
     7
100
AcDbLine
 10
18.4905449659
 20
1.8820419447
 30
0.0
 11
17.2762918208
 21
1.8831655901
 31
0.0
  0
LINE
  5
15B
330
1F
100
AcDbEntity
  8
0
  6
Continuous
 62
     7
100
AcDbLine
 10
17.2762918208
 20
1.8831655901
 30
0.0
 11
17.2769454543
 21
0.2950552525
 31
0.0
  0
LINE
  5
15C
330
1F
100
AcDbEntity
  8
0
  6
Continuous
 62
     7
100
AcDbLine
 10
17.2769454543
 20
0.2950552525
 30
0.0
 11
20.756838898
 21
0.2162996454
 31
0.0
  0
LINE
  5
15D
330
1F
100
AcDbEntity
  8
0
  6
Continuous
 62
     7
100
AcDbLine
 10
20.756838898
 20
0.2162996454
 30
0.0
 11
20.7582177218
 21
-3.1337795774
 31
0.0
  0
LINE
  5
15E
330
1F
100
AcDbEntity
  8
0
  6
Continuous
 62
     7
100
AcDbLine
 10
18.4931279534
 20
-4.3937515781
 30
0.0
 11
18.4935546375
 21
-5.4304507441
 31
0.0
  0
LINE
  5
15F
330
1F
100
AcDbEntity
  8
0
  6
Continuous
 62
     7
100
AcDbLine
 10
18.4935546375
 20
-5.4304507441
 30
0.0
 11
16.0374420652
 21
-5.428177907
 31
0.0
  0
LINE
  5
160
330
1F
100
AcDbEntity
  8
0
  6
Continuous
 62
     7
100
AcDbLine
 10
16.0374420652
 20
-5.428177907
 30
0.0
 11
12.8982593912
 21
-5.4252729705
 31
0.0
  0
LINE
  5
161
330
1F
100
AcDbEntity
  8
0
  6
Continuous
 62
     7
100
AcDbLine
 10
12.8982593912
 20
-5.4252729705
 30
0.0
 11
12.8973132657
 21
-3.1265052547
 31
0.0
  0
LINE
  5
162
330
1F
100
AcDbEntity
  8
0
  6
Continuous
 62
     7
100
AcDbLine
 10
12.8973132657
 20
-3.1265052547
 30
0.0
 11
11.5943762466
 21
-3.125299543
 31
0.0
  0
LINE
  5
163
330
1F
100
AcDbEntity
  8
0
  6
Continuous
 62
     7
100
AcDbLine
 10
7.9925698918
 20
-4.3840345731
 30
0.0
 11
7.9920504504
 21
-3.1219660233
 31
0.0
  0
LINE
  5
164
330
1F
100
AcDbEntity
  8
0
  6
Continuous
 62
     7
100
AcDbLine
 10
7.9920504504
 20
-3.1219660233
 30
0.0
 11
6.6501714146
 21
-3.1207242754
 31
0.0
  0
LINE
  5
165
330
1F
100
AcDbEntity
  8
0
  6
Continuous
 62
     7
100
AcDbLine
 10
6.6501714146
 20
-3.1207242754
 30
0.0
 11
6.6511175402
 21
-5.4194919913
 31
0.0
  0
LINE
  5
166
330
1F
100
AcDbEntity
  8
0
  6
Continuous
 62
     7
100
AcDbLine
 10
6.6511175402
 20
-5.4194919913
 30
0.0
 11
0.9084538576
 21
-5.414177846
 31
0.0
  0
LINE
  5
167
330
1F
100
AcDbEntity
  8
0
  6
Continuous
 62
     7
100
AcDbLine
 10
0.9084538576
 20
-5.414177846
 30
0.0
 11
0.9079807949
 21
-4.264793988
 31
0.0
  0
LINE
  5
168
330
1F
100
AcDbEntity
  8
0
  6
Continuous
 62
     7
100
AcDbLine
 10
0.9079807949
 20
-4.264793988
 30
0.0
 11
-0.1668159302
 21
-4.2637993928
 31
0.0
  0
LINE
  5
169
330
1F
100
AcDbEntity
  8
0
  6
Continuous
 62
     7
100
AcDbLine
 10
-1.3601873083
 20
-3.1133116508
 30
0.0
 11
-1.3615816765
 21
0.2745352783
 31
0.0
  0
LINE
  5
16A
330
1F
100
AcDbEntity
  8
0
  6
Continuous
 62
     7
100
AcDbLine
 10
-1.3615816765
 20
0.2745352783
 30
0.0
 11
2.8330493117
 21
0.2706536512
 31
0.0
  0
LINE
  5
16B
330
1F
100
AcDbEntity
  8
0
  6
Continuous
 62
     7
100
AcDbLine
 10
1.8683223833
 20
1.9277752715
 30
0.0
 11
1.8678879867
 21
2.9832134561
 31
0.0
  0
LINE
  5
16C
330
1F
100
AcDbEntity
  8
0
  6
Continuous
 62
     7
100
AcDbLine
 10
1.8678879867
 20
2.9832134561
 30
0.0
 11
-2.6936155595
 21
2.9874345796
 31
0.0
  0
LINE
  5
16D
330
1F
100
AcDbEntity
  8
0
  6
Continuous
 62
     7
100
AcDbLine
 10
-4.8155416672
 20
1.9339603847
 30
0.0
 11
-2.6931811629
 21
1.931996395
 31
0.0
  0
LINE
  5
16E
330
1F
100
AcDbEntity
  8
0
  6
Continuous
 62
     7
100
AcDbLine
 10
-4.8136418671
 20
-2.6819166737
 30
0.0
 11
-0.4359618234
 21
-9.4152974677
 31
0.0
  0
LINE
  5
16F
330
1F
100
AcDbEntity
  8
0
  6
Continuous
 62
     7
100
AcDbLine
 10
11.5943762466
 20
-3.125299543
 30
0.0
 11
11.5948956881
 21
-4.3873680929
 31
0.0
  0
LINE
  5
170
330
1F
100
AcDbEntity
  8
0
  6
Continuous
 62
     7
100
AcDbLine
 10
11.5948956881
 20
-4.3873680929
 30
0.0
 11
10.291958669
 21
-4.3861623812
 31
0.0
  0
LINE
  5
171
330
1F
100
AcDbEntity
  8
0
  6
Continuous
 62
     7
100
AcDbLine
 10
-2.6936155595
 20
2.9874345796
 30
0.0
 11
-2.6931811629
 21
1.931996395
 31
0.0
  0
LINE
  5
172
330
1F
100
AcDbEntity
  8
0
  6
Continuous
 62
     7
100
AcDbLine
 10
-4.8155416672
 20
1.9339603847
 30
0.0
 11
-4.8136418671
 21
-2.6819166737
 31
0.0
  0
LINE
  5
173
330
1F
100
AcDbEntity
  8
0
  6
Continuous
 62
     7
100
AcDbLine
 10
-0.4359618234
 20
-9.4152974677
 30
0.0
 11
-3.0564048769
 21
-14.74615069
 31
0.0
  0
LINE
  5
174
330
1F
100
AcDbEntity
  8
0
  6
Continuous
 62
     7
100
AcDbLine
 10
-3.0564048769
 20
-14.74615069
 30
0.0
 11
-3.0538406144
 21
-20.9764485907
 31
0.0
  0
LINE
  5
175
330
1F
100
AcDbEntity
  8
0
  6
Continuous
 62
     7
100
AcDbLine
 10
4.5773525981
 20
-76.8704292535
 30
0.0
 11
0.3102820433
 21
-80.2380821127
 31
0.0
  0
LINE
  5
176
330
1F
100
AcDbEntity
  8
0
  6
Continuous
 62
     7
100
AcDbLine
 10
0.3102820433
 20
-80.2380821127
 30
0.0
 11
0.3124046173
 21
-85.3952251245
 31
0.0
  0
LINE
  5
177
330
1F
100
AcDbEntity
  8
0
  6
Continuous
 62
     7
100
AcDbLine
 10
0.3124046173
 20
-85.3952251245
 30
0.0
 11
2.8336300683
 21
-85.3975582157
 31
0.0
  0
LINE
  5
178
330
1F
100
AcDbEntity
  8
0
  6
Continuous
 62
     7
100
AcDbLine
 10
2.8336300683
 20
-85.3975582157
 30
0.0
 11
2.8350683575
 21
-88.8921185128
 31
0.0
  0
LINE
  5
179
330
1F
100
AcDbEntity
  8
0
  6
Continuous
 62
     7
100
AcDbLine
 10
2.8350683575
 20
-88.8921185128
 30
0.0
 11
7.9381883524
 21
-88.8968408372
 31
0.0
  0
LINE
  5
17A
330
1F
100
AcDbEntity
  8
0
  6
Continuous
 62
     7
100
AcDbLine
 10
7.9381883524
 20
-88.8968408372
 30
0.0
 11
7.9371606175
 21
-86.3997898244
 31
0.0
  0
LINE
  5
17B
330
1F
100
AcDbEntity
  8
0
  6
Continuous
 62
     7
100
AcDbLine
 10
7.9371606175
 20
-86.3997898244
 30
0.0
 11
11.2887072641
 21
-86.4028912782
 31
0.0
  0
LINE
  5
17C
330
1F
100
AcDbEntity
  8
0
  6
Continuous
 62
     7
100
AcDbLine
 10
11.2887072641
 20
-86.4028912782
 30
0.0
 11
11.289734999
 21
-88.899942291
 31
0.0
  0
LINE
  5
17D
330
1F
100
AcDbEntity
  8
0
  6
Continuous
 62
     7
100
AcDbLine
 10
11.289734999
 20
-88.899942291
 30
0.0
 11
15.1897165514
 21
-88.9035512554
 31
0.0
  0
LINE
  5
17E
330
1F
100
AcDbEntity
  8
0
  6
Continuous
 62
     7
100
AcDbLine
 10
15.1897165514
 20
-88.9035512554
 30
0.0
 11
15.1882782622
 21
-85.4089909584
 31
0.0
  0
LINE
  5
17F
330
1F
100
AcDbEntity
  8
0
  6
Continuous
 62
     7
100
AcDbLine
 10
15.1882782622
 20
-85.4089909584
 30
0.0
 11
17.747641156
 21
-85.4113593412
 31
0.0
  0
LINE
  5
180
330
1F
100
AcDbEntity
  8
0
  6
Continuous
 62
     7
100
AcDbLine
 10
17.747641156
 20
-85.4113593412
 30
0.0
 11
17.745518582
 21
-80.2542163295
 31
0.0
  0
LINE
  5
181
330
1F
100
AcDbEntity
  8
0
  6
Continuous
 62
     7
100
AcDbLine
 10
17.745518582
 20
-80.2542163295
 30
0.0
 11
12.1683760239
 21
-76.8774538337
 31
0.0
  0
LINE
  5
182
330
1F
100
AcDbEntity
  8
0
  6
Continuous
 62
     7
100
AcDbLine
 10
12.1683760239
 20
-76.8774538337
 30
0.0
 11
10.9496317888
 21
-76.8763260323
 31
0.0
  0
LINE
  5
183
330
1F
100
AcDbEntity
  8
0
  6
Continuous
 62
     7
100
AcDbLine
 10
10.9496317888
 20
-76.8763260323
 30
0.0
 11
10.9492035264
 21
-75.8357920906
 31
0.0
  0
LINE
  5
184
330
1F
100
AcDbEntity
  8
0
  6
Continuous
 62
     7
100
AcDbLine
 10
10.9492035264
 20
-75.8357920906
 30
0.0
 11
19.3552917374
 21
-75.8435709153
 31
0.0
  0
LINE
  5
185
330
1F
100
AcDbEntity
  8
0
  6
Continuous
 62
     7
100
AcDbLine
 10
-0.8990518225
 20
-75.8248279537
 30
0.0
 11
7.4369504961
 21
-75.8325419223
 31
0.0
  0
LINE
  5
186
330
1F
100
AcDbEntity
  8
0
  6
Continuous
 62
     7
100
AcDbLine
 10
7.4369504961
 20
-75.8325419223
 30
0.0
 11
7.4373787585
 21
-76.8730758641
 31
0.0
  0
LINE
  5
187
330
1F
100
AcDbEntity
  8
0
  6
Continuous
 62
     7
100
AcDbLine
 10
7.4373787585
 20
-76.8730758641
 30
0.0
 11
4.5773525981
 21
-76.8704292535
 31
0.0
  0
LINE
  5
188
330
1F
100
AcDbEntity
  8
0
  6
Continuous
 62
     7
100
AcDbLine
 10
-9.6395469776
 20
-67.967131904
 30
0.0
 11
3.664661339
 21
-56.3641031953
 31
0.0
  0
LINE
  5
189
330
1F
100
AcDbEntity
  8
0
  6
Continuous
 62
     7
100
AcDbLine
 10
18.0306278535
 20
-57.1562030467
 30
0.0
 11
30.4943016308
 21
-67.6623265719
 31
0.0
  0
LINE
  5
18A
330
1F
100
AcDbEntity
  8
0
  6
Continuous
 62
     7
100
AcDbLine
 10
-95.6254885948
 20
-95.4992908247
 30
0.0
 11
-95.6264743304
 21
-93.1042840592
 31
0.0
  0
LINE
  5
18B
330
1F
100
AcDbEntity
  8
0
  6
Continuous
 62
     7
100
AcDbLine
 10
-95.6264743304
 20
-93.1042840592
 30
0.0
 11
-90.0727246239
 21
-93.1094233873
 31
0.0
  0
LINE
  5
18C
330
1F
100
AcDbEntity
  8
0
  6
Continuous
 62
     7
100
AcDbLine
 10
-104.1483127361
 20
-95.4914039748
 30
0.0
 11
-104.1492984716
 21
-93.0963972094
 31
0.0
  0
LINE
  5
18D
330
1F
100
AcDbEntity
  8
0
  6
Continuous
 62
     7
100
AcDbLine
 10
-107.9066758169
 20
-70.5392083158
 30
0.0
 11
-107.8973931694
 21
-93.092928798
 31
0.0
  0
LINE
  5
18E
330
1F
100
AcDbEntity
  8
0
  6
Continuous
 62
     7
100
AcDbLine
 10
-107.8973931694
 20
-93.092928798
 30
0.0
 11
-104.1492984716
 21
-93.0963972094
 31
0.0
  0
LINE
  5
18F
330
1F
100
AcDbEntity
  8
0
  6
Continuous
 62
     7
100
AcDbLine
 10
-93.6414867856
 20
-58.8054343478
 30
0.0
 11
-93.6407097701
 21
-60.6933215278
 31
0.0
  0
LINE
  5
190
330
1F
100
AcDbEntity
  8
0
  6
Continuous
 62
     7
100
AcDbLine
 10
-93.6407097701
 20
-60.6933215278
 30
0.0
 11
-90.0860650709
 21
-60.6966109244
 31
0.0
  0
LINE
  5
191
330
1F
100
AcDbEntity
  8
0
  6
Continuous
 62
     7
100
AcDbLine
 10
-105.5925951683
 20
-58.7943750328
 30
0.0
 11
-105.5919351167
 21
-60.3980790152
 31
0.0
  0
LINE
  5
192
330
1F
100
AcDbEntity
  8
0
  6
Continuous
 62
     7
100
AcDbLine
 10
-105.5919351167
 20
-60.3980790152
 30
0.0
 11
-107.9933094315
 21
-60.3958568318
 31
0.0
  0
LINE
  5
193
330
1F
100
AcDbEntity
  8
0
  6
Continuous
 62
     7
100
AcDbLine
 10
-99.891734792
 20
-73.1520960941
 30
0.0
 11
-98.0225404391
 21
-73.1538258089
 31
0.0
  0
LINE
  5
194
330
1F
100
AcDbEntity
  8
0
  6
Continuous
 62
     7
100
AcDbLine
 10
-67.0830170407
 20
-93.1306975997
 30
0.0
 11
-67.0865884828
 21
-84.4532908806
 31
0.0
  0
LINE
  5
195
330
1F
100
AcDbEntity
  8
0
  6
Continuous
 62
     7
100
AcDbLine
 10
-72.6367667471
 20
-93.1255582716
 30
0.0
 11
-67.0830170407
 21
-93.1306975997
 31
0.0
  0
LINE
  5
196
330
1F
100
AcDbEntity
  8
0
  6
Continuous
 62
     7
100
AcDbLine
 10
-72.6357810116
 20
-95.5205650371
 30
0.0
 11
-72.6367667471
 21
-93.1255582716
 31
0.0
  0
LINE
  5
197
330
1F
100
AcDbEntity
  8
0
  6
Continuous
 62
     7
100
AcDbLine
 10
-81.1586051528
 20
-95.5126781872
 30
0.0
 11
-72.6357810116
 21
-95.5205650371
 31
0.0
  0
LINE
  5
198
330
1F
100
AcDbEntity
  8
0
  6
Continuous
 62
     7
100
AcDbLine
 10
-81.1586051528
 20
-95.5126781872
 30
0.0
 11
-81.1595908883
 21
-93.1176714218
 31
0.0
  0
LINE
  5
199
330
1F
100
AcDbEntity
  8
0
  6
Continuous
 62
     7
100
AcDbLine
 10
-84.9076855861
 20
-93.1142030104
 30
0.0
 11
-81.1595908883
 21
-93.1176714218
 31
0.0
  0
LINE
  5
19A
330
1F
100
AcDbEntity
  8
0
  6
Continuous
 62
     7
100
AcDbLine
 10
-84.9169682336
 20
-70.5604825282
 30
0.0
 11
-84.9076855861
 21
-93.1142030104
 31
0.0
  0
LINE
  5
19B
330
1F
100
AcDbEntity
  8
0
  6
Continuous
 62
     7
100
AcDbLine
 10
-84.9169682336
 20
-70.5604825282
 30
0.0
 11
-83.6094345201
 21
-70.5616924936
 31
0.0
  0
LINE
  5
19C
330
1F
100
AcDbEntity
  8
0
  6
Continuous
 62
     7
100
AcDbLine
 10
-83.6083621615
 20
-73.1671643992
 30
0.0
 11
-83.6094345201
 21
-70.5616924936
 31
0.0
  0
LINE
  5
19D
330
1F
100
AcDbEntity
  8
0
  6
Continuous
 62
     7
100
AcDbLine
 10
-80.0805403382
 20
-71.7548395951
 30
0.0
 11
-80.9902238995
 21
-71.7539977922
 31
0.0
  0
LINE
  5
19E
330
1F
100
AcDbEntity
  8
0
  6
Continuous
 62
     7
100
AcDbLine
 10
-80.0809463225
 20
-70.7684338306
 30
0.0
 11
-80.0805403382
 21
-71.7548395951
 31
0.0
  0
LINE
  5
19F
330
1F
100
AcDbEntity
  8
0
  6
Continuous
 62
     7
100
AcDbLine
 10
-77.7787034996
 20
-70.7705642798
 30
0.0
 11
-80.0809463225
 21
-70.7684338306
 31
0.0
  0
LINE
  5
1A0
330
1F
100
AcDbEntity
  8
0
  6
Continuous
 62
     7
100
AcDbLine
 10
-77.7782975153
 20
-71.7569700442
 30
0.0
 11
-77.7787034996
 21
-70.7705642798
 31
0.0
  0
LINE
  5
1A1
330
1F
100
AcDbEntity
  8
0
  6
Continuous
 62
     7
100
AcDbLine
 10
-76.9026098365
 20
-71.757780388
 30
0.0
 11
-77.7782975153
 21
-71.7569700442
 31
0.0
  0
LINE
  5
1A2
330
1F
100
AcDbEntity
  8
0
  6
Continuous
 62
     7
100
AcDbLine
 10
-76.9020272088
 20
-73.1733703065
 30
0.0
 11
-76.9026098365
 21
-71.757780388
 31
0.0
  0
LINE
  5
1A3
330
1F
100
AcDbEntity
  8
0
  6
Continuous
 62
     7
100
AcDbLine
 10
-76.9020272088
 20
-73.1733703065
 30
0.0
 11
-75.0328328558
 21
-73.1751000213
 31
0.0
  0
LINE
  5
1A4
330
1F
100
AcDbEntity
  8
0
  6
Continuous
 62
     7
100
AcDbLine
 10
-75.0334154835
 20
-71.7595101028
 30
0.0
 11
-75.0328328558
 21
-73.1751000213
 31
0.0
  0
LINE
  5
1A5
330
1F
100
AcDbEntity
  8
0
  6
Continuous
 62
     7
100
AcDbLine
 10
-74.107237738
 20
-71.760367169
 30
0.0
 11
-75.0334154835
 21
-71.7595101028
 31
0.0
  0
LINE
  5
1A6
330
1F
100
AcDbEntity
  8
0
  6
Continuous
 62
     7
100
AcDbLine
 10
-74.1076437223
 20
-70.7739614046
 30
0.0
 11
-74.107237738
 21
-71.760367169
 31
0.0
  0
LINE
  5
1A7
330
1F
100
AcDbEntity
  8
0
  6
Continuous
 62
     7
100
AcDbLine
 10
-71.3337834351
 20
-70.776528279
 30
0.0
 11
-74.1076437223
 21
-70.7739614046
 31
0.0
  0
LINE
  5
1A8
330
1F
100
AcDbEntity
  8
0
  6
Continuous
 62
     7
100
AcDbLine
 10
-71.3333774507
 20
-71.7629340434
 30
0.0
 11
-71.3337834351
 21
-70.776528279
 31
0.0
  0
LINE
  5
1A9
330
1F
100
AcDbEntity
  8
0
  6
Continuous
 62
     7
100
AcDbLine
 10
-71.3333774507
 20
-71.7629340434
 30
0.0
 11
-70.4694305489
 21
-71.7637335225
 31
0.0
  0
LINE
  5
1AA
330
1F
100
AcDbEntity
  8
0
  6
Continuous
 62
     7
100
AcDbLine
 10
-70.4665528736
 20
-78.7555196378
 30
0.0
 11
-70.4694305489
 21
-71.7637335225
 31
0.0
  0
LINE
  5
1AB
330
1F
100
AcDbEntity
  8
0
  6
Continuous
 62
     7
100
AcDbLine
 10
-71.4664820462
 20
-78.7545943235
 30
0.0
 11
-70.4665528736
 21
-78.7555196378
 31
0.0
  0
LINE
  5
1AC
330
1F
100
AcDbEntity
  8
0
  6
Continuous
 62
     7
100
AcDbLine
 10
-71.4664820462
 20
-78.7545943235
 30
0.0
 11
-71.4655432419
 21
-81.0355739081
 31
0.0
  0
LINE
  5
1AD
330
1F
100
AcDbEntity
  8
0
  6
Continuous
 62
     7
100
AcDbLine
 10
-71.4655432419
 20
-81.0355739081
 30
0.0
 11
-73.8080402527
 21
-81.0334062086
 31
0.0
  0
LINE
  5
1AE
330
1F
100
AcDbEntity
  8
0
  6
Continuous
 62
     7
100
AcDbLine
 10
-73.8080402527
 20
-81.0334062086
 30
0.0
 11
-73.8069778529
 21
-83.6146814189
 31
0.0
  0
LINE
  5
1AF
330
1F
100
AcDbEntity
  8
0
  6
Continuous
 62
     7
100
AcDbLine
 10
-77.4880682222
 20
-83.611275012
 30
0.0
 11
-73.8069778529
 21
-83.6146814189
 31
0.0
  0
LINE
  5
1B0
330
1F
100
AcDbEntity
  8
0
  6
Continuous
 62
     7
100
AcDbLine
 10
-77.4891306219
 20
-81.0299998017
 30
0.0
 11
-77.4880682222
 21
-83.611275012
 31
0.0
  0
LINE
  5
1B1
330
1F
100
AcDbEntity
  8
0
  6
Continuous
 62
     7
100
AcDbLine
 10
-79.7594320115
 20
-81.0278989105
 30
0.0
 11
-77.4891306219
 21
-81.0299998017
 31
0.0
  0
LINE
  5
1B2
330
1F
100
AcDbEntity
  8
0
  6
Continuous
 62
     7
100
AcDbLine
 10
-79.7603708158
 20
-78.7469193259
 30
0.0
 11
-79.7594320115
 21
-81.0278989105
 31
0.0
  0
LINE
  5
1B3
330
1F
100
AcDbEntity
  8
0
  6
Continuous
 62
     7
100
AcDbLine
 10
-80.9290259493
 20
-78.7458378759
 30
0.0
 11
-79.7603708158
 21
-78.7469193259
 31
0.0
  0
LINE
  5
1B4
330
1F
100
AcDbEntity
  8
0
  6
Continuous
 62
     7
100
AcDbLine
 10
-62.0106446316
 20
-68.3339247295
 30
0.0
 11
-60.6206520669
 21
-68.3352110007
 31
0.0
  0
LINE
  5
1B5
330
1F
100
AcDbEntity
  8
0
  6
Continuous
 62
     7
100
AcDbLine
 10
-60.6206520669
 20
-68.3352110007
 30
0.0
 11
-60.6216139274
 21
-65.9982126132
 31
0.0
  0
LINE
  5
1B6
330
1F
100
AcDbEntity
  8
0
  6
Continuous
 62
     7
100
AcDbLine
 10
-60.6216139274
 20
-65.9982126132
 30
0.0
 11
-57.2713693818
 21
-66.0013128621
 31
0.0
  0
LINE
  5
1B7
330
1F
100
AcDbEntity
  8
0
  6
Continuous
 62
     7
100
AcDbLine
 10
-57.2713693818
 20
-66.0013128621
 30
0.0
 11
-57.2708975301
 21
-67.147754446
 31
0.0
  0
LINE
  5
1B8
330
1F
100
AcDbEntity
  8
0
  6
Continuous
 62
     7
100
AcDbLine
 10
-57.2708975301
 20
-67.147754446
 30
0.0
 11
-48.5237346426
 21
-67.1558488944
 31
0.0
  0
LINE
  5
1B9
330
1F
100
AcDbEntity
  8
0
  6
Continuous
 62
     7
100
AcDbLine
 10
-48.5237346426
 20
-67.1558488944
 30
0.0
 11
-48.5242064944
 21
-66.0094073104
 31
0.0
  0
LINE
  5
1BA
330
1F
100
AcDbEntity
  8
0
  6
Continuous
 62
     7
100
AcDbLine
 10
-48.5242064944
 20
-66.0094073104
 30
0.0
 11
-45.1831289288
 21
-66.0124990763
 31
0.0
  0
LINE
  5
1BB
330
1F
100
AcDbEntity
  8
0
  6
Continuous
 62
     7
100
AcDbLine
 10
-45.1831289288
 20
-66.0124990763
 30
0.0
 11
-45.176455863
 21
-82.2258112269
 31
0.0
  0
LINE
  5
1BC
330
1F
100
AcDbEntity
  8
0
  6
Continuous
 62
     7
100
AcDbLine
 10
-45.176455863
 20
-82.2258112269
 30
0.0
 11
-44.0978060296
 21
-82.2268093877
 31
0.0
  0
LINE
  5
1BD
330
1F
100
AcDbEntity
  8
0
  6
Continuous
 62
     7
100
AcDbLine
 10
-44.1066499044
 20
-60.7391593493
 30
0.0
 11
-44.0978060296
 21
-82.2268093877
 31
0.0
  0
LINE
  5
1BE
330
1F
100
AcDbEntity
  8
0
  6
Continuous
 62
     7
100
AcDbLine
 10
-47.6612946036
 20
-60.7358699526
 30
0.0
 11
-44.1066499044
 21
-60.7391593493
 31
0.0
  0
LINE
  5
1BF
330
1F
100
AcDbEntity
  8
0
  6
Continuous
 62
     7
100
AcDbLine
 10
-47.6620716192
 20
-58.8479827726
 30
0.0
 11
-47.6612946036
 21
-60.7358699526
 31
0.0
  0
LINE
  5
1C0
330
1F
100
AcDbEntity
  8
0
  6
Continuous
 62
     7
100
AcDbLine
 10
-47.6620716192
 20
-58.8479827726
 30
0.0
 11
-59.6131800018
 21
-58.8369234576
 31
0.0
  0
LINE
  5
1C1
330
1F
100
AcDbEntity
  8
0
  6
Continuous
 62
     7
100
AcDbLine
 10
-59.6131800018
 20
-58.8369234576
 30
0.0
 11
-59.6125199502
 21
-60.44062744
 31
0.0
  0
LINE
  5
1C2
330
1F
100
AcDbEntity
  8
0
  6
Continuous
 62
     7
100
AcDbLine
 10
-59.6125199502
 20
-60.44062744
 30
0.0
 11
-62.013894265
 21
-60.4384052566
 31
0.0
  0
LINE
  5
1C3
330
1F
100
AcDbEntity
  8
0
  6
Continuous
 62
     7
100
AcDbLine
 10
-62.013894265
 20
-60.4384052566
 30
0.0
 11
-62.0106446316
 21
-68.3339247295
 31
0.0
  0
LINE
  5
1C4
330
1F
100
AcDbEntity
  8
0
  6
Continuous
 62
     7
100
AcDbLine
 10
-60.6182039841
 20
-74.2832313378
 30
0.0
 11
-60.6117929441
 21
-89.8599084429
 31
0.0
  0
LINE
  5
1C5
330
1F
100
AcDbEntity
  8
0
  6
Continuous
 62
     7
100
AcDbLine
 10
-56.8608031054
 20
-89.8633795333
 30
0.0
 11
-60.6117929441
 21
-89.8599084429
 31
0.0
  0
LINE
  5
1C6
330
1F
100
AcDbEntity
  8
0
  6
Continuous
 62
     7
100
AcDbLine
 10
-56.8604303125
 20
-90.7691413304
 30
0.0
 11
-56.8608031054
 21
-89.8633795333
 31
0.0
  0
LINE
  5
1C7
330
1F
100
AcDbEntity
  8
0
  6
Continuous
 62
     7
100
AcDbLine
 10
-56.8604303125
 20
-90.7691413304
 30
0.0
 11
-48.5951641018
 21
-90.7767898413
 31
0.0
  0
LINE
  5
1C8
330
1F
100
AcDbEntity
  8
0
  6
Continuous
 62
     7
100
AcDbLine
 10
-48.5956658307
 20
-89.5577567723
 30
0.0
 11
-48.5951641018
 21
-90.7767898413
 31
0.0
  0
LINE
  5
1C9
330
1F
100
AcDbEntity
  8
0
  6
Continuous
 62
     7
100
AcDbLine
 10
-45.1734368816
 20
-89.5609236341
 30
0.0
 11
-48.5956658307
 21
-89.5577567723
 31
0.0
  0
LINE
  5
1CA
330
1F
100
AcDbEntity
  8
0
  6
Continuous
 62
     7
100
AcDbLine
 10
-45.175530733
 20
-84.4735669322
 30
0.0
 11
-45.1734368816
 21
-89.5609236341
 31
0.0
  0
LINE
  5
1CB
330
1F
100
AcDbEntity
  8
0
  6
Continuous
 62
     7
100
AcDbLine
 10
-45.175530733
 20
-84.4735669322
 30
0.0
 11
-44.0968808996
 21
-84.474565093
 31
0.0
  0
LINE
  5
1CC
330
1F
100
AcDbEntity
  8
0
  6
Continuous
 62
     7
100
AcDbLine
 10
-44.0933094574
 20
-93.1519718121
 30
0.0
 11
-44.0968808996
 21
-84.474565093
 31
0.0
  0
LINE
  5
1CD
330
1F
100
AcDbEntity
  8
0
  6
Continuous
 62
     7
100
AcDbLine
 10
-49.6470591639
 20
-93.146832484
 30
0.0
 11
-44.0933094574
 21
-93.1519718121
 31
0.0
  0
LINE
  5
1CE
330
1F
100
AcDbEntity
  8
0
  6
Continuous
 62
     7
100
AcDbLine
 10
-49.6460734283
 20
-95.5418392495
 30
0.0
 11
-49.6470591639
 21
-93.146832484
 31
0.0
  0
LINE
  5
1CF
330
1F
100
AcDbEntity
  8
0
  6
Continuous
 62
     7
100
AcDbLine
 10
-58.1688975696
 20
-95.5339523996
 30
0.0
 11
-49.6460734283
 21
-95.5418392495
 31
0.0
  0
LINE
  5
1D0
330
1F
100
AcDbEntity
  8
0
  6
Continuous
 62
     7
100
AcDbLine
 10
-58.1688975696
 20
-95.5339523996
 30
0.0
 11
-58.1698833051
 21
-93.1389456342
 31
0.0
  0
LINE
  5
1D1
330
1F
100
AcDbEntity
  8
0
  6
Continuous
 62
     7
100
AcDbLine
 10
-61.9179780029
 20
-93.1354772228
 30
0.0
 11
-58.1698833051
 21
-93.1389456342
 31
0.0
  0
LINE
  5
1D2
330
1F
100
AcDbEntity
  8
0
  6
Continuous
 62
     7
100
AcDbLine
 10
-61.9272606504
 20
-70.5817567406
 30
0.0
 11
-61.9179780029
 21
-93.1354772228
 31
0.0
  0
LINE
  5
1D3
330
1F
100
AcDbEntity
  8
0
  6
Continuous
 62
     7
100
AcDbLine
 10
-61.9272606504
 20
-70.5817567406
 30
0.0
 11
-60.6197269369
 21
-70.582966706
 31
0.0
  0
LINE
  5
1D4
330
1F
100
AcDbEntity
  8
0
  6
Continuous
 62
     7
100
AcDbLine
 10
-60.6186545782
 20
-73.1884386116
 30
0.0
 11
-60.6197269369
 21
-70.582966706
 31
0.0
  0
LINE
  5
1D5
330
1F
100
AcDbEntity
  8
0
  6
Continuous
 62
     7
100
AcDbLine
 10
-58.0005163162
 20
-71.7752720046
 30
0.0
 11
-57.9999336885
 21
-73.1908619231
 31
0.0
  0
LINE
  5
1D6
330
1F
100
AcDbEntity
  8
0
  6
Continuous
 62
     7
100
AcDbLine
 10
-57.090832755
 20
-71.7761138075
 30
0.0
 11
-58.0005163162
 21
-71.7752720046
 31
0.0
  0
LINE
  5
1D7
330
1F
100
AcDbEntity
  8
0
  6
Continuous
 62
     7
100
AcDbLine
 10
-57.0912387393
 20
-70.789708043
 30
0.0
 11
-57.090832755
 21
-71.7761138075
 31
0.0
  0
LINE
  5
1D8
330
1F
100
AcDbEntity
  8
0
  6
Continuous
 62
     7
100
AcDbLine
 10
-54.7889959164
 20
-70.7918384922
 30
0.0
 11
-57.0912387393
 21
-70.789708043
 31
0.0
  0
LINE
  5
1D9
330
1F
100
AcDbEntity
  8
0
  6
Continuous
 62
     7
100
AcDbLine
 10
-54.7885899321
 20
-71.7782442566
 30
0.0
 11
-54.7889959164
 21
-70.7918384922
 31
0.0
  0
LINE
  5
1DA
330
1F
100
AcDbEntity
  8
0
  6
Continuous
 62
     7
100
AcDbLine
 10
-53.9129022532
 20
-71.7790546004
 30
0.0
 11
-54.7885899321
 21
-71.7782442566
 31
0.0
  0
LINE
  5
1DB
330
1F
100
AcDbEntity
  8
0
  6
Continuous
 62
     7
100
AcDbLine
 10
-53.9123196255
 20
-73.1946445189
 30
0.0
 11
-53.9129022532
 21
-71.7790546004
 31
0.0
  0
LINE
  5
1DC
330
1F
100
AcDbEntity
  8
0
  6
Continuous
 62
     7
100
AcDbLine
 10
-53.9123196255
 20
-73.1946445189
 30
0.0
 11
-52.0431252726
 21
-73.1963742337
 31
0.0
  0
LINE
  5
1DD
330
1F
100
AcDbEntity
  8
0
  6
Continuous
 62
     7
100
AcDbLine
 10
-52.0437079003
 20
-71.7807843152
 30
0.0
 11
-52.0431252726
 21
-73.1963742337
 31
0.0
  0
LINE
  5
1DE
330
1F
100
AcDbEntity
  8
0
  6
Continuous
 62
     7
100
AcDbLine
 10
-51.1175301548
 20
-71.7816413814
 30
0.0
 11
-52.0437079003
 21
-71.7807843152
 31
0.0
  0
LINE
  5
1DF
330
1F
100
AcDbEntity
  8
0
  6
Continuous
 62
     7
100
AcDbLine
 10
-51.1179361391
 20
-70.795235617
 30
0.0
 11
-51.1175301548
 21
-71.7816413814
 31
0.0
  0
LINE
  5
1E0
330
1F
100
AcDbEntity
  8
0
  6
Continuous
 62
     7
100
AcDbLine
 10
-48.3440758518
 20
-70.7978024914
 30
0.0
 11
-51.1179361391
 21
-70.795235617
 31
0.0
  0
LINE
  5
1E1
330
1F
100
AcDbEntity
  8
0
  6
Continuous
 62
     7
100
AcDbLine
 10
-48.3436698675
 20
-71.7842082559
 30
0.0
 11
-48.3440758518
 21
-70.7978024914
 31
0.0
  0
LINE
  5
1E2
330
1F
100
AcDbEntity
  8
0
  6
Continuous
 62
     7
100
AcDbLine
 10
-48.3436698675
 20
-71.7842082559
 30
0.0
 11
-47.4797229657
 21
-71.7850077349
 31
0.0
  0
LINE
  5
1E3
330
1F
100
AcDbEntity
  8
0
  6
Continuous
 62
     7
100
AcDbLine
 10
-47.4768452903
 20
-78.7767938502
 30
0.0
 11
-47.4797229657
 21
-71.7850077349
 31
0.0
  0
LINE
  5
1E4
330
1F
100
AcDbEntity
  8
0
  6
Continuous
 62
     7
100
AcDbLine
 10
-48.4767744629
 20
-78.7758685359
 30
0.0
 11
-47.4768452903
 21
-78.7767938502
 31
0.0
  0
LINE
  5
1E5
330
1F
100
AcDbEntity
  8
0
  6
Continuous
 62
     7
100
AcDbLine
 10
-48.4767744629
 20
-78.7758685359
 30
0.0
 11
-48.4758356586
 21
-81.0568481205
 31
0.0
  0
LINE
  5
1E6
330
1F
100
AcDbEntity
  8
0
  6
Continuous
 62
     7
100
AcDbLine
 10
-48.4758356586
 20
-81.0568481205
 30
0.0
 11
-50.8183326694
 21
-81.054680421
 31
0.0
  0
LINE
  5
1E7
330
1F
100
AcDbEntity
  8
0
  6
Continuous
 62
     7
100
AcDbLine
 10
-50.8183326694
 20
-81.054680421
 30
0.0
 11
-50.8172702696
 21
-83.6359556313
 31
0.0
  0
LINE
  5
1E8
330
1F
100
AcDbEntity
  8
0
  6
Continuous
 62
     7
100
AcDbLine
 10
-54.4983606389
 20
-83.6325492244
 30
0.0
 11
-50.8172702696
 21
-83.6359556313
 31
0.0
  0
LINE
  5
1E9
330
1F
100
AcDbEntity
  8
0
  6
Continuous
 62
     7
100
AcDbLine
 10
-54.4994230387
 20
-81.0512740141
 30
0.0
 11
-54.4983606389
 21
-83.6325492244
 31
0.0
  0
LINE
  5
1EA
330
1F
100
AcDbEntity
  8
0
  6
Continuous
 62
     7
100
AcDbLine
 10
-56.7697244283
 20
-81.0491731229
 30
0.0
 11
-54.4994230387
 21
-81.0512740141
 31
0.0
  0
LINE
  5
1EB
330
1F
100
AcDbEntity
  8
0
  6
Continuous
 62
     7
100
AcDbLine
 10
-56.7706632326
 20
-78.7681935383
 30
0.0
 11
-56.7697244283
 21
-81.0491731229
 31
0.0
  0
LINE
  5
1EC
330
1F
100
AcDbEntity
  8
0
  6
Continuous
 62
     7
100
AcDbLine
 10
-57.9393183661
 20
-78.7671120883
 30
0.0
 11
-56.7706632326
 21
-78.7681935383
 31
0.0
  0
LINE
  5
1ED
330
1F
100
AcDbEntity
  8
0
  6
Continuous
 62
     7
100
AcDbLine
 10
-39.0209370484
 20
-68.355198942
 30
0.0
 11
-37.6309444837
 21
-68.3564852131
 31
0.0
  0
LINE
  5
1EE
330
1F
100
AcDbEntity
  8
0
  6
Continuous
 62
     7
100
AcDbLine
 10
-37.6309444837
 20
-68.3564852131
 30
0.0
 11
-37.6319063441
 21
-66.0194868256
 31
0.0
  0
LINE
  5
1EF
330
1F
100
AcDbEntity
  8
0
  6
Continuous
 62
     7
100
AcDbLine
 10
-37.6319063441
 20
-66.0194868256
 30
0.0
 11
-34.2816617986
 21
-66.0225870745
 31
0.0
  0
LINE
  5
1F0
330
1F
100
AcDbEntity
  8
0
  6
Continuous
 62
     7
100
AcDbLine
 10
-34.2816617986
 20
-66.0225870745
 30
0.0
 11
-34.2811899468
 21
-67.1690286584
 31
0.0
  0
LINE
  5
1F1
330
1F
100
AcDbEntity
  8
0
  6
Continuous
 62
     7
100
AcDbLine
 10
-34.2811899468
 20
-67.1690286584
 30
0.0
 11
-25.5340270593
 21
-67.1771231068
 31
0.0
  0
LINE
  5
1F2
330
1F
100
AcDbEntity
  8
0
  6
Continuous
 62
     7
100
AcDbLine
 10
-25.5340270593
 20
-67.1771231068
 30
0.0
 11
-25.5344989111
 21
-66.0306815229
 31
0.0
  0
LINE
  5
1F3
330
1F
100
AcDbEntity
  8
0
  6
Continuous
 62
     7
100
AcDbLine
 10
-25.5344989111
 20
-66.0306815229
 30
0.0
 11
-22.1934213456
 21
-66.0337732887
 31
0.0
  0
LINE
  5
1F4
330
1F
100
AcDbEntity
  8
0
  6
Continuous
 62
     7
100
AcDbLine
 10
-22.1934213456
 20
-66.0337732887
 30
0.0
 11
-22.1867482797
 21
-82.2470854393
 31
0.0
  0
LINE
  5
1F5
330
1F
100
AcDbEntity
  8
0
  6
Continuous
 62
     7
100
AcDbLine
 10
-22.1867482797
 20
-82.2470854393
 30
0.0
 11
-21.1080984463
 21
-82.2480836001
 31
0.0
  0
LINE
  5
1F6
330
1F
100
AcDbEntity
  8
0
  6
Continuous
 62
     7
100
AcDbLine
 10
-21.1169423212
 20
-60.7604335617
 30
0.0
 11
-21.1080984463
 21
-82.2480836001
 31
0.0
  0
LINE
  5
1F7
330
1F
100
AcDbEntity
  8
0
  6
Continuous
 62
     7
100
AcDbLine
 10
-24.6715870204
 20
-60.757144165
 30
0.0
 11
-21.1169423212
 21
-60.7604335617
 31
0.0
  0
LINE
  5
1F8
330
1F
100
AcDbEntity
  8
0
  6
Continuous
 62
     7
100
AcDbLine
 10
-24.6723640359
 20
-58.869256985
 30
0.0
 11
-24.6715870204
 21
-60.757144165
 31
0.0
  0
LINE
  5
1F9
330
1F
100
AcDbEntity
  8
0
  6
Continuous
 62
     7
100
AcDbLine
 10
-24.6723640359
 20
-58.869256985
 30
0.0
 11
-36.6234724186
 21
-58.85819767
 31
0.0
  0
LINE
  5
1FA
330
1F
100
AcDbEntity
  8
0
  6
Continuous
 62
     7
100
AcDbLine
 10
-36.6234724186
 20
-58.85819767
 30
0.0
 11
-36.622812367
 21
-60.4619016524
 31
0.0
  0
LINE
  5
1FB
330
1F
100
AcDbEntity
  8
0
  6
Continuous
 62
     7
100
AcDbLine
 10
-36.622812367
 20
-60.4619016524
 30
0.0
 11
-39.0241866818
 21
-60.459679469
 31
0.0
  0
LINE
  5
1FC
330
1F
100
AcDbEntity
  8
0
  6
Continuous
 62
     7
100
AcDbLine
 10
-39.0241866818
 20
-60.459679469
 30
0.0
 11
-39.0209370484
 21
-68.355198942
 31
0.0
  0
LINE
  5
1FD
330
1F
100
AcDbEntity
  8
0
  6
Continuous
 62
     7
100
AcDbLine
 10
-33.8710955222
 20
-89.8846537457
 30
0.0
 11
-37.6220853609
 21
-89.8811826553
 31
0.0
  0
LINE
  5
1FE
330
1F
100
AcDbEntity
  8
0
  6
Continuous
 62
     7
100
AcDbLine
 10
-33.8707227292
 20
-90.7904155428
 30
0.0
 11
-33.8710955222
 21
-89.8846537457
 31
0.0
  0
LINE
  5
1FF
330
1F
100
AcDbEntity
  8
0
  6
Continuous
 62
     7
100
AcDbLine
 10
-33.8707227292
 20
-90.7904155428
 30
0.0
 11
-25.6054565186
 21
-90.7980640537
 31
0.0
  0
LINE
  5
200
330
1F
100
AcDbEntity
  8
0
  6
Continuous
 62
     7
100
AcDbLine
 10
-25.6059582475
 20
-89.5790309847
 30
0.0
 11
-25.6054565186
 21
-90.7980640537
 31
0.0
  0
LINE
  5
201
330
1F
100
AcDbEntity
  8
0
  6
Continuous
 62
     7
100
AcDbLine
 10
-22.1837292983
 20
-89.5821978465
 30
0.0
 11
-25.6059582475
 21
-89.5790309847
 31
0.0
  0
LINE
  5
202
330
1F
100
AcDbEntity
  8
0
  6
Continuous
 62
     7
100
AcDbLine
 10
-22.1858231497
 20
-84.4948411446
 30
0.0
 11
-22.1837292983
 21
-89.5821978465
 31
0.0
  0
LINE
  5
203
330
1F
100
AcDbEntity
  8
0
  6
Continuous
 62
     7
100
AcDbLine
 10
-22.1858231497
 20
-84.4948411446
 30
0.0
 11
-21.1071733163
 21
-84.4958393054
 31
0.0
  0
LINE
  5
204
330
1F
100
AcDbEntity
  8
0
  6
Continuous
 62
     7
100
AcDbLine
 10
-21.1036018742
 20
-93.1732460245
 30
0.0
 11
-21.1071733163
 21
-84.4958393054
 31
0.0
  0
LINE
  5
205
330
1F
100
AcDbEntity
  8
0
  6
Continuous
 62
     7
100
AcDbLine
 10
-26.6573515806
 20
-93.1681066964
 30
0.0
 11
-21.1036018742
 21
-93.1732460245
 31
0.0
  0
LINE
  5
206
330
1F
100
AcDbEntity
  8
0
  6
Continuous
 62
     7
100
AcDbLine
 10
-26.6563658451
 20
-95.5631134619
 30
0.0
 11
-26.6573515806
 21
-93.1681066964
 31
0.0
  0
LINE
  5
207
330
1F
100
AcDbEntity
  8
0
  6
Continuous
 62
     7
100
AcDbLine
 10
-35.1791899863
 20
-95.5552266121
 30
0.0
 11
-26.6563658451
 21
-95.5631134619
 31
0.0
  0
LINE
  5
208
330
1F
100
AcDbEntity
  8
0
  6
Continuous
 62
     7
100
AcDbLine
 10
-35.1791899863
 20
-95.5552266121
 30
0.0
 11
-35.1801757219
 21
-93.1602198466
 31
0.0
  0
LINE
  5
209
330
1F
100
AcDbEntity
  8
0
  6
Continuous
 62
     7
100
AcDbLine
 10
-38.9282704196
 20
-93.1567514352
 30
0.0
 11
-35.1801757219
 21
-93.1602198466
 31
0.0
  0
LINE
  5
20A
330
1F
100
AcDbEntity
  8
0
  6
Continuous
 62
     7
100
AcDbLine
 10
-38.9375530671
 20
-70.603030953
 30
0.0
 11
-38.9282704196
 21
-93.1567514352
 31
0.0
  0
LINE
  5
20B
330
1F
100
AcDbEntity
  8
0
  6
Continuous
 62
     7
100
AcDbLine
 10
-38.9375530671
 20
-70.603030953
 30
0.0
 11
-37.6300193536
 21
-70.6042409184
 31
0.0
  0
LINE
  5
20C
330
1F
100
AcDbEntity
  8
0
  6
Continuous
 62
     7
100
AcDbLine
 10
53.9374457882
 20
-68.4412207573
 30
0.0
 11
55.3274383529
 21
-68.4425070285
 31
0.0
  0
LINE
  5
20D
330
1F
100
AcDbEntity
  8
0
  6
Continuous
 62
     7
100
AcDbLine
 10
55.3274383529
 20
-68.4425070285
 30
0.0
 11
55.3264764925
 21
-66.105508641
 31
0.0
  0
LINE
  5
20E
330
1F
100
AcDbEntity
  8
0
  6
Continuous
 62
     7
100
AcDbLine
 10
32.1211062075
 20
-30.5569038276
 30
0.0
 11
32.1190615009
 21
-25.5889525058
 31
0.0
  0
LINE
  5
20F
330
1F
100
AcDbEntity
  8
0
  6
Continuous
 62
     7
100
AcDbLine
 10
32.1190615009
 20
-25.5889525058
 30
0.0
 11
34.4675440557
 21
-25.5911257442
 31
0.0
  0
LINE
  5
210
330
1F
100
AcDbEntity
  8
0
  6
Continuous
 62
     7
100
AcDbLine
 10
18.4931279534
 20
-4.3937515781
 30
0.0
 11
20.7587371632
 21
-4.3958481272
 31
0.0
  0
LINE
  5
211
330
1F
100
AcDbEntity
  8
0
  6
Continuous
 62
     7
100
AcDbLine
 10
-146.6523553025
 20
88.7063740214
 30
0.0
 11
153.2133957833
 21
88.4288842944
 31
0.0
  0
LINE
  5
212
330
1F
100
AcDbEntity
  8
0
  6
Continuous
 62
     7
100
AcDbLine
 10
-146.6523553025
 20
88.7063740214
 30
0.0
 11
-146.5701215229
 21
-111.0941331167
 31
0.0
  0
LINE
  5
213
330
1F
100
AcDbEntity
  8
0
  6
Continuous
 62
     7
100
AcDbLine
 10
-146.5701215229
 20
-111.0941331167
 30
0.0
 11
153.2956295629
 21
-111.3716228437
 31
0.0
  0
LINE
  5
214
330
1F
100
AcDbEntity
  8
0
  6
Continuous
 62
     7
100
AcDbLine
 10
153.2133957833
 20
88.4288842944
 30
0.0
 11
153.2956295629
 21
-111.3716228437
 31
0.0
  0
LINE
  5
215
330
1F
100
AcDbEntity
  8
0
  6
Continuous
 62
     7
100
AcDbLine
 10
20.7587371632
 20
-4.3958481272
 30
0.0
 11
20.7582177218
 21
-3.1337795774
 31
0.0
  0
LINE
  5
216
330
1F
100
AcDbEntity
  8
0
  6
Continuous
 62
     7
100
AcDbLine
 10
-1.3601873083
 20
-3.1133116508
 30
0.0
 11
-1.3597142456
 21
-4.2626955087
 31
0.0
  0
LINE
  5
217
330
1F
100
AcDbEntity
  8
0
  6
Continuous
 62
     7
100
AcDbLine
 10
-1.3597142456
 20
-4.2626955087
 30
0.0
 11
-0.1668159302
 21
-4.2637993928
 31
0.0
  0
LINE
  5
218
330
1F
100
AcDbEntity
  8
0
  6
Continuous
 62
     7
100
AcDbLine
 10
-62.8928841448
 20
65.0340216254
 30
0.0
 11
-55.5829535617
 21
65.0272571628
 31
0.0
  0
LINE
  5
219
330
1F
100
AcDbEntity
  8
0
  6
Continuous
 62
     7
100
AcDbLine
 10
-39.6768644696
 20
65.0125379883
 30
0.0
 11
-39.6757068964
 21
62.2000233347
 31
0.0
  0
LINE
  5
21A
330
1F
100
AcDbEntity
  8
0
  6
Continuous
 62
     7
100
AcDbLine
 10
-53.5814369436
 20
59.1660017029
 30
0.0
 11
-53.5838485544
 21
65.0254072313
 31
0.0
  0
LINE
  5
21B
330
1F
100
AcDbEntity
  8
0
  6
Continuous
 62
     7
100
AcDbLine
 10
-53.573044538
 20
38.7752704638
 30
0.0
 11
-39.6660604532
 21
38.7624012208
 31
0.0
  0
LINE
  5
21C
330
1F
100
AcDbEntity
  8
0
  6
Continuous
 62
     7
100
AcDbLine
 10
-55.5829535617
 20
65.0272571628
 30
0.0
 11
-55.5721495453
 21
38.7771203953
 31
0.0
  0
LINE
  5
21D
330
1F
100
AcDbEntity
  8
0
  6
Continuous
 62
     7
100
AcDbLine
 10
-53.5755526133
 20
44.8690522134
 30
0.0
 11
-53.573044538
 21
38.7752704638
 31
0.0
  0
LINE
  5
21E
330
1F
100
AcDbEntity
  8
0
  6
Continuous
 62
     7
100
AcDbLine
 10
-53.5838485544
 20
65.0254072313
 30
0.0
 11
-39.6768644696
 21
65.0125379883
 31
0.0
  0
LINE
  5
21F
330
1F
100
AcDbEntity
  8
0
  6
Continuous
 62
     7
100
AcDbLine
 10
66.2359322897
 20
64.9145284192
 30
0.0
 11
66.2386761563
 21
58.2478529155
 31
0.0
  0
LINE
  5
220
330
1F
100
AcDbEntity
  8
0
  6
Continuous
 62
     7
100
AcDbLine
 10
68.235037297
 20
64.9126784877
 30
0.0
 11
68.2377811635
 21
58.246002984
 31
0.0
  0
LINE
  5
221
330
1F
100
AcDbEntity
  8
0
  6
Continuous
 62
     7
100
AcDbLine
 10
66.2386761563
 20
58.2478529155
 30
0.0
 11
63.0029552748
 21
58.2508471864
 31
0.0
  0
LINE
  5
222
330
1F
100
AcDbEntity
  8
0
  6
Continuous
 62
     7
100
AcDbLine
 10
68.2405939294
 20
51.4119251217
 30
0.0
 11
71.4791440411
 21
51.4089282326
 31
0.0
  0
LINE
  5
223
330
1F
100
AcDbEntity
  8
0
  6
Continuous
 62
     7
100
AcDbLine
 10
68.2422956718
 20
47.2772617966
 30
0.0
 11
71.2009635518
 21
47.2745239049
 31
0.0
  0
LINE
  5
224
330
1F
100
AcDbEntity
  8
0
  6
Continuous
 62
     7
100
AcDbLine
 10
66.2359322897
 20
64.9145284192
 30
0.0
 11
53.8196962516
 21
64.926018154
 31
0.0
  0
LINE
  5
225
330
1F
100
AcDbEntity
  8
0
  6
Continuous
 62
     7
100
AcDbLine
 10
66.2414889222
 20
51.4137750532
 30
0.0
 11
66.2431906646
 21
47.2791117281
 31
0.0
  0
LINE
  5
226
330
1F
100
AcDbEntity
  8
0
  6
Continuous
 62
     7
100
AcDbLine
 10
68.2405939294
 20
51.4119251217
 30
0.0
 11
68.2422956718
 21
47.2772617966
 31
0.0
  0
LINE
  5
227
330
1F
100
AcDbEntity
  8
0
  6
Continuous
 62
     7
100
AcDbLine
 10
-10.4558536993
 20
46.7273879253
 30
0.0
 11
-22.2105957435
 21
46.7382655269
 31
0.0
  0
LINE
  5
228
330
1F
100
AcDbEntity
  8
0
  6
Continuous
 62
     7
100
AcDbLine
 10
-34.3120280968
 20
65.0075734768
 30
0.0
 11
-34.3012240804
 21
38.7574367092
 31
0.0
  0
LINE
  5
229
330
1F
100
AcDbEntity
  8
0
  6
Continuous
 62
     7
100
AcDbLine
 10
-22.2118292502
 20
49.735273134
 30
0.0
 11
-10.457087206
 21
49.7243955324
 31
0.0
  0
LINE
  5
22A
330
1F
100
AcDbEntity
  8
0
  6
Continuous
 62
     7
100
AcDbLine
 10
-10.4600790133
 20
56.9934841219
 30
0.0
 11
-10.4633683645
 21
64.9855044074
 31
0.0
  0
LINE
  5
22B
330
1F
100
AcDbEntity
  8
0
  6
Continuous
 62
     7
100
AcDbLine
 10
-10.4525643481
 20
38.7353676398
 30
0.0
 11
-10.4558536993
 21
46.7273879253
 31
0.0
  0
LINE
  5
22C
330
1F
100
AcDbEntity
  8
0
  6
Continuous
 62
     7
100
AcDbLine
 10
-10.4633683645
 20
64.9855044074
 30
0.0
 11
-34.3120280968
 21
65.0075734768
 31
0.0
  0
LINE
  5
22D
330
1F
100
AcDbEntity
  8
0
  6
Continuous
 62
     7
100
AcDbLine
 10
-10.4588455066
 20
53.9964765148
 30
0.0
 11
-22.2135875508
 21
54.0073541163
 31
0.0
  0
LINE
  5
22E
330
1F
100
AcDbEntity
  8
0
  6
Continuous
 62
     7
100
AcDbLine
 10
-22.2135875508
 20
54.0073541163
 30
0.0
 11
-22.2148210575
 21
57.0043617234
 31
0.0
  0
LINE
  5
22F
330
1F
100
AcDbEntity
  8
0
  6
Continuous
 62
     7
100
AcDbLine
 10
-34.3012240804
 20
38.7574367092
 30
0.0
 11
-10.4525643481
 21
38.7353676398
 31
0.0
  0
LINE
  5
230
330
1F
100
AcDbEntity
  8
0
  6
Continuous
 62
     7
100
AcDbLine
 10
-10.457087206
 20
49.7243955324
 30
0.0
 11
-10.4588455066
 21
53.9964765148
 31
0.0
  0
LINE
  5
231
330
1F
100
AcDbEntity
  8
0
  6
Continuous
 62
     7
100
AcDbLine
 10
-22.2148210575
 20
57.0043617234
 30
0.0
 11
-10.4600790133
 21
56.9934841219
 31
0.0
  0
LINE
  5
232
330
1F
100
AcDbEntity
  8
0
  6
Continuous
 62
     7
100
AcDbLine
 10
-22.2105957435
 20
46.7382655269
 30
0.0
 11
-22.2118292502
 21
49.735273134
 31
0.0
  0
LINE
  5
233
330
1F
100
AcDbEntity
  8
0
  6
Continuous
 62
     7
100
AcDbLine
 10
1.6167453247
 20
62.2321249705
 30
0.0
 11
1.6156166909
 21
64.9743267579
 31
0.0
  0
LINE
  5
234
330
1F
100
AcDbEntity
  8
0
  6
Continuous
 62
     7
100
AcDbLine
 10
3.615850332
 20
62.230275039
 30
0.0
 11
3.6147216981
 21
64.9724768264
 31
0.0
  0
LINE
  5
235
330
1F
100
AcDbEntity
  8
0
  6
Continuous
 62
     7
100
AcDbLine
 10
1.6156166909
 20
64.9743267579
 30
0.0
 11
-8.2531610708
 21
64.9834591261
 31
0.0
  0
LINE
  5
236
330
1F
100
AcDbEntity
  8
0
  6
Continuous
 62
     7
100
AcDbLine
 10
9.6173873979
 20
51.966573745
 30
0.0
 11
12.6164125762
 21
51.9637985075
 31
0.0
  0
LINE
  5
237
330
1F
100
AcDbEntity
  8
0
  6
Continuous
 62
     7
100
AcDbLine
 10
7.9292220186
 20
49.9701316289
 30
0.0
 11
15.9781206592
 21
49.9626833402
 31
0.0
  0
LINE
  5
238
330
1F
100
AcDbEntity
  8
0
  6
Continuous
 62
     7
100
AcDbLine
 10
-106.5980697447
 20
-73.1458901868
 30
0.0
 11
-106.5976191505
 21
-74.240682913
 31
0.0
  0
LINE
  5
239
330
1F
100
AcDbEntity
  8
0
  6
Continuous
 62
     7
100
AcDbLine
 10
-103.9799314827
 20
-71.7327235798
 30
0.0
 11
-103.9770538073
 21
-78.7245096951
 31
0.0
  0
LINE
  5
23A
330
1F
100
AcDbEntity
  8
0
  6
Continuous
 62
     7
100
AcDbLine
 10
-103.9770538073
 20
-78.7245096951
 30
0.0
 11
-102.7500783991
 21
-78.7256451134
 31
0.0
  0
LINE
  5
23B
330
1F
100
AcDbEntity
  8
0
  6
Continuous
 62
     7
100
AcDbLine
 10
-83.6083621615
 20
-73.1671643992
 30
0.0
 11
-83.6079115673
 21
-74.2619571254
 31
0.0
  0
LINE
  5
23C
330
1F
100
AcDbEntity
  8
0
  6
Continuous
 62
     7
100
AcDbLine
 10
-80.9902238995
 20
-71.7539977922
 30
0.0
 11
-80.9873462241
 21
-78.7457839075
 31
0.0
  0
LINE
  5
23D
330
1F
100
AcDbEntity
  8
0
  6
Continuous
 62
     7
100
AcDbLine
 10
-80.9873462241
 20
-78.7457839075
 30
0.0
 11
-80.9290259493
 21
-78.7458378759
 31
0.0
  0
LINE
  5
23E
330
1F
100
AcDbEntity
  8
0
  6
Continuous
 62
     7
100
AcDbLine
 10
-60.6186545782
 20
-73.1884386116
 30
0.0
 11
-60.6182039841
 21
-74.2832313378
 31
0.0
  0
LINE
  5
23F
330
1F
100
AcDbEntity
  8
0
  6
Continuous
 62
     7
100
AcDbLine
 10
-57.9999336885
 20
-73.1908619231
 30
0.0
 11
-57.9976386409
 21
-78.7670581199
 31
0.0
  0
LINE
  5
240
330
1F
100
AcDbEntity
  8
0
  6
Continuous
 62
     7
100
AcDbLine
 10
-57.9976386409
 20
-78.7670581199
 30
0.0
 11
-57.9393183661
 21
-78.7671120883
 31
0.0
  0
LINE
  5
241
330
1F
100
AcDbEntity
  8
0
  6
Continuous
 62
     7
100
AcDbLine
 10
55.3294358416
 20
-73.2957346394
 30
0.0
 11
55.3298864358
 21
-74.3905273656
 31
0.0
  0
LINE
  5
242
330
1F
100
AcDbEntity
  8
0
  6
Continuous
 62
     7
100
AcDbLine
 10
57.9481567313
 20
-73.2981579509
 30
0.0
 11
57.950451779
 21
-78.8743541477
 31
0.0
  0
LINE
  5
243
330
1F
100
AcDbEntity
  8
0
  6
Continuous
 62
     7
100
AcDbLine
 10
57.950451779
 20
-78.8743541477
 30
0.0
 11
59.1774271873
 21
-78.875489566
 31
0.0
  0
LINE
  5
244
330
1F
100
AcDbEntity
  8
0
  6
Continuous
 62
     7
100
AcDbLine
 10
80.9378643146
 20
-73.3194321633
 30
0.0
 11
80.9401593622
 21
-78.8956283601
 31
0.0
  0
LINE
  5
245
330
1F
100
AcDbEntity
  8
0
  6
Continuous
 62
     7
100
AcDbLine
 10
80.9401593622
 20
-78.8956283601
 30
0.0
 11
82.1671347705
 21
-78.8967637784
 31
0.0
  0
LINE
  5
246
330
1F
100
AcDbEntity
  8
0
  6
Continuous
 62
     7
100
AcDbLine
 10
103.9275718978
 20
-73.3407063757
 30
0.0
 11
103.9298669455
 21
-78.9169025725
 31
0.0
  0
LINE
  5
247
330
1F
100
AcDbEntity
  8
0
  6
Continuous
 62
     7
100
AcDbLine
 10
103.9298669455
 20
-78.9169025725
 30
0.0
 11
105.1568423538
 21
-78.9180379908
 31
0.0
  0
LINE
  5
248
330
1F
100
AcDbEntity
  8
0
  6
Continuous
 62
     7
100
AcDbLine
 10
78.3191434248
 20
-73.3170088518
 30
0.0
 11
78.319594019
 21
-74.411801578
 31
0.0
  0
LINE
  5
249
330
1F
100
AcDbEntity
  8
0
  6
Continuous
 62
     7
100
AcDbLine
 10
101.3088510081
 20
-73.3382830642
 30
0.0
 11
101.3093016023
 21
-74.4330757904
 31
0.0
  0
LINE
  5
24A
330
1F
100
AcDbEntity
  8
0
  6
Continuous
 62
     7
100
AcDbLine
 10
5.2782306785
 20
44.6465823911
 30
0.0
 11
5.2795651987
 21
41.4041458173
 31
0.0
  0
LINE
  5
24B
330
1F
100
AcDbEntity
  8
0
  6
Continuous
 62
     7
100
AcDbLine
 10
5.2795651987
 20
41.4041458173
 30
0.0
 11
9.5680863892
 21
41.4001773062
 31
0.0
  0
LINE
  5
24C
330
1F
100
AcDbEntity
  8
0
  6
Continuous
 62
     7
100
AcDbLine
 10
55.3264764925
 20
-66.105508641
 30
0.0
 11
58.676721038
 21
-66.1086088898
 31
0.0
  0
LINE
  5
24D
330
1F
100
AcDbEntity
  8
0
  6
Continuous
 62
     7
100
AcDbLine
 10
58.676721038
 20
-66.1086088898
 30
0.0
 11
58.6771928898
 21
-67.2550504738
 31
0.0
  0
LINE
  5
24E
330
1F
100
AcDbEntity
  8
0
  6
Continuous
 62
     7
100
AcDbLine
 10
58.6771928898
 20
-67.2550504738
 30
0.0
 11
67.4243557773
 21
-67.2631449221
 31
0.0
  0
LINE
  5
24F
330
1F
100
AcDbEntity
  8
0
  6
Continuous
 62
     7
100
AcDbLine
 10
67.4243557773
 20
-67.2631449221
 30
0.0
 11
67.4238839255
 21
-66.1167033382
 31
0.0
  0
LINE
  5
250
330
1F
100
AcDbEntity
  8
0
  6
Continuous
 62
     7
100
AcDbLine
 10
67.4238839255
 20
-66.1167033382
 30
0.0
 11
70.764961491
 21
-66.1197951041
 31
0.0
  0
LINE
  5
251
330
1F
100
AcDbEntity
  8
0
  6
Continuous
 62
     7
100
AcDbLine
 10
70.764961491
 20
-66.1197951041
 30
0.0
 11
70.7716345569
 21
-82.3331072547
 31
0.0
  0
LINE
  5
252
330
1F
100
AcDbEntity
  8
0
  6
Continuous
 62
     7
100
AcDbLine
 10
70.7716345569
 20
-82.3331072547
 30
0.0
 11
71.8502843902
 21
-82.3341054155
 31
0.0
  0
LINE
  5
253
330
1F
100
AcDbEntity
  8
0
  6
Continuous
 62
     7
100
AcDbLine
 10
71.8414405154
 20
-60.846455377
 30
0.0
 11
71.8502843902
 21
-82.3341054155
 31
0.0
  0
LINE
  5
254
330
1F
100
AcDbEntity
  8
0
  6
Continuous
 62
     7
100
AcDbLine
 10
68.2867958162
 20
-60.8431659804
 30
0.0
 11
71.8414405154
 21
-60.846455377
 31
0.0
  0
LINE
  5
255
330
1F
100
AcDbEntity
  8
0
  6
Continuous
 62
     7
100
AcDbLine
 10
68.2860188007
 20
-58.9552788004
 30
0.0
 11
68.2867958162
 21
-60.8431659804
 31
0.0
  0
LINE
  5
256
330
1F
100
AcDbEntity
  8
0
  6
Continuous
 62
     7
100
AcDbLine
 10
68.2860188007
 20
-58.9552788004
 30
0.0
 11
56.334910418
 21
-58.9442194854
 31
0.0
  0
LINE
  5
257
330
1F
100
AcDbEntity
  8
0
  6
Continuous
 62
     7
100
AcDbLine
 10
56.334910418
 20
-58.9442194854
 30
0.0
 11
56.3355704696
 21
-60.5479234678
 31
0.0
  0
LINE
  5
258
330
1F
100
AcDbEntity
  8
0
  6
Continuous
 62
     7
100
AcDbLine
 10
56.3355704696
 20
-60.5479234678
 30
0.0
 11
53.9341961548
 21
-60.5457012844
 31
0.0
  0
LINE
  5
259
330
1F
100
AcDbEntity
  8
0
  6
Continuous
 62
     7
100
AcDbLine
 10
53.9341961548
 20
-60.5457012844
 30
0.0
 11
53.9374457882
 21
-68.4412207573
 31
0.0
  0
LINE
  5
25A
330
1F
100
AcDbEntity
  8
0
  6
Continuous
 62
     7
100
AcDbLine
 10
55.3298864358
 20
-74.3905273656
 30
0.0
 11
55.3362974757
 21
-89.9672044706
 31
0.0
  0
LINE
  5
25B
330
1F
100
AcDbEntity
  8
0
  6
Continuous
 62
     7
100
AcDbLine
 10
59.0872873144
 20
-89.9706755611
 30
0.0
 11
55.3362974757
 21
-89.9672044706
 31
0.0
  0
LINE
  5
25C
330
1F
100
AcDbEntity
  8
0
  6
Continuous
 62
     7
100
AcDbLine
 10
59.0876601074
 20
-90.8764373582
 30
0.0
 11
59.0872873144
 21
-89.9706755611
 31
0.0
  0
LINE
  5
25D
330
1F
100
AcDbEntity
  8
0
  6
Continuous
 62
     7
100
AcDbLine
 10
59.0876601074
 20
-90.8764373582
 30
0.0
 11
67.352926318
 21
-90.8840858691
 31
0.0
  0
LINE
  5
25E
330
1F
100
AcDbEntity
  8
0
  6
Continuous
 62
     7
100
AcDbLine
 10
67.3524245891
 20
-89.6650528001
 30
0.0
 11
67.352926318
 21
-90.8840858691
 31
0.0
  0
LINE
  5
25F
330
1F
100
AcDbEntity
  8
0
  6
Continuous
 62
     7
100
AcDbLine
 10
70.7746535383
 20
-89.6682196618
 30
0.0
 11
67.3524245891
 21
-89.6650528001
 31
0.0
  0
LINE
  5
260
330
1F
100
AcDbEntity
  8
0
  6
Continuous
 62
     7
100
AcDbLine
 10
70.7725596869
 20
-84.58086296
 30
0.0
 11
70.7746535383
 21
-89.6682196618
 31
0.0
  0
LINE
  5
261
330
1F
100
AcDbEntity
  8
0
  6
Continuous
 62
     7
100
AcDbLine
 10
70.7725596869
 20
-84.58086296
 30
0.0
 11
71.8512095203
 21
-84.5818611208
 31
0.0
  0
LINE
  5
262
330
1F
100
AcDbEntity
  8
0
  6
Continuous
 62
     7
100
AcDbLine
 10
71.8547809624
 20
-93.2592678399
 30
0.0
 11
71.8512095203
 21
-84.5818611208
 31
0.0
  0
LINE
  5
263
330
1F
100
AcDbEntity
  8
0
  6
Continuous
 62
     7
100
AcDbLine
 10
66.301031256
 20
-93.2541285118
 30
0.0
 11
71.8547809624
 21
-93.2592678399
 31
0.0
  0
LINE
  5
264
330
1F
100
AcDbEntity
  8
0
  6
Continuous
 62
     7
100
AcDbLine
 10
66.3020169915
 20
-95.6491352772
 30
0.0
 11
66.301031256
 21
-93.2541285118
 31
0.0
  0
LINE
  5
265
330
1F
100
AcDbEntity
  8
0
  6
Continuous
 62
     7
100
AcDbLine
 10
57.7791928503
 20
-95.6412484274
 30
0.0
 11
66.3020169915
 21
-95.6491352772
 31
0.0
  0
LINE
  5
266
330
1F
100
AcDbEntity
  8
0
  6
Continuous
 62
     7
100
AcDbLine
 10
57.7791928503
 20
-95.6412484274
 30
0.0
 11
57.7782071147
 21
-93.2462416619
 31
0.0
  0
LINE
  5
267
330
1F
100
AcDbEntity
  8
0
  6
Continuous
 62
     7
100
AcDbLine
 10
54.030112417
 20
-93.2427732506
 30
0.0
 11
57.7782071147
 21
-93.2462416619
 31
0.0
  0
LINE
  5
268
330
1F
100
AcDbEntity
  8
0
  6
Continuous
 62
     7
100
AcDbLine
 10
54.0208297694
 20
-70.6890527684
 30
0.0
 11
54.030112417
 21
-93.2427732506
 31
0.0
  0
LINE
  5
269
330
1F
100
AcDbEntity
  8
0
  6
Continuous
 62
     7
100
AcDbLine
 10
54.0208297694
 20
-70.6890527684
 30
0.0
 11
55.328363483
 21
-70.6902627338
 31
0.0
  0
LINE
  5
26A
330
1F
100
AcDbEntity
  8
0
  6
Continuous
 62
     7
100
AcDbLine
 10
55.3294358416
 20
-73.2957346394
 30
0.0
 11
55.328363483
 21
-70.6902627338
 31
0.0
  0
LINE
  5
26B
330
1F
100
AcDbEntity
  8
0
  6
Continuous
 62
     7
100
AcDbLine
 10
57.9475741036
 20
-71.8825680324
 30
0.0
 11
57.9481567313
 21
-73.2981579509
 31
0.0
  0
LINE
  5
26C
330
1F
100
AcDbEntity
  8
0
  6
Continuous
 62
     7
100
AcDbLine
 10
58.8572576649
 20
-71.8834098353
 30
0.0
 11
57.9475741036
 21
-71.8825680324
 31
0.0
  0
LINE
  5
26D
330
1F
100
AcDbEntity
  8
0
  6
Continuous
 62
     7
100
AcDbLine
 10
58.8568516806
 20
-70.8970040708
 30
0.0
 11
58.8572576649
 21
-71.8834098353
 31
0.0
  0
LINE
  5
26E
330
1F
100
AcDbEntity
  8
0
  6
Continuous
 62
     7
100
AcDbLine
 10
61.1590945034
 20
-70.89913452
 30
0.0
 11
58.8568516806
 21
-70.8970040708
 31
0.0
  0
LINE
  5
26F
330
1F
100
AcDbEntity
  8
0
  6
Continuous
 62
     7
100
AcDbLine
 10
61.1595004878
 20
-71.8855402844
 30
0.0
 11
61.1590945034
 21
-70.89913452
 31
0.0
  0
LINE
  5
270
330
1F
100
AcDbEntity
  8
0
  6
Continuous
 62
     7
100
AcDbLine
 10
62.0351881666
 20
-71.8863506281
 30
0.0
 11
61.1595004878
 21
-71.8855402844
 31
0.0
  0
LINE
  5
271
330
1F
100
AcDbEntity
  8
0
  6
Continuous
 62
     7
100
AcDbLine
 10
62.0357707943
 20
-73.3019405467
 30
0.0
 11
62.0351881666
 21
-71.8863506281
 31
0.0
  0
LINE
  5
272
330
1F
100
AcDbEntity
  8
0
  6
Continuous
 62
     7
100
AcDbLine
 10
62.0357707943
 20
-73.3019405467
 30
0.0
 11
63.9049651472
 21
-73.3036702615
 31
0.0
  0
LINE
  5
273
330
1F
100
AcDbEntity
  8
0
  6
Continuous
 62
     7
100
AcDbLine
 10
63.9043825195
 20
-71.8880803429
 30
0.0
 11
63.9049651472
 21
-73.3036702615
 31
0.0
  0
LINE
  5
274
330
1F
100
AcDbEntity
  8
0
  6
Continuous
 62
     7
100
AcDbLine
 10
64.8305602651
 20
-71.8889374092
 30
0.0
 11
63.9043825195
 21
-71.8880803429
 31
0.0
  0
LINE
  5
275
330
1F
100
AcDbEntity
  8
0
  6
Continuous
 62
     7
100
AcDbLine
 10
64.8301542807
 20
-70.9025316447
 30
0.0
 11
64.8305602651
 21
-71.8889374092
 31
0.0
  0
LINE
  5
276
330
1F
100
AcDbEntity
  8
0
  6
Continuous
 62
     7
100
AcDbLine
 10
67.604014568
 20
-70.9050985192
 30
0.0
 11
64.8301542807
 21
-70.9025316447
 31
0.0
  0
LINE
  5
277
330
1F
100
AcDbEntity
  8
0
  6
Continuous
 62
     7
100
AcDbLine
 10
67.6044205523
 20
-71.8915042836
 30
0.0
 11
67.604014568
 21
-70.9050985192
 31
0.0
  0
LINE
  5
278
330
1F
100
AcDbEntity
  8
0
  6
Continuous
 62
     7
100
AcDbLine
 10
67.6044205523
 20
-71.8915042836
 30
0.0
 11
68.4683674542
 21
-71.8923037627
 31
0.0
  0
LINE
  5
279
330
1F
100
AcDbEntity
  8
0
  6
Continuous
 62
     7
100
AcDbLine
 10
68.4712451295
 20
-78.884089878
 30
0.0
 11
68.4683674542
 21
-71.8923037627
 31
0.0
  0
LINE
  5
27A
330
1F
100
AcDbEntity
  8
0
  6
Continuous
 62
     7
100
AcDbLine
 10
67.4713159569
 20
-78.8831645637
 30
0.0
 11
68.4712451295
 21
-78.884089878
 31
0.0
  0
LINE
  5
27B
330
1F
100
AcDbEntity
  8
0
  6
Continuous
 62
     7
100
AcDbLine
 10
67.4713159569
 20
-78.8831645637
 30
0.0
 11
67.4722547612
 21
-81.1641441483
 31
0.0
  0
LINE
  5
27C
330
1F
100
AcDbEntity
  8
0
  6
Continuous
 62
     7
100
AcDbLine
 10
67.4722547612
 20
-81.1641441483
 30
0.0
 11
65.1297577504
 21
-81.1619764488
 31
0.0
  0
LINE
  5
27D
330
1F
100
AcDbEntity
  8
0
  6
Continuous
 62
     7
100
AcDbLine
 10
65.1297577504
 20
-81.1619764488
 30
0.0
 11
65.1308201502
 21
-83.7432516591
 31
0.0
  0
LINE
  5
27E
330
1F
100
AcDbEntity
  8
0
  6
Continuous
 62
     7
100
AcDbLine
 10
61.4497297809
 20
-83.7398452522
 30
0.0
 11
65.1308201502
 21
-83.7432516591
 31
0.0
  0
LINE
  5
27F
330
1F
100
AcDbEntity
  8
0
  6
Continuous
 62
     7
100
AcDbLine
 10
61.4486673811
 20
-81.1585700419
 30
0.0
 11
61.4497297809
 21
-83.7398452522
 31
0.0
  0
LINE
  5
280
330
1F
100
AcDbEntity
  8
0
  6
Continuous
 62
     7
100
AcDbLine
 10
59.1783659916
 20
-81.1564691507
 30
0.0
 11
61.4486673811
 21
-81.1585700419
 31
0.0
  0
LINE
  5
281
330
1F
100
AcDbEntity
  8
0
  6
Continuous
 62
     7
100
AcDbLine
 10
59.1774271873
 20
-78.875489566
 30
0.0
 11
59.1783659916
 21
-81.1564691507
 31
0.0
  0
LINE
  5
282
330
1F
100
AcDbEntity
  8
0
  6
Continuous
 62
     7
100
AcDbLine
 10
76.9271533715
 20
-68.4624949697
 30
0.0
 11
78.3171459362
 21
-68.4637812409
 31
0.0
  0
LINE
  5
283
330
1F
100
AcDbEntity
  8
0
  6
Continuous
 62
     7
100
AcDbLine
 10
78.3171459362
 20
-68.4637812409
 30
0.0
 11
78.3161840757
 21
-66.1267828534
 31
0.0
  0
LINE
  5
284
330
1F
100
AcDbEntity
  8
0
  6
Continuous
 62
     7
100
AcDbLine
 10
78.3161840757
 20
-66.1267828534
 30
0.0
 11
81.6664286212
 21
-66.1298831023
 31
0.0
  0
LINE
  5
285
330
1F
100
AcDbEntity
  8
0
  6
Continuous
 62
     7
100
AcDbLine
 10
81.6664286212
 20
-66.1298831023
 30
0.0
 11
81.666900473
 21
-67.2763246862
 31
0.0
  0
LINE
  5
286
330
1F
100
AcDbEntity
  8
0
  6
Continuous
 62
     7
100
AcDbLine
 10
81.666900473
 20
-67.2763246862
 30
0.0
 11
90.4140633605
 21
-67.2844191345
 31
0.0
  0
LINE
  5
287
330
1F
100
AcDbEntity
  8
0
  6
Continuous
 62
     7
100
AcDbLine
 10
90.4140633605
 20
-67.2844191345
 30
0.0
 11
90.4135915087
 21
-66.1379775506
 31
0.0
  0
LINE
  5
288
330
1F
100
AcDbEntity
  8
0
  6
Continuous
 62
     7
100
AcDbLine
 10
90.4135915087
 20
-66.1379775506
 30
0.0
 11
93.7546690743
 21
-66.1410693165
 31
0.0
  0
LINE
  5
289
330
1F
100
AcDbEntity
  8
0
  6
Continuous
 62
     7
100
AcDbLine
 10
93.7546690743
 20
-66.1410693165
 30
0.0
 11
93.7613421401
 21
-82.3543814671
 31
0.0
  0
LINE
  5
28A
330
1F
100
AcDbEntity
  8
0
  6
Continuous
 62
     7
100
AcDbLine
 10
93.7613421401
 20
-82.3543814671
 30
0.0
 11
94.8399919735
 21
-82.3553796279
 31
0.0
  0
LINE
  5
28B
330
1F
100
AcDbEntity
  8
0
  6
Continuous
 62
     7
100
AcDbLine
 10
94.8311480987
 20
-60.8677295894
 30
0.0
 11
94.8399919735
 21
-82.3553796279
 31
0.0
  0
LINE
  5
28C
330
1F
100
AcDbEntity
  8
0
  6
Continuous
 62
     7
100
AcDbLine
 10
91.2765033995
 20
-60.8644401928
 30
0.0
 11
94.8311480987
 21
-60.8677295894
 31
0.0
  0
LINE
  5
28D
330
1F
100
AcDbEntity
  8
0
  6
Continuous
 62
     7
100
AcDbLine
 10
91.2757263839
 20
-58.9765530128
 30
0.0
 11
91.2765033995
 21
-60.8644401928
 31
0.0
  0
LINE
  5
28E
330
1F
100
AcDbEntity
  8
0
  6
Continuous
 62
     7
100
AcDbLine
 10
91.2757263839
 20
-58.9765530128
 30
0.0
 11
79.3246180013
 21
-58.9654936978
 31
0.0
  0
LINE
  5
28F
330
1F
100
AcDbEntity
  8
0
  6
Continuous
 62
     7
100
AcDbLine
 10
79.3246180013
 20
-58.9654936978
 30
0.0
 11
79.3252780528
 21
-60.5691976802
 31
0.0
  0
LINE
  5
290
330
1F
100
AcDbEntity
  8
0
  6
Continuous
 62
     7
100
AcDbLine
 10
79.3252780528
 20
-60.5691976802
 30
0.0
 11
76.923903738
 21
-60.5669754968
 31
0.0
  0
LINE
  5
291
330
1F
100
AcDbEntity
  8
0
  6
Continuous
 62
     7
100
AcDbLine
 10
76.923903738
 20
-60.5669754968
 30
0.0
 11
76.9271533715
 21
-68.4624949697
 31
0.0
  0
LINE
  5
292
330
1F
100
AcDbEntity
  8
0
  6
Continuous
 62
     7
100
AcDbLine
 10
78.319594019
 20
-74.411801578
 30
0.0
 11
78.326005059
 21
-89.988478683
 31
0.0
  0
LINE
  5
293
330
1F
100
AcDbEntity
  8
0
  6
Continuous
 62
     7
100
AcDbLine
 10
82.0769948977
 20
-89.9919497735
 30
0.0
 11
78.326005059
 21
-89.988478683
 31
0.0
  0
LINE
  5
294
330
1F
100
AcDbEntity
  8
0
  6
Continuous
 62
     7
100
AcDbLine
 10
82.0773676906
 20
-90.8977115706
 30
0.0
 11
82.0769948977
 21
-89.9919497735
 31
0.0
  0
LINE
  5
295
330
1F
100
AcDbEntity
  8
0
  6
Continuous
 62
     7
100
AcDbLine
 10
82.0773676906
 20
-90.8977115706
 30
0.0
 11
90.3426339013
 21
-90.9053600815
 31
0.0
  0
LINE
  5
296
330
1F
100
AcDbEntity
  8
0
  6
Continuous
 62
     7
100
AcDbLine
 10
90.3421321723
 20
-89.6863270125
 30
0.0
 11
90.3426339013
 21
-90.9053600815
 31
0.0
  0
LINE
  5
297
330
1F
100
AcDbEntity
  8
0
  6
Continuous
 62
     7
100
AcDbLine
 10
93.7643611215
 20
-89.6894938742
 30
0.0
 11
90.3421321723
 21
-89.6863270125
 31
0.0
  0
LINE
  5
298
330
1F
100
AcDbEntity
  8
0
  6
Continuous
 62
     7
100
AcDbLine
 10
93.7622672701
 20
-84.6021371724
 30
0.0
 11
93.7643611215
 21
-89.6894938742
 31
0.0
  0
LINE
  5
299
330
1F
100
AcDbEntity
  8
0
  6
Continuous
 62
     7
100
AcDbLine
 10
93.7622672701
 20
-84.6021371724
 30
0.0
 11
94.8409171035
 21
-84.6031353332
 31
0.0
  0
LINE
  5
29A
330
1F
100
AcDbEntity
  8
0
  6
Continuous
 62
     7
100
AcDbLine
 10
94.8444885457
 20
-93.2805420523
 30
0.0
 11
94.8409171035
 21
-84.6031353332
 31
0.0
  0
LINE
  5
29B
330
1F
100
AcDbEntity
  8
0
  6
Continuous
 62
     7
100
AcDbLine
 10
89.2907388392
 20
-93.2754027242
 30
0.0
 11
94.8444885457
 21
-93.2805420523
 31
0.0
  0
LINE
  5
29C
330
1F
100
AcDbEntity
  8
0
  6
Continuous
 62
     7
100
AcDbLine
 10
89.2917245747
 20
-95.6704094896
 30
0.0
 11
89.2907388392
 21
-93.2754027242
 31
0.0
  0
LINE
  5
29D
330
1F
100
AcDbEntity
  8
0
  6
Continuous
 62
     7
100
AcDbLine
 10
80.7689004335
 20
-95.6625226398
 30
0.0
 11
89.2917245747
 21
-95.6704094896
 31
0.0
  0
LINE
  5
29E
330
1F
100
AcDbEntity
  8
0
  6
Continuous
 62
     7
100
AcDbLine
 10
80.7689004335
 20
-95.6625226398
 30
0.0
 11
80.767914698
 21
-93.2675158744
 31
0.0
  0
LINE
  5
29F
330
1F
100
AcDbEntity
  8
0
  6
Continuous
 62
     7
100
AcDbLine
 10
77.0198200002
 20
-93.264047463
 30
0.0
 11
80.767914698
 21
-93.2675158744
 31
0.0
  0
LINE
  5
2A0
330
1F
100
AcDbEntity
  8
0
  6
Continuous
 62
     7
100
AcDbLine
 10
77.0105373527
 20
-70.7103269808
 30
0.0
 11
77.0198200002
 21
-93.264047463
 31
0.0
  0
LINE
  5
2A1
330
1F
100
AcDbEntity
  8
0
  6
Continuous
 62
     7
100
AcDbLine
 10
77.0105373527
 20
-70.7103269808
 30
0.0
 11
78.3180710662
 21
-70.7115369462
 31
0.0
  0
LINE
  5
2A2
330
1F
100
AcDbEntity
  8
0
  6
Continuous
 62
     7
100
AcDbLine
 10
78.3191434248
 20
-73.3170088518
 30
0.0
 11
78.3180710662
 21
-70.7115369462
 31
0.0
  0
LINE
  5
2A3
330
1F
100
AcDbEntity
  8
0
  6
Continuous
 62
     7
100
AcDbLine
 10
80.9372816869
 20
-71.9038422448
 30
0.0
 11
80.9378643146
 21
-73.3194321633
 31
0.0
  0
LINE
  5
2A4
330
1F
100
AcDbEntity
  8
0
  6
Continuous
 62
     7
100
AcDbLine
 10
81.8469652481
 20
-71.9046840477
 30
0.0
 11
80.9372816869
 21
-71.9038422448
 31
0.0
  0
LINE
  5
2A5
330
1F
100
AcDbEntity
  8
0
  6
Continuous
 62
     7
100
AcDbLine
 10
81.8465592638
 20
-70.9182782832
 30
0.0
 11
81.8469652481
 21
-71.9046840477
 31
0.0
  0
LINE
  5
2A6
330
1F
100
AcDbEntity
  8
0
  6
Continuous
 62
     7
100
AcDbLine
 10
84.1488020867
 20
-70.9204087324
 30
0.0
 11
81.8465592638
 21
-70.9182782832
 31
0.0
  0
LINE
  5
2A7
330
1F
100
AcDbEntity
  8
0
  6
Continuous
 62
     7
100
AcDbLine
 10
84.149208071
 20
-71.9068144968
 30
0.0
 11
84.1488020867
 21
-70.9204087324
 31
0.0
  0
LINE
  5
2A8
330
1F
100
AcDbEntity
  8
0
  6
Continuous
 62
     7
100
AcDbLine
 10
85.0248957498
 20
-71.9076248405
 30
0.0
 11
84.149208071
 21
-71.9068144968
 31
0.0
  0
LINE
  5
2A9
330
1F
100
AcDbEntity
  8
0
  6
Continuous
 62
     7
100
AcDbLine
 10
85.0254783775
 20
-73.3232147591
 30
0.0
 11
85.0248957498
 21
-71.9076248405
 31
0.0
  0
LINE
  5
2AA
330
1F
100
AcDbEntity
  8
0
  6
Continuous
 62
     7
100
AcDbLine
 10
85.0254783775
 20
-73.3232147591
 30
0.0
 11
86.8946727305
 21
-73.3249444739
 31
0.0
  0
LINE
  5
2AB
330
1F
100
AcDbEntity
  8
0
  6
Continuous
 62
     7
100
AcDbLine
 10
86.8940901028
 20
-71.9093545554
 30
0.0
 11
86.8946727305
 21
-73.3249444739
 31
0.0
  0
LINE
  5
2AC
330
1F
100
AcDbEntity
  8
0
  6
Continuous
 62
     7
100
AcDbLine
 10
87.8202678483
 20
-71.9102116216
 30
0.0
 11
86.8940901028
 21
-71.9093545554
 31
0.0
  0
LINE
  5
2AD
330
1F
100
AcDbEntity
  8
0
  6
Continuous
 62
     7
100
AcDbLine
 10
87.819861864
 20
-70.9238058571
 30
0.0
 11
87.8202678483
 21
-71.9102116216
 31
0.0
  0
LINE
  5
2AE
330
1F
100
AcDbEntity
  8
0
  6
Continuous
 62
     7
100
AcDbLine
 10
90.5937221512
 20
-70.9263727316
 30
0.0
 11
87.819861864
 21
-70.9238058571
 31
0.0
  0
LINE
  5
2AF
330
1F
100
AcDbEntity
  8
0
  6
Continuous
 62
     7
100
AcDbLine
 10
90.5941281356
 20
-71.912778496
 30
0.0
 11
90.5937221512
 21
-70.9263727316
 31
0.0
  0
LINE
  5
2B0
330
1F
100
AcDbEntity
  8
0
  6
Continuous
 62
     7
100
AcDbLine
 10
90.5941281356
 20
-71.912778496
 30
0.0
 11
91.4580750374
 21
-71.9135779751
 31
0.0
  0
LINE
  5
2B1
330
1F
100
AcDbEntity
  8
0
  6
Continuous
 62
     7
100
AcDbLine
 10
91.4609527128
 20
-78.9053640904
 30
0.0
 11
91.4580750374
 21
-71.9135779751
 31
0.0
  0
LINE
  5
2B2
330
1F
100
AcDbEntity
  8
0
  6
Continuous
 62
     7
100
AcDbLine
 10
90.4610235402
 20
-78.9044387761
 30
0.0
 11
91.4609527128
 21
-78.9053640904
 31
0.0
  0
LINE
  5
2B3
330
1F
100
AcDbEntity
  8
0
  6
Continuous
 62
     7
100
AcDbLine
 10
90.4610235402
 20
-78.9044387761
 30
0.0
 11
90.4619623444
 21
-81.1854183607
 31
0.0
  0
LINE
  5
2B4
330
1F
100
AcDbEntity
  8
0
  6
Continuous
 62
     7
100
AcDbLine
 10
90.4619623444
 20
-81.1854183607
 30
0.0
 11
88.1194653337
 21
-81.1832506612
 31
0.0
  0
LINE
  5
2B5
330
1F
100
AcDbEntity
  8
0
  6
Continuous
 62
     7
100
AcDbLine
 10
88.1194653337
 20
-81.1832506612
 30
0.0
 11
88.1205277335
 21
-83.7645258715
 31
0.0
  0
LINE
  5
2B6
330
1F
100
AcDbEntity
  8
0
  6
Continuous
 62
     7
100
AcDbLine
 10
84.4394373642
 20
-83.7611194646
 30
0.0
 11
88.1205277335
 21
-83.7645258715
 31
0.0
  0
LINE
  5
2B7
330
1F
100
AcDbEntity
  8
0
  6
Continuous
 62
     7
100
AcDbLine
 10
84.4383749644
 20
-81.1798442543
 30
0.0
 11
84.4394373642
 21
-83.7611194646
 31
0.0
  0
LINE
  5
2B8
330
1F
100
AcDbEntity
  8
0
  6
Continuous
 62
     7
100
AcDbLine
 10
82.1680735748
 20
-81.1777433631
 30
0.0
 11
84.4383749644
 21
-81.1798442543
 31
0.0
  0
LINE
  5
2B9
330
1F
100
AcDbEntity
  8
0
  6
Continuous
 62
     7
100
AcDbLine
 10
82.1671347705
 20
-78.8967637784
 30
0.0
 11
82.1680735748
 21
-81.1777433631
 31
0.0
  0
LINE
  5
2BA
330
1F
100
AcDbEntity
  8
0
  6
Continuous
 62
     7
100
AcDbLine
 10
99.9168609547
 20
-68.4837691821
 30
0.0
 11
101.3068535194
 21
-68.4850554533
 31
0.0
  0
LINE
  5
2BB
330
1F
100
AcDbEntity
  8
0
  6
Continuous
 62
     7
100
AcDbLine
 10
101.3068535194
 20
-68.4850554533
 30
0.0
 11
101.3058916589
 21
-66.1480570658
 31
0.0
  0
LINE
  5
2BC
330
1F
100
AcDbEntity
  8
0
  6
Continuous
 62
     7
100
AcDbLine
 10
101.3058916589
 20
-66.1480570658
 30
0.0
 11
104.6561362045
 21
-66.1511573147
 31
0.0
  0
LINE
  5
2BD
330
1F
100
AcDbEntity
  8
0
  6
Continuous
 62
     7
100
AcDbLine
 10
104.6561362045
 20
-66.1511573147
 30
0.0
 11
104.6566080563
 21
-67.2975988986
 31
0.0
  0
LINE
  5
2BE
330
1F
100
AcDbEntity
  8
0
  6
Continuous
 62
     7
100
AcDbLine
 10
104.6566080563
 20
-67.2975988986
 30
0.0
 11
113.4037709437
 21
-67.3056933469
 31
0.0
  0
LINE
  5
2BF
330
1F
100
AcDbEntity
  8
0
  6
Continuous
 62
     7
100
AcDbLine
 10
113.4037709437
 20
-67.3056933469
 30
0.0
 11
113.403299092
 21
-66.159251763
 31
0.0
  0
LINE
  5
2C0
330
1F
100
AcDbEntity
  8
0
  6
Continuous
 62
     7
100
AcDbLine
 10
113.403299092
 20
-66.159251763
 30
0.0
 11
116.7443766575
 21
-66.1623435289
 31
0.0
  0
LINE
  5
2C1
330
1F
100
AcDbEntity
  8
0
  6
Continuous
 62
     7
100
AcDbLine
 10
116.7443766575
 20
-66.1623435289
 30
0.0
 11
116.7510497233
 21
-82.3756556795
 31
0.0
  0
LINE
  5
2C2
330
1F
100
AcDbEntity
  8
0
  6
Continuous
 62
     7
100
AcDbLine
 10
116.7510497233
 20
-82.3756556795
 30
0.0
 11
117.8296995567
 21
-82.3766538403
 31
0.0
  0
LINE
  5
2C3
330
1F
100
AcDbEntity
  8
0
  6
Continuous
 62
     7
100
AcDbLine
 10
117.8208556819
 20
-60.8890038018
 30
0.0
 11
117.8296995567
 21
-82.3766538403
 31
0.0
  0
LINE
  5
2C4
330
1F
100
AcDbEntity
  8
0
  6
Continuous
 62
     7
100
AcDbLine
 10
114.2662109827
 20
-60.8857144052
 30
0.0
 11
117.8208556819
 21
-60.8890038018
 31
0.0
  0
LINE
  5
2C5
330
1F
100
AcDbEntity
  8
0
  6
Continuous
 62
     7
100
AcDbLine
 10
114.2654339672
 20
-58.9978272252
 30
0.0
 11
114.2662109827
 21
-60.8857144052
 31
0.0
  0
LINE
  5
2C6
330
1F
100
AcDbEntity
  8
0
  6
Continuous
 62
     7
100
AcDbLine
 10
114.2654339672
 20
-58.9978272252
 30
0.0
 11
102.3143255845
 21
-58.9867679102
 31
0.0
  0
LINE
  5
2C7
330
1F
100
AcDbEntity
  8
0
  6
Continuous
 62
     7
100
AcDbLine
 10
102.3143255845
 20
-58.9867679102
 30
0.0
 11
102.3149856361
 21
-60.5904718926
 31
0.0
  0
LINE
  5
2C8
330
1F
100
AcDbEntity
  8
0
  6
Continuous
 62
     7
100
AcDbLine
 10
102.3149856361
 20
-60.5904718926
 30
0.0
 11
99.9136113213
 21
-60.5882497092
 31
0.0
  0
LINE
  5
2C9
330
1F
100
AcDbEntity
  8
0
  6
Continuous
 62
     7
100
AcDbLine
 10
99.9136113213
 20
-60.5882497092
 30
0.0
 11
99.9168609547
 21
-68.4837691821
 31
0.0
  0
LINE
  5
2CA
330
1F
100
AcDbEntity
  8
0
  6
Continuous
 62
     7
100
AcDbLine
 10
101.3093016023
 20
-74.4330757904
 30
0.0
 11
101.3157126422
 21
-90.0097528954
 31
0.0
  0
LINE
  5
2CB
330
1F
100
AcDbEntity
  8
0
  6
Continuous
 62
     7
100
AcDbLine
 10
105.0667024809
 20
-90.0132239859
 30
0.0
 11
101.3157126422
 21
-90.0097528954
 31
0.0
  0
LINE
  5
2CC
330
1F
100
AcDbEntity
  8
0
  6
Continuous
 62
     7
100
AcDbLine
 10
105.0670752738
 20
-90.918985783
 30
0.0
 11
105.0667024809
 21
-90.0132239859
 31
0.0
  0
LINE
  5
2CD
330
1F
100
AcDbEntity
  8
0
  6
Continuous
 62
     7
100
AcDbLine
 10
105.0670752738
 20
-90.918985783
 30
0.0
 11
113.3323414845
 21
-90.9266342939
 31
0.0
  0
LINE
  5
2CE
330
1F
100
AcDbEntity
  8
0
  6
Continuous
 62
     7
100
AcDbLine
 10
113.3318397556
 20
-89.7076012249
 30
0.0
 11
113.3323414845
 21
-90.9266342939
 31
0.0
  0
LINE
  5
2CF
330
1F
100
AcDbEntity
  8
0
  6
Continuous
 62
     7
100
AcDbLine
 10
116.7540687048
 20
-89.7107680866
 30
0.0
 11
113.3318397556
 21
-89.7076012249
 31
0.0
  0
LINE
  5
2D0
330
1F
100
AcDbEntity
  8
0
  6
Continuous
 62
     7
100
AcDbLine
 10
116.7519748534
 20
-84.6234113848
 30
0.0
 11
116.7540687048
 21
-89.7107680866
 31
0.0
  0
LINE
  5
2D1
330
1F
100
AcDbEntity
  8
0
  6
Continuous
 62
     7
100
AcDbLine
 10
116.7519748534
 20
-84.6234113848
 30
0.0
 11
117.8306246868
 21
-84.6244095456
 31
0.0
  0
LINE
  5
2D2
330
1F
100
AcDbEntity
  8
0
  6
Continuous
 62
     7
100
AcDbLine
 10
117.8341961289
 20
-93.3018162647
 30
0.0
 11
117.8306246868
 21
-84.6244095456
 31
0.0
  0
LINE
  5
2D3
330
1F
100
AcDbEntity
  8
0
  6
Continuous
 62
     7
100
AcDbLine
 10
112.2804464225
 20
-93.2966769366
 30
0.0
 11
117.8341961289
 21
-93.3018162647
 31
0.0
  0
LINE
  5
2D4
330
1F
100
AcDbEntity
  8
0
  6
Continuous
 62
     7
100
AcDbLine
 10
112.281432158
 20
-95.6916837021
 30
0.0
 11
112.2804464225
 21
-93.2966769366
 31
0.0
  0
LINE
  5
2D5
330
1F
100
AcDbEntity
  8
0
  6
Continuous
 62
     7
100
AcDbLine
 10
103.7586080167
 20
-95.6837968522
 30
0.0
 11
112.281432158
 21
-95.6916837021
 31
0.0
  0
LINE
  5
2D6
330
1F
100
AcDbEntity
  8
0
  6
Continuous
 62
     7
100
AcDbLine
 10
103.7586080167
 20
-95.6837968522
 30
0.0
 11
103.7576222812
 21
-93.2887900868
 31
0.0
  0
LINE
  5
2D7
330
1F
100
AcDbEntity
  8
0
  6
Continuous
 62
     7
100
AcDbLine
 10
100.0095275834
 20
-93.2853216754
 30
0.0
 11
103.7576222812
 21
-93.2887900868
 31
0.0
  0
LINE
  5
2D8
330
1F
100
AcDbEntity
  8
0
  6
Continuous
 62
     7
100
AcDbLine
 10
100.0002449359
 20
-70.7316011932
 30
0.0
 11
100.0095275834
 21
-93.2853216754
 31
0.0
  0
LINE
  5
2D9
330
1F
100
AcDbEntity
  8
0
  6
Continuous
 62
     7
100
AcDbLine
 10
100.0002449359
 20
-70.7316011932
 30
0.0
 11
101.3077786494
 21
-70.7328111586
 31
0.0
  0
LINE
  5
2DA
330
1F
100
AcDbEntity
  8
0
  6
Continuous
 62
     7
100
AcDbLine
 10
101.3088510081
 20
-73.3382830642
 30
0.0
 11
101.3077786494
 21
-70.7328111586
 31
0.0
  0
LINE
  5
2DB
330
1F
100
AcDbEntity
  8
0
  6
Continuous
 62
     7
100
AcDbLine
 10
103.9269892701
 20
-71.9251164572
 30
0.0
 11
103.9275718978
 21
-73.3407063757
 31
0.0
  0
LINE
  5
2DC
330
1F
100
AcDbEntity
  8
0
  6
Continuous
 62
     7
100
AcDbLine
 10
104.8366728314
 20
-71.9259582601
 30
0.0
 11
103.9269892701
 21
-71.9251164572
 31
0.0
  0
LINE
  5
2DD
330
1F
100
AcDbEntity
  8
0
  6
Continuous
 62
     7
100
AcDbLine
 10
104.836266847
 20
-70.9395524956
 30
0.0
 11
104.8366728314
 21
-71.9259582601
 31
0.0
  0
LINE
  5
2DE
330
1F
100
AcDbEntity
  8
0
  6
Continuous
 62
     7
100
AcDbLine
 10
107.1385096699
 20
-70.9416829448
 30
0.0
 11
104.836266847
 21
-70.9395524956
 31
0.0
  0
LINE
  5
2DF
330
1F
100
AcDbEntity
  8
0
  6
Continuous
 62
     7
100
AcDbLine
 10
107.1389156542
 20
-71.9280887092
 30
0.0
 11
107.1385096699
 21
-70.9416829448
 31
0.0
  0
LINE
  5
2E0
330
1F
100
AcDbEntity
  8
0
  6
Continuous
 62
     7
100
AcDbLine
 10
108.0146033331
 20
-71.928899053
 30
0.0
 11
107.1389156542
 21
-71.9280887092
 31
0.0
  0
LINE
  5
2E1
330
1F
100
AcDbEntity
  8
0
  6
Continuous
 62
     7
100
AcDbLine
 10
108.0151859608
 20
-73.3444889715
 30
0.0
 11
108.0146033331
 21
-71.928899053
 31
0.0
  0
LINE
  5
2E2
330
1F
100
AcDbEntity
  8
0
  6
Continuous
 62
     7
100
AcDbLine
 10
108.0151859608
 20
-73.3444889715
 30
0.0
 11
109.8843803137
 21
-73.3462186863
 31
0.0
  0
LINE
  5
2E3
330
1F
100
AcDbEntity
  8
0
  6
Continuous
 62
     7
100
AcDbLine
 10
109.883797686
 20
-71.9306287678
 30
0.0
 11
109.8843803137
 21
-73.3462186863
 31
0.0
  0
LINE
  5
2E4
330
1F
100
AcDbEntity
  8
0
  6
Continuous
 62
     7
100
AcDbLine
 10
110.8099754316
 20
-71.931485834
 30
0.0
 11
109.883797686
 21
-71.9306287678
 31
0.0
  0
LINE
  5
2E5
330
1F
100
AcDbEntity
  8
0
  6
Continuous
 62
     7
100
AcDbLine
 10
110.8095694472
 20
-70.9450800695
 30
0.0
 11
110.8099754316
 21
-71.931485834
 31
0.0
  0
LINE
  5
2E6
330
1F
100
AcDbEntity
  8
0
  6
Continuous
 62
     7
100
AcDbLine
 10
113.5834297345
 20
-70.947646944
 30
0.0
 11
110.8095694472
 21
-70.9450800695
 31
0.0
  0
LINE
  5
2E7
330
1F
100
AcDbEntity
  8
0
  6
Continuous
 62
     7
100
AcDbLine
 10
113.5838357188
 20
-71.9340527084
 30
0.0
 11
113.5834297345
 21
-70.947646944
 31
0.0
  0
LINE
  5
2E8
330
1F
100
AcDbEntity
  8
0
  6
Continuous
 62
     7
100
AcDbLine
 10
113.5838357188
 20
-71.9340527084
 30
0.0
 11
114.4477826206
 21
-71.9348521875
 31
0.0
  0
LINE
  5
2E9
330
1F
100
AcDbEntity
  8
0
  6
Continuous
 62
     7
100
AcDbLine
 10
114.450660296
 20
-78.9266383028
 30
0.0
 11
114.4477826206
 21
-71.9348521875
 31
0.0
  0
LINE
  5
2EA
330
1F
100
AcDbEntity
  8
0
  6
Continuous
 62
     7
100
AcDbLine
 10
113.4507311234
 20
-78.9257129885
 30
0.0
 11
114.450660296
 21
-78.9266383028
 31
0.0
  0
LINE
  5
2EB
330
1F
100
AcDbEntity
  8
0
  6
Continuous
 62
     7
100
AcDbLine
 10
113.4507311234
 20
-78.9257129885
 30
0.0
 11
113.4516699277
 21
-81.2066925731
 31
0.0
  0
LINE
  5
2EC
330
1F
100
AcDbEntity
  8
0
  6
Continuous
 62
     7
100
AcDbLine
 10
113.4516699277
 20
-81.2066925731
 30
0.0
 11
111.1091729169
 21
-81.2045248736
 31
0.0
  0
LINE
  5
2ED
330
1F
100
AcDbEntity
  8
0
  6
Continuous
 62
     7
100
AcDbLine
 10
111.1091729169
 20
-81.2045248736
 30
0.0
 11
111.1102353167
 21
-83.7858000839
 31
0.0
  0
LINE
  5
2EE
330
1F
100
AcDbEntity
  8
0
  6
Continuous
 62
     7
100
AcDbLine
 10
107.4291449474
 20
-83.782393677
 30
0.0
 11
111.1102353167
 21
-83.7858000839
 31
0.0
  0
LINE
  5
2EF
330
1F
100
AcDbEntity
  8
0
  6
Continuous
 62
     7
100
AcDbLine
 10
107.4280825476
 20
-81.2011184667
 30
0.0
 11
107.4291449474
 21
-83.782393677
 31
0.0
  0
LINE
  5
2F0
330
1F
100
AcDbEntity
  8
0
  6
Continuous
 62
     7
100
AcDbLine
 10
105.157781158
 20
-81.1990175755
 30
0.0
 11
107.4280825476
 21
-81.2011184667
 31
0.0
  0
LINE
  5
2F1
330
1F
100
AcDbEntity
  8
0
  6
Continuous
 62
     7
100
AcDbLine
 10
105.1568423538
 20
-78.9180379908
 30
0.0
 11
105.157781158
 21
-81.1990175755
 31
0.0
  0
LINE
  5
2F2
330
1F
100
AcDbEntity
  8
0
  6
Continuous
 62
     7
100
AcDbLine
 10
4.8976990689
 20
-62.7951493146
 30
0.0
 11
15.4521141483
 21
-62.8049161577
 31
0.0
  0
LINE
  5
2F3
330
1F
100
AcDbEntity
  8
0
  6
Continuous
 62
     7
100
AcDbLine
 10
15.4521141483
 20
-62.8049161577
 30
0.0
 11
19.3523403072
 21
-68.672585444
 31
0.0
  0
LINE
  5
2F4
330
1F
100
AcDbEntity
  8
0
  6
Continuous
 62
     7
100
AcDbLine
 10
19.3523403072
 20
-68.672585444
 30
0.0
 11
19.3552917374
 21
-75.8435709153
 31
0.0
  0
LINE
  5
2F5
330
1F
100
AcDbEntity
  8
0
  6
Continuous
 62
     7
100
AcDbLine
 10
-0.8990518225
 20
-75.8248279537
 30
0.0
 11
-0.9017281828
 21
-69.3221699648
 31
0.0
  0
LINE
  5
2F6
330
1F
100
AcDbEntity
  8
0
  6
Continuous
 62
     7
100
AcDbLine
 10
-37.6300193536
 20
-70.6042409184
 30
0.0
 11
-37.6220853609
 21
-89.8811826553
 31
0.0
  0
LINE
  5
2F7
330
1F
100
AcDbEntity
  8
0
  6
Continuous
 62
     7
100
AcDbLine
 10
5.7334141325
 20
-54.4427587677
 30
0.0
 11
7.4686124494
 21
-54.4443644852
 31
0.0
  0
LINE
  5
2F8
330
1F
100
AcDbEntity
  8
0
  6
Continuous
 62
     7
100
AcDbLine
 10
7.4686124494
 20
-54.4443644852
 30
0.0
 11
7.4678504059
 21
-52.5928543683
 31
0.0
  0
LINE
  5
2F9
330
1F
100
AcDbEntity
  8
0
  6
Continuous
 62
     7
100
AcDbLine
 10
7.4678504059
 20
-52.5928543683
 30
0.0
 11
9.2550367472
 21
-52.5945081946
 31
0.0
  0
LINE
  5
2FA
330
1F
100
AcDbEntity
  8
0
  6
Continuous
 62
     7
100
AcDbLine
 10
16.6392928797
 20
-54.2475440833
 30
0.0
 11
15.3398872248
 21
-54.2463416395
 31
0.0
  0
LINE
  5
2FB
330
1F
100
AcDbEntity
  8
0
  6
Continuous
 62
     7
100
AcDbLine
 10
15.3398872248
 20
-54.2463416395
 30
0.0
 11
15.3390133668
 21
-52.12315975
 31
0.0
  0
LINE
  5
2FC
330
1F
100
AcDbEntity
  8
0
  6
Continuous
 62
     7
100
AcDbLine
 10
15.3390133668
 20
-52.12315975
 30
0.0
 11
13.1841358266
 21
-52.1211656698
 31
0.0
  0
LINE
  5
2FD
330
1F
100
AcDbEntity
  8
0
  6
Continuous
 62
     7
100
AcDbLine
 10
9.2506363195
 20
-41.9029445188
 30
0.0
 11
9.2550367472
 21
-52.5945081946
 31
0.0
  0
LINE
  5
2FE
330
1F
100
AcDbEntity
  8
0
  6
Continuous
 62
     7
100
AcDbLine
 10
13.1798472134
 20
-41.7012737665
 30
0.0
 11
13.1841358266
 21
-52.1211656698
 31
0.0
  0
LINE
  5
2FF
330
1F
100
AcDbEntity
  8
0
  6
Continuous
 62
     7
100
AcDbLine
 10
36.4233315815
 20
-61.2198445295
 30
0.0
 11
38.9485508154
 21
-61.2221813165
 31
0.0
  0
LINE
  5
300
330
1F
100
AcDbEntity
  8
0
  6
Continuous
 62
     7
100
AcDbLine
 10
38.9485508154
 20
-61.2221813165
 30
0.0
 11
38.9491788492
 21
-62.7480928352
 31
0.0
  0
LINE
  5
301
330
1F
100
AcDbEntity
  8
0
  6
Continuous
 62
     7
100
AcDbLine
 10
38.9491788492
 20
-62.7480928352
 30
0.0
 11
42.8941247712
 21
-62.7517434087
 31
0.0
  0
LINE
  5
302
330
1F
100
AcDbEntity
  8
0
  6
Continuous
 62
     7
100
AcDbLine
 10
39.7431565616
 20
-65.1633494058
 30
0.0
 11
42.8951185391
 21
-65.1662661679
 31
0.0
  0
LINE
  5
303
330
1F
100
AcDbEntity
  8
0
  6
Continuous
 62
     7
100
AcDbLine
 10
42.8951185391
 20
-65.1662661679
 30
0.0
 11
42.8941247712
 21
-62.7517434087
 31
0.0
  0
LINE
  5
304
330
1F
100
AcDbEntity
  8
0
  6
Continuous
 62
     7
100
AcDbLine
 10
10.291958669
 20
-4.3861623812
 30
0.0
 11
10.2908833677
 21
-1.7735408524
 31
0.0
  0
LINE
  5
305
330
1F
100
AcDbEntity
  8
0
  6
Continuous
 62
     7
100
AcDbLine
 10
10.2908833677
 20
-1.7735408524
 30
0.0
 11
9.3468839553
 21
-1.7726672944
 31
0.0
  0
LINE
  5
306
330
1F
100
AcDbEntity
  8
0
  6
Continuous
 62
     7
100
AcDbLine
 10
9.3468839553
 20
-1.7726672944
 30
0.0
 11
9.3479592566
 21
-4.3852888232
 31
0.0
  0
LINE
  5
307
330
1F
100
AcDbEntity
  8
0
  6
Continuous
 62
     7
100
AcDbLine
 10
9.3479592566
 20
-4.3852888232
 30
0.0
 11
7.9925698918
 21
-4.3840345731
 31
0.0
  0
LINE
  5
308
330
1F
100
AcDbEntity
  8
0
  6
Continuous
 62
     7
100
AcDbLine
 10
-10.1185829905
 20
-32.6776822802
 30
0.0
 11
-8.9842443672
 21
-32.6787319743
 31
0.0
  0
LINE
  5
309
330
1F
100
AcDbEntity
  8
0
  6
Continuous
 62
     7
100
AcDbLine
 10
-8.9842443672
 20
-32.6787319743
 30
0.0
 11
-8.9834041484
 21
-34.7201819272
 31
0.0
  0
LINE
  5
30A
330
1F
100
AcDbEntity
  8
0
  6
Continuous
 62
     7
100
AcDbLine
 10
-8.9834041484
 20
-34.7201819272
 30
0.0
 11
-1.2290597512
 21
-34.7273576414
 31
0.0
  0
LINE
  5
30B
330
1F
100
AcDbEntity
  8
0
  6
Continuous
 62
     7
100
AcDbLine
 10
-1.2281141795
 20
-37.0247797957
 30
0.0
 11
-1.2275576304
 21
-38.3770073232
 31
0.0
  0
LINE
  5
30C
330
1F
100
AcDbEntity
  8
0
  6
Continuous
 62
     7
100
AcDbLine
 10
-1.2275576304
 20
-38.3770073232
 30
0.0
 11
6.7769559339
 21
-38.3844145389
 31
0.0
  0
LINE
  5
30D
330
1F
100
AcDbEntity
  8
0
  6
Continuous
 62
     7
100
AcDbLine
 10
15.4110464558
 20
-38.1870975875
 30
0.0
 11
23.8502607783
 21
-38.1949070664
 31
0.0
  0
LINE
  5
30E
330
1F
100
AcDbEntity
  8
0
  6
Continuous
 62
     7
100
AcDbLine
 10
23.8502607783
 20
-38.1949070664
 30
0.0
 11
23.8497042293
 21
-36.8426795389
 31
0.0
  0
LINE
  5
30F
330
1F
100
AcDbEntity
  8
0
  6
Continuous
 62
     7
100
AcDbLine
 10
23.8487586576
 20
-34.5452573846
 30
0.0
 11
30.7213011437
 21
-34.551617097
 31
0.0
  0
LINE
  5
310
330
1F
100
AcDbEntity
  8
0
  6
Continuous
 62
     7
100
AcDbLine
 10
30.7213011437
 20
-34.551617097
 30
0.0
 11
30.7204788059
 21
-32.5536120256
 31
0.0
  0
LINE
  5
311
330
1F
100
AcDbEntity
  8
0
  6
Continuous
 62
     7
100
AcDbLine
 10
-14.8079085684
 20
-26.7508460316
 30
0.0
 11
-12.1469836091
 21
-26.7533083979
 31
0.0
  0
LINE
  5
312
330
1F
100
AcDbEntity
  8
0
  6
Continuous
 62
     7
100
AcDbLine
 10
-12.1469836091
 20
-26.7533083979
 30
0.0
 11
-12.145495421
 21
-30.3691062867
 31
0.0
  0
LINE
  5
313
330
1F
100
AcDbEntity
  8
0
  6
Continuous
 62
     7
100
AcDbLine
 10
-12.145495421
 20
-30.3691062867
 30
0.0
 11
-6.9860887508
 21
-30.3738806978
 31
0.0
  0
LINE
  5
314
330
1F
100
AcDbEntity
  8
0
  6
Continuous
 62
     7
100
AcDbLine
 10
-6.9860887508
 20
-30.3738806978
 30
0.0
 11
-6.9853970118
 21
-32.0545743409
 31
0.0
  0
LINE
  5
315
330
1F
100
AcDbEntity
  8
0
  6
Continuous
 62
     7
100
AcDbLine
 10
-0.9499896167
 20
-33.288012325
 30
0.0
 11
4.2455213622
 21
-34.157492139
 31
0.0
  0
LINE
  5
316
330
1F
100
AcDbEntity
  8
0
  6
Continuous
 62
     7
100
AcDbLine
 10
-0.9017281828
 20
-69.3221699648
 30
0.0
 11
4.8976990689
 21
-62.7951493146
 31
0.0
  0
POINT
  5
317
330
1F
100
AcDbEntity
  8
0
  6
Continuous
 62
     7
100
AcDbPoint
 10
0.0
 20
0.0
 30
0.0
  0
ENDSEC
  0
SECTION
  2
OBJECTS
  0
DICTIONARY
  5
C
330
0
100
AcDbDictionary
281
     1
  3
ACAD_GROUP
350
D
  3
ACAD_LAYOUT
350
1A
  3
ACAD_MLINESTYLE
350
17
  3
ACAD_PLOTSETTINGS
350
19
  3
ACAD_PLOTSTYLENAME
350
E
  3
ACAD_SCALELIST
350
47
  3
DWGPROPS
350
318
  0
DICTIONARY
  5
D
102
{ACAD_REACTORS
330
C
102
}
330
C
100
AcDbDictionary
281
     1
  0
DICTIONARY
  5
1A
102
{ACAD_REACTORS
330
C
102
}
330
C
100
AcDbDictionary
281
     1
  3
Layout1
350
1E
  3
Layout2
350
26
  3
Model
350
22
  0
DICTIONARY
  5
17
102
{ACAD_REACTORS
330
C
102
}
330
C
100
AcDbDictionary
281
     1
  3
Standard
350
18
  0
DICTIONARY
  5
19
102
{ACAD_REACTORS
330
C
102
}
330
C
100
AcDbDictionary
281
     1
  0
ACDBDICTIONARYWDFLT
  5
E
102
{ACAD_REACTORS
330
C
102
}
330
C
100
AcDbDictionary
281
     1
  3
Normal
350
F
100
AcDbDictionaryWithDefault
340
F
  0
DICTIONARY
  5
47
102
{ACAD_REACTORS
330
C
102
}
330
C
100
AcDbDictionary
281
     1
  3
A0
350
48
  3
A1
350
49
  3
A2
350
4A
  3
A3
350
4B
  3
A4
350
4C
  3
A5
350
4D
  3
A6
350
4E
  3
A7
350
4F
  3
A8
350
50
  3
A9
350
51
  3
B0
350
52
  3
B1
350
53
  3
B2
350
54
  3
B3
350
55
  3
B4
350
56
  3
B5
350
57
  3
B6
350
58
  0
XRECORD
  5
318
102
{ACAD_REACTORS
330
C
102
}
330
C
100
AcDbXrecord
280
     1
  1
DWGPROPS COOKIE
  2

  3

  4

  6

  7

  8
31668
  9

300
=
301
=
302
=
303
=
304
=
305
=
306
=
307
=
308
=
309
=
 40
0.0
 41
2460868.436741354
 42
2460868.436976482
  1

 90
        0
  0
LAYOUT
  5
1E
102
{ACAD_REACTORS
330
1A
102
}
330
1A
100
AcDbPlotSettings
  1

  2
none_device
  4

  6

 40
0.0
 41
0.0
 42
0.0
 43
0.0
 44
0.0
 45
0.0
 46
0.0
 47
0.0
 48
0.0
 49
0.0
140
0.0
141
0.0
142
1.0
143
1.0
 70
   688
 72
     1
 73
     0
 74
     5
  7

 75
    16
147
1.0
148
0.0
149
0.0
100
AcDbLayout
  1
Layout1
 70
     1
 71
     1
 10
0.0
 20
0.0
 11
420.0
 21
297.0
 12
0.0
 22
0.0
 32
0.0
 14
1.0000000000E+20
 24
1.0000000000E+20
 34
1.0000000000E+20
 15
-1.0000000000E+20
 25
-1.0000000000E+20
 35
-1.0000000000E+20
146
0.0
 13
0.0
 23
0.0
 33
0.0
 16
1.0
 26
0.0
 36
0.0
 17
0.0
 27
1.0
 37
0.0
 76
     0
330
1B
  0
LAYOUT
  5
26
102
{ACAD_REACTORS
330
1A
102
}
330
1A
100
AcDbPlotSettings
  1

  2
none_device
  4

  6

 40
0.0
 41
0.0
 42
0.0
 43
0.0
 44
0.0
 45
0.0
 46
0.0
 47
0.0
 48
0.0
 49
0.0
140
0.0
141
0.0
142
1.0
143
1.0
 70
   688
 72
     1
 73
     0
 74
     5
  7

 75
    16
147
1.0
148
0.0
149
0.0
100
AcDbLayout
  1
Layout2
 70
     1
 71
     2
 10
0.0
 20
0.0
 11
0.0
 21
0.0
 12
0.0
 22
0.0
 32
0.0
 14
0.0
 24
0.0
 34
0.0
 15
0.0
 25
0.0
 35
0.0
146
0.0
 13
0.0
 23
0.0
 33
0.0
 16
1.0
 26
0.0
 36
0.0
 17
0.0
 27
1.0
 37
0.0
 76
     0
330
23
  0
LAYOUT
  5
22
102
{ACAD_REACTORS
330
1A
102
}
330
1A
100
AcDbPlotSettings
  1

  2
none_device
  4
ANSI_A_(11.00_x_8.50_Inches)
  6

 40
6.35
 41
19.05
 42
6.35000508
 43
19.05000254
 44
279.4
 45
215.9
 46
130.2868504932
 47
99.3507170746
 48
0.0
 49
0.0
140
0.0
141
0.0
142
0.0363062949
143
1.0
 70
  1696
 72
     0
 73
     0
 74
     0
  7

 75
     0
147
0.0179189148
148
-1300.4909072572
149
0.0
100
AcDbLayout
  1
Model
 70
     1
 71
     0
 10
0.0
 20
0.0
 11
420.0
 21
297.0
 12
0.0
 22
0.0
 32
0.0
 14
-146.6523553025
 24
-111.3716228437
 34
0.0
 15
153.2956295629
 25
88.7063740214
 35
0.0
146
0.0
 13
0.0
 23
0.0
 33
0.0
 16
1.0
 26
0.0
 36
0.0
 17
0.0
 27
1.0
 37
0.0
 76
     0
330
1F
331
29
  0
MLINESTYLE
  5
18
102
{ACAD_REACTORS
330
17
102
}
330
17
100
AcDbMlineStyle
  2
Standard
 70
     0
  3

 62
   256
 51
90.0
 52
90.0
 71
     2
 49
0.5
 62
   256
  6
BYLAYER
 49
-0.5
 62
   256
  6
BYLAYER
  0
ACDBPLACEHOLDER
  5
F
102
{ACAD_REACTORS
330
E
102
}
330
E
  0
SCALE
  5
48
102
{ACAD_REACTORS
330
47
102
}
330
47
100
AcDbScale
 70
     0
300
1:1
140
1.0
141
1.0
290
     1
  0
SCALE
  5
49
102
{ACAD_REACTORS
330
47
102
}
330
47
100
AcDbScale
 70
     0
300
1:2
140
1.0
141
2.0
290
     0
  0
SCALE
  5
4A
102
{ACAD_REACTORS
330
47
102
}
330
47
100
AcDbScale
 70
     0
300
1:4
140
1.0
141
4.0
290
     0
  0
SCALE
  5
4B
102
{ACAD_REACTORS
330
47
102
}
330
47
100
AcDbScale
 70
     0
300
1:5
140
1.0
141
5.0
290
     0
  0
SCALE
  5
4C
102
{ACAD_REACTORS
330
47
102
}
330
47
100
AcDbScale
 70
     0
300
1:8
140
1.0
141
8.0
290
     0
  0
SCALE
  5
4D
102
{ACAD_REACTORS
330
47
102
}
330
47
100
AcDbScale
 70
     0
300
1:10
140
1.0
141
10.0
290
     0
  0
SCALE
  5
4E
102
{ACAD_REACTORS
330
47
102
}
330
47
100
AcDbScale
 70
     0
300
1:16
140
1.0
141
16.0
290
     0
  0
SCALE
  5
4F
102
{ACAD_REACTORS
330
47
102
}
330
47
100
AcDbScale
 70
     0
300
1:20
140
1.0
141
20.0
290
     0
  0
SCALE
  5
50
102
{ACAD_REACTORS
330
47
102
}
330
47
100
AcDbScale
 70
     0
300
1:30
140
1.0
141
30.0
290
     0
  0
SCALE
  5
51
102
{ACAD_REACTORS
330
47
102
}
330
47
100
AcDbScale
 70
     0
300
1:40
140
1.0
141
40.0
290
     0
  0
SCALE
  5
52
102
{ACAD_REACTORS
330
47
102
}
330
47
100
AcDbScale
 70
     0
300
1:50
140
1.0
141
50.0
290
     0
  0
SCALE
  5
53
102
{ACAD_REACTORS
330
47
102
}
330
47
100
AcDbScale
 70
     0
300
1:100
140
1.0
141
100.0
290
     0
  0
SCALE
  5
54
102
{ACAD_REACTORS
330
47
102
}
330
47
100
AcDbScale
 70
     0
300
2:1
140
2.0
141
1.0
290
     0
  0
SCALE
  5
55
102
{ACAD_REACTORS
330
47
102
}
330
47
100
AcDbScale
 70
     0
300
4:1
140
4.0
141
1.0
290
     0
  0
SCALE
  5
56
102
{ACAD_REACTORS
330
47
102
}
330
47
100
AcDbScale
 70
     0
300
8:1
140
8.0
141
1.0
290
     0
  0
SCALE
  5
57
102
{ACAD_REACTORS
330
47
102
}
330
47
100
AcDbScale
 70
     0
300
10:1
140
10.0
141
1.0
290
     0
  0
SCALE
  5
58
102
{ACAD_REACTORS
330
47
102
}
330
47
100
AcDbScale
 70
     0
300
100:1
140
100.0
141
1.0
290
     0
  0
ENDSEC
  0
EOF
